<?xml version="1.0" encoding="UTF-8" standalone="no"?>
<svg xmlns="http://www.w3.org/2000/svg" xmlns:xlink="http://www.w3.org/1999/xlink"  version="1.2" baseProfile="tiny">
<title>pyqtgraph SVG export</title>
<desc>Generated with Qt and pyqtgraph</desc>
<defs>
</defs>
<g id="GraphicsScene_1">
    <g fill="none" fill-rule="evenodd" id="PlotItem_1" stroke="black" stroke-linecap="square" stroke-linejoin="bevel" stroke-width="1">
        <g fill="none" fill-rule="evenodd" id="AxisItem_1" stroke="black" stroke-linecap="square" stroke-linejoin="bevel" stroke-width="1">
            <g fill="none" font-family=".SF NS Text" font-size="13" font-style="normal" font-weight="400" stroke="#969696" stroke-linecap="square" stroke-linejoin="bevel" stroke-opacity="1" stroke-width="1">
                <polyline fill="none" points="55.5469,168.0 685.9999,168.0" vector-effect="non-scaling-stroke"/>
            </g>
            <g fill="none" font-family=".SF NS Text" font-size="13" font-style="normal" font-weight="400" stroke="#969696" stroke-linecap="square" stroke-linejoin="bevel" stroke-opacity="0.498039" stroke-width="1">
                <polyline fill="none" points="56.607477,1.0 56.607477,168.0" vector-effect="non-scaling-stroke"/>
            </g>
            <g fill="none" font-family=".SF NS Text" font-size="13" font-style="normal" font-weight="400" stroke="#969696" stroke-linecap="square" stroke-linejoin="bevel" stroke-opacity="0.247059" stroke-width="1">
                <polyline fill="none" points="237.2549,1.0 237.2549,168.0" vector-effect="non-scaling-stroke"/>
                <polyline fill="none" points="417.9019,1.0 417.9019,168.0" vector-effect="non-scaling-stroke"/>
                <polyline fill="none" points="598.5489,1.0 598.5489,168.0" vector-effect="non-scaling-stroke"/>
            </g>
            <g fill="none" font-family=".SF NS Text" font-size="13" font-style="normal" font-weight="400" stroke="#969696" stroke-linecap="square" stroke-linejoin="bevel" stroke-opacity="0.164706" stroke-width="1">
                <polyline fill="none" points="146.931,1.0 146.931,168.0" vector-effect="non-scaling-stroke"/>
                <polyline fill="none" points="327.5779,1.0 327.5779,168.0" vector-effect="non-scaling-stroke"/>
                <polyline fill="none" points="508.2249,1.0 508.2249,168.0" vector-effect="non-scaling-stroke"/>
            </g>
            <g fill="none" font-family=".SF NS Text" font-size="13" font-style="normal" font-weight="400" stroke="#969696" stroke-linecap="square" stroke-linejoin="bevel" stroke-opacity="1" stroke-width="1" transform="matrix(1,0,0,1,56.0469,168)">
                <text fill="#969696" fill-opacity="1" font-family="&quot;.SF NS Text&quot;, sans-serif" font-size="13" font-style="normal" font-weight="400" stroke="none" x="-3.53125" xml:space="preserve" y="12.5938">0</text>
                <text fill="#969696" fill-opacity="1" font-family="&quot;.SF NS Text&quot;, sans-serif" font-size="13" font-style="normal" font-weight="400" stroke="none" x="160.906" xml:space="preserve" y="12.5938">20000</text>
                <text fill="#969696" fill-opacity="1" font-family="&quot;.SF NS Text&quot;, sans-serif" font-size="13" font-style="normal" font-weight="400" stroke="none" x="341.297" xml:space="preserve" y="12.5938">40000</text>
                <text fill="#969696" fill-opacity="1" font-family="&quot;.SF NS Text&quot;, sans-serif" font-size="13" font-style="normal" font-weight="400" stroke="none" x="521.984" xml:space="preserve" y="12.5938">60000</text>
                <text fill="#969696" fill-opacity="1" font-family="&quot;.SF NS Text&quot;, sans-serif" font-size="13" font-style="normal" font-weight="400" stroke="none" x="71.4844" xml:space="preserve" y="12.5938">10000</text>
                <text fill="#969696" fill-opacity="1" font-family="&quot;.SF NS Text&quot;, sans-serif" font-size="13" font-style="normal" font-weight="400" stroke="none" x="251.078" xml:space="preserve" y="12.5938">30000</text>
                <text fill="#969696" fill-opacity="1" font-family="&quot;.SF NS Text&quot;, sans-serif" font-size="13" font-style="normal" font-weight="400" stroke="none" x="431.781" xml:space="preserve" y="12.5938">50000</text>
            </g>
        </g>
        <g fill="none" fill-rule="evenodd" id="AxisItem_2" stroke="black" stroke-linecap="square" stroke-linejoin="bevel" stroke-width="1">
            <g fill="none" font-family=".SF NS Text" font-size="13" font-style="normal" font-weight="400" stroke="#969696" stroke-linecap="square" stroke-linejoin="bevel" stroke-opacity="1" stroke-width="1">
                <polyline fill="none" points="55.5469,1.0 55.5469,168.0" vector-effect="non-scaling-stroke"/>
            </g>
            <g fill="none" font-family=".SF NS Text" font-size="13" font-style="normal" font-weight="400" stroke="#969696" stroke-linecap="square" stroke-linejoin="bevel" stroke-opacity="0.498039" stroke-width="1">
                <polyline fill="none" points="686.5,160.532 56.0469,160.532" vector-effect="non-scaling-stroke"/>
            </g>
            <g fill="none" font-family=".SF NS Text" font-size="13" font-style="normal" font-weight="400" stroke="#969696" stroke-linecap="square" stroke-linejoin="bevel" stroke-opacity="0.247059" stroke-width="1">
                <polyline fill="none" points="686.5,127.499 56.0469,127.499" vector-effect="non-scaling-stroke"/>
                <polyline fill="none" points="686.5,94.4666 56.0469,94.4666" vector-effect="non-scaling-stroke"/>
                <polyline fill="none" points="686.5,61.434 56.0469,61.434" vector-effect="non-scaling-stroke"/>
                <polyline fill="none" points="686.5,28.4014 56.0469,28.4014" vector-effect="non-scaling-stroke"/>
            </g>
            <g fill="none" font-family=".SF NS Text" font-size="13" font-style="normal" font-weight="400" stroke="#969696" stroke-linecap="square" stroke-linejoin="bevel" stroke-opacity="0.164706" stroke-width="1">
                <polyline fill="none" points="686.5,144.016 56.0469,144.016" vector-effect="non-scaling-stroke"/>
                <polyline fill="none" points="686.5,110.983 56.0469,110.983" vector-effect="non-scaling-stroke"/>
                <polyline fill="none" points="686.5,77.9503 56.0469,77.9503" vector-effect="non-scaling-stroke"/>
                <polyline fill="none" points="686.5,44.9177 56.0469,44.9177" vector-effect="non-scaling-stroke"/>
                <polyline fill="none" points="686.5,11.8851 56.0469,11.8851" vector-effect="non-scaling-stroke"/>
            </g>
            <g fill="none" font-family=".SF NS Text" font-size="13" font-style="normal" font-weight="400" stroke="#969696" stroke-linecap="square" stroke-linejoin="bevel" stroke-opacity="1" stroke-width="1" transform="matrix(1,0,0,1,1.5,1)">
                <text fill="#969696" fill-opacity="1" font-family="&quot;.SF NS Text&quot;, sans-serif" font-size="13" font-style="normal" font-weight="400" stroke="none" x="41.3594" xml:space="preserve" y="164">0</text>
                <text fill="#969696" fill-opacity="1" font-family="&quot;.SF NS Text&quot;, sans-serif" font-size="13" font-style="normal" font-weight="400" stroke="none" x="25.3281" xml:space="preserve" y="130.969">200</text>
                <text fill="#969696" fill-opacity="1" font-family="&quot;.SF NS Text&quot;, sans-serif" font-size="13" font-style="normal" font-weight="400" stroke="none" x="24.8125" xml:space="preserve" y="97.9375">400</text>
                <text fill="#969696" fill-opacity="1" font-family="&quot;.SF NS Text&quot;, sans-serif" font-size="13" font-style="normal" font-weight="400" stroke="none" x="24.8906" xml:space="preserve" y="64.9063">600</text>
                <text fill="#969696" fill-opacity="1" font-family="&quot;.SF NS Text&quot;, sans-serif" font-size="13" font-style="normal" font-weight="400" stroke="none" x="24.875" xml:space="preserve" y="31.875">800</text>
            </g>
        </g>
        <g fill="none" fill-rule="evenodd" id="ViewBox_1" stroke="black" stroke-linecap="square" stroke-linejoin="bevel" stroke-width="1">
            <g fill="none" font-family=".SF NS Text" font-size="13" font-style="normal" font-weight="400" stroke="#000000" stroke-linecap="square" stroke-linejoin="bevel" stroke-opacity="1" stroke-width="1">
                <path d="M55.5469,1.0 L685.9999,1.0 L685.9999,168.0 L55.5469,168.0 L55.5469,1.0 " fill-rule="evenodd" vector-effect="non-scaling-stroke"/>
            </g>
            <clipPath id="ViewBox_1_clip">
                <path d="M55.5469,1.0 L686.0,1.0 L686.0,168.0 L55.5469,168.0 L55.5469,1.0 " fill-rule="evenodd" stroke-width="1.0" vector-effect="none"/>
            </clipPath>
            <g clip-path="url(#ViewBox_1_clip)">
                <g fill="none" fill-rule="evenodd" id="ChildGroup_1" stroke="black" stroke-linecap="square" stroke-linejoin="bevel" stroke-width="1">
                    <clipPath id="ChildGroup_1_clip">
                        <path d="M55.5469,1.0 L686.0,1.0 L686.0,168.0 L55.5469,168.0 L55.5469,1.0 " fill-rule="evenodd" stroke-width="1.0" vector-effect="none"/>
                    </clipPath>
                    <g clip-path="url(#ChildGroup_1_clip)">
                        <g fill="none" fill-rule="evenodd" id="InfiniteLine_1" stroke="black" stroke-linecap="square" stroke-linejoin="bevel" stroke-width="1">
                            <g fill="none" font-family=".SF NS Text" font-size="13" font-style="normal" font-weight="400" stroke="#ff0000" stroke-linecap="square" stroke-linejoin="miter" stroke-miterlimit="2" stroke-opacity="1" stroke-width="1">
                                <polyline fill="none" points="488.037,168.0001588547 488.037,1.000232484999998" vector-effect="non-scaling-stroke"/>
                            </g>
                        </g>
                        <g fill="none" fill-rule="evenodd" id="InfiniteLine_2" stroke="black" stroke-linecap="square" stroke-linejoin="bevel" stroke-width="1">
                            <g fill="none" font-family=".SF NS Text" font-size="13" font-style="normal" font-weight="400" stroke="#ff0000" stroke-linecap="square" stroke-linejoin="miter" stroke-miterlimit="2" stroke-opacity="1" stroke-width="1">
                                <polyline fill="none" points="55.546922552245,152.635 686.0001048899999,152.635" vector-effect="non-scaling-stroke"/>
                            </g>
                        </g>
                        <g fill="none" fill-rule="evenodd" id="TextItem_1" stroke="black" stroke-linecap="square" stroke-linejoin="bevel" stroke-width="1">
                            <g fill="#ffffff" fill-opacity="1" font-family=".SF NS Text" font-size="13" font-style="normal" font-weight="400" stroke="#000000" stroke-linecap="square" stroke-linejoin="bevel" stroke-opacity="1" stroke-width="1">
                                <path d="M488.037,144.0 L583.1308,144.0 L583.1308,168.0 L488.037,168.0 L488.037,144.0 " fill-rule="evenodd" vector-effect="non-scaling-stroke"/>
                            </g>
                            <g fill="none" fill-rule="evenodd" id="QGraphicsTextItem_1" stroke="black" stroke-linecap="square" stroke-linejoin="bevel" stroke-width="1">
                                


                                


                                <g fill="none" font-family=".SF NS Text" font-size="13" font-style="normal" font-weight="400" stroke="#000000" stroke-linecap="square" stroke-linejoin="bevel" stroke-opacity="1" stroke-width="1" transform="matrix(1,0,0,1,488.037,144)">
                                    <text fill="#000000" fill-opacity="1" font-family="&quot;.SF NS Text&quot;, sans-serif" font-size="13" font-style="normal" font-weight="400" stroke="none" x="4" xml:space="preserve" y="16.5625">X : 47820.295</text>
                                </g>
                                


                                

                            </g>
                        </g>
                        <g fill="none" fill-rule="evenodd" id="TextItem_2" stroke="black" stroke-linecap="square" stroke-linejoin="bevel" stroke-width="1">
                            <g fill="#ffffff" fill-opacity="1" font-family=".SF NS Text" font-size="13" font-style="normal" font-weight="400" stroke="#000000" stroke-linecap="square" stroke-linejoin="bevel" stroke-opacity="1" stroke-width="1">
                                <path d="M55.5469,152.635 L123.2969,152.635 L123.2969,176.635 L55.5469,176.635 L55.5469,152.635 " fill-rule="evenodd" vector-effect="non-scaling-stroke"/>
                            </g>
                            <g fill="none" fill-rule="evenodd" id="QGraphicsTextItem_2" stroke="black" stroke-linecap="square" stroke-linejoin="bevel" stroke-width="1">
                                


                                


                                <g fill="none" font-family=".SF NS Text" font-size="13" font-style="normal" font-weight="400" stroke="#000000" stroke-linecap="square" stroke-linejoin="bevel" stroke-opacity="1" stroke-width="1" transform="matrix(1,0,0,1,55.5469,152.635)">
                                    <text fill="#000000" fill-opacity="1" font-family="&quot;.SF NS Text&quot;, sans-serif" font-size="13" font-style="normal" font-weight="400" stroke="none" x="4" xml:space="preserve" y="16.5625">Y : 47.813</text>
                                </g>
                                


                                

                            </g>
                        </g>
                        <g id="PlotDataItem_1">
                            <g fill="none" fill-rule="evenodd" id="PlotCurveItem_1" stroke="black" stroke-linecap="square" stroke-linejoin="bevel" stroke-width="1">
                                <g fill="none" font-family=".SF NS Text" font-size="13" font-style="normal" font-weight="400" stroke="#ff0000" stroke-linecap="square" stroke-linejoin="bevel" stroke-opacity="1" stroke-width="2">
                                    <path d="M56.1075,121.326928364 L56.688831981585004,120.966212372 L57.2701621567,121.24864110200001 L57.85149323505,121.53734602600001 L58.432824313400005,121.50480891500001 L59.01415539175,121.854293823 L59.59549550245,121.82109606 L60.176826580800004,121.75965542400002 L60.75815765915,121.83992464200001 L61.339488737500005,121.915073807 L61.92081981585,121.62983730600001 L62.5021508942,121.461536209 L63.083481972550004,121.251614036 L63.6648130509,121.31883537700001 L64.24614412925,121.59383177200002 L64.8274752076,121.63446187000001 L65.408833383,121.481851258 L65.990155429,121.33386521 L66.571477475,120.69121597700001 L67.152799521,120.47369630600001 L67.734121567,120.24131196500001 L68.315443613,120.07813092100001 L68.896765659,119.69363145700001 L69.4781780285,119.44605212000002 L70.05950007450001,119.03330978300002 L70.6408221205,118.47737112500002 L71.2221441665,118.17892158400001 L71.8034662125,117.81737977700001 L72.3847882585,117.288362688 L72.9661103045,116.81913460500002 L73.5474323505,115.972509067 L74.1287543965,115.237038228 L74.710166766,115.23687306500001 L75.291488812,114.199484262 L75.87281085800001,113.47673097400002 L76.454132904,112.901963734 L77.03545495,110.96212429900001 L77.616776996,110.70777327900001 L78.198099042,110.31683245800001 L78.77942108799999,109.76700483100001 L79.360743134,109.46508686700001 L79.94206518,108.00818404400002 L80.5234775495,106.490501237 L81.1047995955,106.32352144400001 L81.6861216415,106.28817656200002 L82.2674436875,106.36877610600001 L82.8487657335,106.902417759 L83.4300877795,109.36797102300001 L84.0114098255,111.378665385 L84.5927318715,111.77390044400002 L85.1740539175,111.968462458 L85.755466287,112.056494337 L86.336788333,112.05038330600001 L86.918110379,111.54696648200002 L87.49943242500001,111.06237824000002 L88.080754471,110.10129474300001 L88.662076517,109.090992672 L89.243398563,109.074806698 L89.824720609,109.316770493 L90.406042655,109.21503008500001 L90.98745502450001,110.278019153 L91.5687770705,110.50842153800001 L92.1500991165,110.43938340400001 L92.7314211625,109.79045797700002 L93.3127432085,109.83637329100002 L93.8940652545,108.306798748 L94.4753873005,108.36278900500001 L95.0567093465,105.90615454300001 L95.63803139250001,105.043343031 L96.219443762,105.72100682000001 L96.800765808,107.209951265 L97.382087854,109.289518598 L97.9634099,110.34061593000001 L98.544731946,110.161579238 L99.12605399200001,110.976163154 L99.707376038,112.74142529800001 L100.288698084,113.39745273400001 L100.87002013,113.877086086 L101.4514324995,114.167277477 L102.0327545455,114.40263475200001 L102.61407659150001,115.048422082 L103.1953986375,114.98549497900001 L103.7767206835,115.090208321 L104.3580427295,115.46793610200001 L104.9393647755,115.67505050400001 L105.5206868215,114.512798473 L106.1020088675,115.325895922 L106.683421237,115.48015816400002 L107.264743283,115.76473401300001 L107.846065329,115.62269383300001 L108.427387375,116.46469480700001 L109.00870942099999,116.57122494200001 L109.590031467,116.870335135 L110.171353513,116.86587573400001 L110.752675559,116.75637266500001 L111.33399760500001,116.41729302600001 L111.9154099745,116.599302652 L112.49673202049999,116.941190062 L113.0780540665,117.19042102900002 L113.6593761125,117.387295325 L114.2406981585,117.35971310400001 L114.8220202045,117.105362084 L115.4033422505,117.467729706 L115.9846642965,117.56831397300002 L116.5659863425,117.53032648300001 L117.147398712,117.21948971700002 L117.728720758,116.57865727700002 L118.310042804,116.219592915 L118.89136485,116.37963586200001 L119.472686896,116.20720569000001 L120.054008942,116.153858041 L120.63533098799999,116.56395777000002 L121.21665303399999,116.718550338 L121.79797508,116.790891732 L122.379297126,116.71921099000002 L122.9607094955,116.55074473 L123.54203154150001,116.94218104000001 L124.1233535875,116.75967592500001 L124.7046756335,116.973892336 L125.2859976795,117.301245402 L125.8673197255,117.38531336900002 L126.4486417715,118.07288693800001 L127.0299638175,117.94802371000002 L127.6112858635,118.107901494 L128.192698233,118.33516578200002 L128.774020279,118.11715062200001 L129.35534232499998,118.583075445 L129.936664371,118.41840793400002 L130.51798641699997,118.15662457900001 L131.099308463,118.34689235500001 L131.68063050900003,118.303784812 L132.261952555,118.418573097 L132.84327460100002,118.85212597200001 L133.4246869705,119.01993158000002 L134.0060090165,119.341173615 L134.5873310625,119.49527069400001 L135.1686531085,119.93856818600001 L135.7499751545,120.25369919 L136.3312972005,120.805178447 L136.91261924650001,120.65124653100001 L137.49394129249998,120.11909134500002 L138.0752633385,119.87613657200001 L138.65667570800002,120.14683872900001 L139.237997754,120.351640849 L139.81931980000002,120.91748928700001 L140.40064184599998,121.33469102500001 L140.981963892,121.42437453400001 L141.56328593799998,121.401086551 L142.144607984,120.681141034 L142.72593002999997,120.33116063700001 L143.307252076,119.87597140900002 L143.8886644455,119.39187865600002 L144.46998649149998,118.729905352 L145.0513085375,119.51145666800001 L145.6326305835,119.85433505600001 L146.2139526295,120.647943271 L146.795003705,121.15202074700001 L147.376687045,121.90367756 L147.95837038500002,121.536850537 L148.53915049,120.82681480000001 L149.12083382999998,120.31233205500001 L149.701613935,120.133295363 L150.283297275,120.514821893 L150.86498061499998,122.20510003500002 L151.44576072,121.96445754400001 L152.02744406,122.77540787400001 L152.608224165,123.40682602300001 L153.189907505,123.46116465000001 L153.771590845,123.60634292700001 L154.35237095,123.94955164100001 L154.93405429,124.258076125 L155.514834395,124.78758870300001 L156.09651773500002,124.967616373 L156.678201075,125.513810414 L157.25898117999998,125.55014627400001 L157.84066452000002,125.42231011200002 L158.42234786,125.27729699800001 L159.00312796499998,125.38300131800001 L159.584811305,125.51562720700001 L160.16559141,125.77394213900001 L160.74727475,125.45088331100001 L161.32895809000001,126.01541044500001 L161.909738195,125.90409058300001 L162.491421535,125.52537182400002 L163.07220164,126.106910747 L163.65388498,126.676227608 L164.23556832,126.48728113600001 L164.816348425,126.608675941 L165.39803176499998,127.15899905700002 L165.97881187000002,127.54102107600002 L166.56049521,127.66621463000001 L167.14217854999998,127.65300159 L167.72295865499999,127.35983726500001 L168.304641995,127.39683377700001 L168.88632533499998,127.47941527700002 L169.46710544,127.99009927300001 L170.04878878,127.96895840900001 L170.629568885,128.170952758 L171.211252225,128.302917995 L171.792935565,127.96879324600002 L172.37371567000002,127.149584766 L172.95539901,127.67083919400001 L173.53617911499998,127.722700376 L174.117862455,127.10978048300001 L174.699545795,127.49659222900002 L175.28032589999998,127.605764972 L175.86200924,128.14320537400002 L176.442789345,129.066136218 L177.024472685,128.846469428 L177.60615602500002,128.042455944 L178.18693613,128.292017237 L178.76861947,127.45695310900001 L179.35030281000002,127.37486709800001 L179.931082915,127.274613157 L180.51276625499997,127.24108506800002 L181.09354636,127.67083919400001 L181.6752297,128.26294854900001 L182.25691304,128.48674441400001 L182.837693145,128.63902470000002 L183.419376485,128.075158218 L184.00015659,127.16923916300001 L184.58183993,124.74629795300001 L185.16352326999998,123.60469129700002 L185.74430337500002,123.61443591400001 L186.325986715,123.507245127 L186.90676682000003,124.02205819800001 L187.48845016,126.40502996200001 L188.0701335,127.183443181 L188.65091360499997,129.01477052500002 L189.232596945,130.11756387600002 L189.814280285,131.125553665 L190.39506038999997,131.612454189 L190.97674373,131.364379363 L191.55752383499998,130.897628725 L192.13920717500002,130.49116258200002 L192.720890515,131.513026063 L193.30167061999998,131.62996146700002 L193.88335396000002,133.70358293200002 L194.464134065,134.07553000800002 L195.04581740499998,134.11302200900002 L195.62750074500002,134.578946832 L196.20828085,134.764094555 L196.78996418999998,134.896390118 L197.370744295,135.28072441900002 L197.952427635,135.48007616 L198.53411097499998,135.60064515000002 L199.11489108,135.98547494000002 L199.69657442,135.865071113 L200.27825775999997,135.917923273 L200.859037865,135.79917107600002 L201.440721205,136.02577471200001 L202.02150131000002,135.825101667 L202.60318465,135.55605114000002 L203.18486799,135.997366676 L203.76564809500002,135.81700868000001 L204.347331435,136.195066787 L204.92811154000003,135.69875197200003 L205.50979488000002,136.440333842 L206.09147822,136.58980635700001 L206.67225832499997,136.701456545 L207.253941665,136.78486386 L207.83472177,136.834247597 L208.41640510999997,136.90543285 L208.99808845,137.061346722 L209.57886855499999,137.053584061 L210.16055189500003,136.80650021300002 L210.742235235,136.911543881 L211.32301533999998,136.681802148 L211.90469867999997,136.834577923 L212.485478785,136.91864589000002 L213.06716212499998,137.178116963 L213.64884546500002,137.22915233 L214.22962557,137.11023497000002 L214.81130890999998,137.383744898 L215.392089015,137.93456350300002 L215.973772355,137.667164606 L216.55545569499998,138.357380783 L217.1362358,138.573083661 L217.71791914,138.71594965600002 L218.29869924500002,138.812239685 L218.880382585,138.712481233 L219.462065925,138.83453669000002 L220.04284602999996,138.76797600100002 L220.62452937,138.834701853 L221.20621271,138.765663719 L221.78699281500002,139.00680169900002 L222.368676155,138.947177856 L222.94945625999998,138.74204541 L223.53113960000002,138.70521406100002 L224.11282294,138.937763565 L224.69360304500003,138.888544991 L225.27528638499996,139.05337766500003 L225.85606649,139.235056965 L226.43774982999997,139.35513046600002 L227.01943317,139.46892777300002 L227.600213275,139.478837553 L228.18189661500003,139.521119281 L228.76267672,139.71799357700002 L229.34436005999999,139.88811146700002 L229.92604339999997,139.99744937300002 L230.506823505,140.13057075100002 L231.08850684499998,140.08663739300002 L231.67019018499997,140.17830285800002 L232.25097029,140.085646415 L232.83265362999998,140.28466783000002 L233.41343373499996,140.421587957 L233.995117075,140.48451506 L234.57680041500004,140.52184189800002 L235.15758052,140.83515610900002 L235.73926386,141.00114492400002 L236.32004396500002,141.11973195800002 L236.901727305,140.771733517 L237.483410645,140.981325364 L238.06419075000002,141.10635375500001 L238.64587409,141.144176082 L239.22665419499998,141.298603487 L239.80833753499996,141.41273112000002 L240.390020875,141.352942114 L240.97080097999998,141.801029333 L241.55248432000002,141.29876865 L242.13416766,142.07007986000002 L242.71494776500003,142.14688065500002 L243.29663110500002,142.27141355700002 L243.87741121,142.748239138 L244.45909454999997,142.26827546 L245.04077789000002,142.36952037900002 L245.621557995,142.448137967 L246.20324133499997,142.526425229 L246.78402144,142.46564524500002 L247.36570478,142.245978455 L247.94738812000003,142.547896419 L248.528168225,142.70067219400002 L249.10985156499999,142.614952597 L249.69063167000002,142.688450132 L250.27231501,142.875414648 L250.85399834999998,142.761782504 L251.43477845500001,142.787547932 L252.016461795,142.867156498 L252.59814513499998,142.963281364 L253.17892524,143.03132852000002 L253.76060858,142.816946946 L254.34138868499997,142.71669300500002 L254.923072025,142.401396838 L255.504755365,141.581032217 L256.08553547,143.198968965 L256.66721881,143.40211945500002 L257.247998915,143.47512150100002 L257.82968225499997,143.48800421500002 L258.411365595,143.129270179 L258.9921457,143.605269945 L259.57382904,143.57603609400002 L260.154609145,143.13422506900002 L260.736292485,143.620795267 L261.317975825,143.63813738200002 L261.89875593,143.767294848 L262.48043927,143.45199868100002 L263.06212260999996,143.282541443 L263.642902715,143.28980861500003 L264.224586055,143.28832214800002 L264.80536616,143.365783595 L265.3870495,143.452659333 L265.96873284000003,143.542012516 L266.549512945,143.72996801000002 L267.131196285,143.360168053 L267.71197639,143.72782089100002 L268.29365973,143.87927536200002 L268.87534307,143.87332949400002 L269.456123175,143.91511573300002 L270.037806515,144.0222734874 L270.61858662000003,144.0856960794 L271.20026995999996,144.0643570198 L271.7819533,144.20405188520002 L272.362733405,144.11233687130002 L272.944416745,144.4132308247 L273.526100085,144.4740933902 L274.10688019,144.3954262533 L274.68856353,144.21614181680002 L275.269343635,144.8574862621 L275.85102697499997,144.9502418029 L276.432710315,144.72398500920002 L277.01349042,144.5001726279 L277.59517375999997,144.74975043720002 L278.175953865,144.7205826514 L278.757637205,145.12832054950002 L279.339320545,145.18850594670002 L279.92010065,145.2991981893 L280.50178399000004,144.8815505112 L281.082564095,145.2073014961 L281.664247435,145.2696505286 L282.245930775,145.29862011880002 L282.82671088,145.27384566880002 L283.40839422,145.2544059837 L283.989174325,145.2219514542 L284.570857665,145.22555200760002 L285.152541005,145.5637232501 L285.73332110999996,145.48930080230002 L286.31500445,145.4155224902 L286.89668779,145.6074253799 L287.477467895,145.9641444273 L288.059151235,145.69985059470002 L288.63993134000003,145.53310202990002 L289.22161468,145.7060111746 L289.80329802,146.3378422311 L290.384078125,146.535922217 L290.965761465,146.5306535173 L291.54654157,146.5059616488 L292.12822491,146.581176879 L292.70990825,146.6613139666 L293.290688355,146.617512739 L293.872371695,146.7056106832 L294.4531518,146.7843769179 L295.03483514,146.85300214440002 L295.61651847999997,146.8925421666 L296.197298585,146.921412659 L296.778981925,147.002342529 L297.360665265,147.0819180624 L297.94144537,147.0784166068 L298.52312871,147.2196309718 L299.103908815,147.305416634 L299.685592155,147.3959094417 L300.267275495,147.485939793 L300.8480556,147.5300548303 L301.42973894,147.69340103730002 L302.010519045,147.65419134110002 L302.592202385,147.49143972090002 L303.173885725,147.8170420591 L303.75466582999996,147.80866829500002 L304.33634917,147.86510449210002 L304.917129275,148.1144675895 L305.498812615,148.0188877614 L306.080495955,148.14971337370002 L306.66127606,148.28134828470002 L307.2429594,148.2877731254 L307.82464274,148.4349498747 L308.405422845,148.4402185744 L308.98710618499996,148.57839394020002 L309.56788629,148.6017479884 L310.14956963,148.637456229 L310.73125297,148.70893877540001 L311.312033075,148.748115439 L311.89371641500003,148.79384907370002 L312.47449652,148.899404747 L313.05617986,148.88655506560002 L313.6378632,148.9689714026 L314.218643305,148.9950506403 L314.80032664500004,149.03305464660002 L315.38110675,149.18360072110002 L315.96279009,149.1739386856 L316.54447343,149.1598337654 L317.125253535,149.27113711110002 L317.706936875,149.3182250824 L318.28862021500004,149.5294850757 L318.86940032,149.6576020148 L319.45108366,149.8268775735 L320.031863765,149.8976994679 L320.613547105,149.8892596386 L321.195230445,150.1297865155 L321.77601055,150.1788564428 L322.35769389,150.2902754026 L322.93847399500004,150.2116743309 L323.520157335,150.1166725733 L324.101840675,150.25602059640002 L324.68262078,150.34349092120002 L325.26430412,150.36889299060002 L325.845084225,150.5519431435 L326.42676756500003,150.5609940759 L327.008450905,150.6469614174 L327.58923101,150.7053795705 L328.17091435000003,150.72017817530002 L328.75259769,150.7711309608 L329.333377795,150.71588393730002 L329.915061135,150.75372278060001 L330.49584124,150.86428289280002 L331.07752458,150.88347483340002 L331.65920792000003,150.9143603144 L332.239988025,150.98201107920002 L332.82167136500004,151.0769302553 L333.40245147,150.6090565089 L333.98413481,150.7295924663 L334.56581815,150.76097343630002 L335.146598255,150.91140389670002 L335.728281595,150.8270056037 L336.30906170000003,150.8990166717 L336.89074504,150.89004832080002 L337.47242838,150.9479379523 L338.05320848499997,151.1014239282 L338.634891825,151.4238221042 L339.216575165,151.1819243744 L339.79735527,151.6764223964 L340.37903861,151.73026553440002 L340.95981871500004,151.7220734496 L341.541502055,151.6999746402 L342.123185395,151.553078668 L342.7039655,151.6656868014 L343.28564884,151.8368452183 L343.866428945,151.8091308669 L344.448112285,151.8547654038 L345.029795625,151.8956432463 L345.61057573,151.65714787430002 L346.19225907000003,152.06521609840001 L346.773039175,152.06234226220002 L347.35472251500005,152.0662566253 L347.936405855,152.0788255296 L348.51718596,152.0036102994 L349.0988693,152.1385484704 L349.68055264000003,152.18766794660002 L350.261332745,152.1998074271 L350.843016085,152.31079696310002 L351.42379619,152.3501057571 L352.00547953,152.3855662532 L352.58716287,152.3765979023 L353.167942975,152.2691098219 L353.749626315,152.3905211432 L354.33040642,152.42393361810002 L354.91208976,152.4575773212 L355.4937731,152.48111304870002 L356.07455320500003,152.4883637044 L356.65623654499996,152.6851719352 L357.23701665,152.5733400679 L357.81869999,152.6740564653 L358.40038333,152.7289236139 L358.981163435,152.72570293540002 L359.562846775,152.7930398905 L360.144530115,152.8111747879 L360.72531022,152.9275156051 L361.30699355999997,152.82471815390002 L361.887773665,152.88470535550002 L362.46945700500004,152.9179361511 L363.05114034499996,152.91537612460002 L363.63192045,152.85225082600002 L364.21360379000004,152.902460378 L364.79438389499995,152.8756544231 L365.376067235,152.935658141 L365.95775057500003,152.94342080200002 L366.53853068,153.01169918620002 L367.12021402,152.9043102036 L367.700994125,152.93058763690001 L368.282677465,153.04801852990002 L368.86436080500005,152.8005052581 L369.44514091,153.0773845113 L370.02682425,152.9272678606 L370.60850759000004,152.9303894413 L371.18928769499996,152.8809396391 L371.770971035,152.9476820074 L372.35175114000003,152.9721426477 L372.93343448,152.9208925688 L373.51511782,152.9983044669 L374.09589792500003,152.97912904260002 L374.677581265,153.0219723248 L375.25836137,153.00109572160002 L375.84004471,153.1930811928 L376.42172805,152.9006766176 L377.00250815500004,153.03059383340002 L377.58419149499997,152.9037156168 L378.1649716,153.01827267360002 L378.74665494000004,152.91275003290002 L379.32833828,153.085791308 L379.909118385,152.9576908852 L380.490801725,152.972654653 L381.072485065,152.89691090120002 L381.65326517,152.78993482610002 L382.23494851,153.1360834415 L382.815728615,153.00083146080001 L383.39741195500005,152.7252239627 L383.979095295,152.6857334894 L384.5598754,152.64151935430002 L385.14155874,152.76937203260002 L385.72233884499997,152.8529445106 L386.304022185,152.8134044884 L386.885705525,152.77766321520002 L387.46648563,152.7704455921 L388.04816897,152.65613627980002 L388.628949075,152.7424009147 L389.210632415,152.67299942210002 L389.79231575500006,152.6592413442 L390.37309586,152.8779501888 L390.9547792,152.8201596551 L391.53646254,152.6776405024 L392.117242645,152.8441413227 L392.698925985,152.67655042660002 L393.27970609000005,152.3615680693 L393.86138943000003,152.75397884100002 L394.44307276999996,152.6984180078 L395.023852875,152.84035909000002 L395.60553621500003,152.7974992915 L396.18631632,152.8129089994 L396.76799966,152.8693286802 L397.349683,152.8813690629 L397.93046310500006,152.8622431875 L398.512146445,152.8443890672 L399.09292655,152.77366627060002 L399.67460989,152.75513498200002 L400.25629323000004,152.91722595020002 L400.837073335,152.8135201025 L401.418756675,152.8221581274 L402.00044001500004,152.9381025534 L402.58122011999995,152.7713539886 L403.16290346,152.760750524 L403.743683565,152.807987142 L404.325366905,152.98489323130002 L404.907050245,152.7496515704 L405.48783035,152.78220519770002 L406.06951369,152.8701379789 L406.650293795,152.8353711674 L407.23197713499997,152.7683645383 L407.813660475,152.8229013609 L408.39444058000004,152.8883554578 L408.97612391999996,152.81109220640002 L409.556904025,152.77789444340002 L410.13858736500003,152.8721529675 L410.720270705,152.9693844256 L411.30105081,152.8004391929 L411.88273415000003,152.7702804291 L412.46441749,152.7335316616 L413.045197595,152.7486771087 L413.626880935,152.6619995663 L414.20766104,152.68386714750002 L414.78934438000005,152.6920592323 L415.37102772,152.7841210885 L415.951807825,152.5919209054 L416.53349116500004,152.82600642530002 L417.11427126999996,152.6990291109 L417.69595461,152.7362733674 L418.27763795,152.8132888743 L418.858418055,152.71361300380002 L419.440101395,152.6820008056 L420.02088150000003,152.72826296190001 L420.60256484,152.66033142 L421.18424818000005,152.8864560833 L421.76502828499997,152.9225441988 L422.346711625,152.95268644630002 L422.928394965,153.0851802049 L423.50917506999997,153.00243354190002 L424.09085841,152.83649427580002 L424.67163851500004,152.9008252643 L425.253321855,153.05753191870002 L425.835005195,152.8779997377 L426.4157853,152.6018802343 L426.99746864,152.95144772380002 L427.578248745,152.96814570310002 L428.159932085,152.9633394598 L428.741615425,152.67152947140002 L429.32239553000005,153.0602571082 L429.90407887,153.05839076630002 L430.484858975,152.94968047970002 L431.066542315,152.96765021410002 L431.64822565500003,153.0447978514 L432.22900576,153.02930556200002 L432.8106891,153.0624207435 L433.39237244000003,153.0179423476 L433.973152545,152.9765359835 L434.554835885,153.0259692694 L435.13561599,152.80826791910002 L435.71729933000006,152.8222737415 L436.29898267,152.9544371741 L436.879762775,152.8827729484 L437.461446115,152.7871931203 L438.04222622,152.8592372209 L438.62390956,152.88490355110002 L439.2055929,152.78587181630002 L439.78637300500003,152.83188622810002 L440.36805634499996,152.7710566952 L440.94883645,152.8146927598 L441.53051979,152.823347301 L442.11220313,152.9992789286 L442.692983235,152.95892960770001 L443.274666575,152.7399730186 L443.856349915,152.9043762688 L444.43713002,152.8253622896 L445.01881335999997,152.7443828707 L445.599593465,152.7647309523 L446.18127680500004,152.86427469240002 L446.76296014499997,152.7686618317 L447.34374025,152.731681836 L447.92542359000004,152.7313845426 L448.50620369499995,152.6530146991 L449.087887035,152.7072046794 L449.669570375,152.6395869472 L450.25035048,152.6438811852 L450.83203382,152.7287419346 L451.412813925,152.7960128245 L451.994497265,152.8321504889 L452.57618060500005,152.7154793457 L453.15696070999996,152.6858325872 L453.73864405,152.6020453973 L454.32032739000005,152.4593115327 L454.90110749499996,152.1077786035 L455.482790835,151.97013175930002 L456.06357094000003,152.6401650177 L456.64525428,152.2080325445 L457.22693762,152.6325344871 L457.80771772500003,152.7644171426 L458.389401065,152.82306652390002 L458.97018117,152.81262822230002 L459.55186451,152.78915856 L460.13354785,152.78654898460002 L460.71432795500004,152.77140353750002 L461.29601129499997,152.5335192686 L461.8767914,152.6598854799 L462.45847474000004,152.8497568647 L463.04015808,152.7627820289 L463.620938185,152.8816828726 L464.202621525,152.5643221681 L464.784304865,152.8085982451 L465.36508497,152.6882274507 L465.94676831,152.7854919414 L466.527548415,152.7198561652 L467.10923175500005,152.65858069220002 L467.690915095,152.73196261310002 L468.2716952,152.5420581957 L468.85337854,152.6121698892 L469.43415864499997,152.4141890011 L470.015841985,152.59405150810002 L470.597525325,152.6390419093 L471.17830543,152.53748318060002 L471.75998876999995,152.30835255070002 L472.340768875,152.4189126629 L472.922452215,152.19797411780002 L473.504135555,152.2410155956 L474.08491566,152.5120645949 L474.666599,152.58286997300002 L475.24828234,152.6335089488 L475.829062445,152.6487369774 L476.410745785,152.58029343020002 L476.99152589,152.5925320085 L477.57320923000003,152.59538932840002 L478.15489256999996,152.5001067937 L478.735672675,152.4503927307 L479.31735601500003,152.327693138 L479.89813612,152.39172683310002 L480.47981946,152.43263770820002 L481.0615028,152.41797123380002 L481.64228290500006,152.3040087638 L482.223966245,152.29976407470002 L482.80474635,152.53036465530002 L483.38642969,152.2404210088 L483.96811303000004,152.3526657836 L484.548893135,152.62189798990002 L485.130576475,152.32270521540002 L485.71225981500004,152.1525047439 L486.29303991999996,152.27209927220002 L486.87472326,152.64771296680001 L487.455503365,152.65697861110002 L488.037186705,152.6349788995 L488.618870045,152.5648837223 L489.19965015,152.5156651483 L489.78133349,152.4369649788 L490.362113595,152.473036578 L490.94379693499997,152.58121834300002 L491.525480275,152.5441227332 L492.10626038000004,152.6013847453 L492.68794371999996,152.561068457 L493.268723825,152.67268561240002 L493.85040716500004,152.6597863821 L494.432090505,152.681141958 L495.01287061,152.70852598340002 L495.59455395,152.5192326691 L496.17623729,152.5770727517 L496.757017395,152.47761159310002 L497.338700735,152.5311244051 L497.91948084,152.5110901332 L498.50116418000005,152.4716822414 L499.08284752,152.4813938258 L499.663627625,152.48717453080002 L500.24531096500004,152.44165560800002 L500.82609106999996,152.3867884594 L501.40777441,152.1946543415 L501.98945775,152.2047788334 L502.570237855,152.06480319090002 L503.151921195,151.95589470870001 L503.73270130000003,151.8828100812 L504.31438464,151.77745260350002 L504.89606798000005,151.72395630780002 L505.476848085,151.64862546350003 L506.058531425,151.526817751 L506.63931153000004,151.3344854375 L507.22099486999997,151.19543470780002 L507.80267821,151.0981702171 L508.38345831500004,150.95428021150002 L508.965141655,150.6450620429 L509.54682499499995,150.5653543791 L510.1276051,150.5712672145 L510.70928844,150.4784290922 L511.290068545,150.306923833 L511.871751885,150.0739614215 L512.453435225,149.82454877520001 L513.03421533,149.84301399860001 L513.61589867,149.73418809790002 L514.196678775,149.6277405444 L514.7783621149999,148.9934320429 L515.360045455,149.2245941777 L515.94082556,149.1348611198 L516.5225088999999,149.0105759623 L517.103289005,148.7589336155 L517.6849723449999,148.58693286730002 L518.2666556849999,148.4882975237 L518.84743579,148.3412198722 L519.42911913,148.05988121800002 L520.0108024699999,147.8029536552 L520.591582575,147.64383562100002 L521.173265915,147.13169819060002 L521.7540460199999,147.00875085340002 L522.33572936,146.19429906780002 L522.9174127,145.6685356899 L523.498192805,145.1354225585 L524.079876145,144.2683333248 L524.66065625,143.078069649 L525.24233959,139.54886666500002 L525.82402293,137.04862917100002 L526.404803035,133.765023568 L526.986486375,130.86145802800002 L527.5672664800001,126.62733936000001 L528.14894982,121.29174864500001 L528.7306331599999,112.84316570600001 L529.3114132649999,109.329653207 L529.893096605,108.98793096000001 L530.4747799449999,106.90439971500001 L531.0555600499999,104.50226904300001 L531.63724339,101.58119622500001 L532.2180234949999,98.98318223500002 L532.7997068349999,95.79404986800002 L533.381390175,91.204500424 L533.96217028,89.09817668500001 L534.5438536199999,89.12394211300001 L535.124633725,89.11650977800001 L535.706317065,92.66140324700001 L536.288000405,94.95023210100001 L536.86878051,94.06875717 L537.45046385,96.04080339000001 L538.031243955,95.22489817 L538.612927295,93.16448974500001 L539.194610635,90.90357343800001 L539.77539074,88.226116045 L540.35707408,84.32645245200001 L540.93875742,81.26912015900001 L541.5195375249999,78.991687552 L542.101220865,76.209021328 L542.68200097,72.62795716200002 L543.2636843099999,65.987578747 L543.84536765,59.123074141000004 L544.426147755,54.415267989000014 L545.0078310949999,51.888108926 L545.5886112,49.05027826 L546.17029454,44.151874006 L546.75197788,37.94603944400001 L547.332757985,34.14828142200001 L547.914441325,29.956444481999995 L548.49522143,28.63596629700001 L549.0769047699999,29.281258138 L549.65858811,29.668235046999996 L550.239368215,30.363571277000005 L550.821051555,29.237489943000014 L551.402734895,28.335534800000005 L551.983515,29.384485013000017 L552.5651983399999,30.640714791000022 L553.145978445,30.159264646000025 L553.727661785,28.876443625000007 L554.3093451249999,28.292592420000005 L554.89012523,26.54929695499999 L555.4718085699999,25.84140833700002 L556.0525886749999,24.325542323000008 L556.634272015,22.671434878000014 L557.215955355,21.991128481000004 L557.7967354599999,20.925331642000003 L558.3784188,19.907101747000013 L558.959198905,19.538623094000002 L559.5408822449999,19.530364944000013 L560.122565585,19.274031968000003 L560.70334569,19.287575333999996 L561.28502903,20.392020314999996 L561.86671237,21.28208372200001 L562.447492475,23.080708791999996 L563.029175815,25.232617519 L563.60995592,23.84194505900001 L564.19163926,22.996145336000012 L564.7733226,23.947649379000012 L565.354102705,22.327400348999987 L565.935786045,22.221200540000012 L566.51656615,21.101725726000012 L567.09824949,20.598969554000007 L567.67993283,19.585199060000008 L568.2607129349999,20.222893403 L568.8423962749999,20.99602140600001 L569.42317638,21.960077837 L570.0048597199999,22.958488172000017 L570.5865430599999,24.464774731999995 L571.167323165,25.859411104000003 L571.749006505,26.128957119999995 L572.3306898449999,25.086778589999994 L572.91146995,24.39292882700002 L573.49315329,25.357811073000022 L574.0739333949999,25.449311375000008 L574.655616735,23.815188653000007 L575.2373000749999,23.502369931000004 L575.8180801799999,24.303905970000017 L576.39976352,24.166325191 L576.980543625,22.432113691000012 L577.5622269649999,20.938709845000005 L578.143910305,20.48137349800001 L578.7246904099999,19.406162367999997 L579.3063737499999,19.015882199000004 L579.887153855,18.53278042400001 L580.4688371949999,18.644100286000025 L581.0505205349999,17.666170163000004 L581.63130064,16.335782198000004 L582.21298398,16.70277438400001 L582.7946673199999,15.634169774000014 L583.375447425,11.807343064000008 L583.957130765,13.987824990000007 L584.5379108699999,16.192585877 L585.11959421,16.926570249000008 L585.70127755,17.278532602000013 L586.282057655,17.615795448 L586.863740995,17.75998274700001 L587.4445211,18.166283727000007 L588.0262044399999,16.502431665000017 L588.6078877799999,16.05335346800001 L589.188667885,15.509306546000005 L589.7703512249999,15.125632897000003 L590.3511313299999,14.858564325999993 L590.93281467,15.787275875000006 L591.5144980099999,15.959210558000024 L592.0952781149999,14.952542073000018 L592.676961455,14.908608714999986 L593.2586447949999,14.674572744000017 L593.8394248999999,14.719331917000005 L594.42110824,14.912737790000023 L595.0018883449999,14.792994614999998 L595.5835716849999,14.817934228000013 L596.165255025,14.850966827999997 L596.74603513,16.009420110000008 L597.3277184699999,16.459489285000018 L597.908498575,15.757711698000008 L598.490181915,16.06772264899999 L599.0718652549999,17.040697882000018 L599.65264536,18.428397407999995 L600.2343287,18.042576639999993 L600.815108805,16.814424572000007 L601.396792145,17.498529718000015 L601.9784754849999,17.511577595000006 L602.5592555899999,20.093570774 L603.14093893,16.861330864000024 L603.7226222699999,18.288339184000023 L604.3034023749999,18.646412568000017 L604.885085715,18.14530802600001 L605.4658658199999,19.423669646000008 L606.0475491599999,20.320339573000012 L606.6292325,19.382213733000015 L607.210012605,18.510153093000014 L607.7916959449999,17.249133588000007 L608.3724760499999,14.839570581000004 L608.95415939,15.112419856999992 L609.53584273,15.285180355000023 L610.1166228349999,14.77598282599999 L610.698306175,15.037270691999993 L611.27908628,15.959871209999989 L611.8607696199999,17.048295380000013 L612.44245296,18.34746753799999 L613.023233065,19.180219383999997 L613.6049164049999,19.28608886699999 L614.186599745,20.368071680000014 L614.76737985,21.309335616999988 L615.3490631899999,19.238191596999997 L615.929843295,20.770573911000014 L616.5115266349999,21.856190310000017 L617.0932099749999,22.746418879999993 L617.67399008,24.071851955 L618.2556734199999,23.047511028999992 L618.8364535249999,21.43073042200001 L619.418136865,22.572006751999993 L619.999820205,22.890606179000002 L620.5806003099999,23.499727323000002 L621.16228365,23.14000230900001 L621.743063755,22.74807050999999 L622.3247470949999,22.005662825 L622.906430435,22.603387722000008 L623.48721054,21.444273788000004 L624.06889388,20.297051589999995 L624.65057722,20.010658948000014 L625.231357325,19.453729312000007 L625.8130406649999,17.688632331000008 L626.3938207699999,17.306445149000012 L626.97550411,16.409940385 L627.5571874499999,16.697984657000006 L628.1379675549999,17.600104963000007 L628.719650895,17.827864740000024 L629.3004309999999,18.311296841 L629.8821143399999,19.126211083000015 L630.46379768,19.388655089999986 L631.0445777849999,19.076497020000005 L631.6262611249999,18.30254320200001 L632.20704123,17.97552046200002 L632.7887245699999,18.30039608300001 L633.3704079099999,17.115516721000006 L633.951188015,14.101457134000015 L634.532871355,16.480299823000024 L635.1145546949999,16.307869651000004 L635.6953348,17.356654700999997 L636.27701814,16.439174236000014 L636.8577982449999,17.444686579999996 L637.439481585,19.378580147000008 " fill-rule="evenodd" vector-effect="non-scaling-stroke"/>
                                </g>
                            </g>
                        </g>
                    </g>
                </g>
                <g fill="none" fill-rule="evenodd" id="QGraphicsRectItem_1" stroke="black" stroke-linecap="square" stroke-linejoin="bevel" stroke-width="1">
                    <g fill="none" font-family=".SF NS Text" font-size="13" font-style="normal" font-weight="400" stroke="none" transform="matrix(1,0,0,1,55.5469,1)">
                        <rect height="167" vector-effect="non-scaling-stroke" width="630.453" x="0" y="0"/>
                    </g>
                </g>
            </g>
        </g>
    </g>
</g>

</svg>
