<?xml version="1.0" encoding="UTF-8" standalone="no"?>
<svg xmlns="http://www.w3.org/2000/svg" xmlns:xlink="http://www.w3.org/1999/xlink"  version="1.2" baseProfile="tiny">
<title>pyqtgraph SVG export</title>
<desc>Generated with Qt and pyqtgraph</desc>
<defs>
</defs>
<g id="GraphicsScene_1">
    <g fill="none" fill-rule="evenodd" id="PlotItem_1" stroke="black" stroke-linecap="square" stroke-linejoin="bevel" stroke-width="1">
        <g fill="none" fill-rule="evenodd" id="AxisItem_1" stroke="black" stroke-linecap="square" stroke-linejoin="bevel" stroke-width="1">
            <g fill="none" font-family=".SF NS Text" font-size="13" font-style="normal" font-weight="400" stroke="#969696" stroke-linecap="square" stroke-linejoin="bevel" stroke-opacity="1" stroke-width="1">
                <polyline fill="none" points="55.5469,157.0 685.9999,157.0" vector-effect="non-scaling-stroke"/>
            </g>
            <g fill="none" font-family=".SF NS Text" font-size="13" font-style="normal" font-weight="400" stroke="#969696" stroke-linecap="square" stroke-linejoin="bevel" stroke-opacity="0.498039" stroke-width="1">
                <polyline fill="none" points="56.184435,1.0 56.184435,157.0" vector-effect="non-scaling-stroke"/>
                <polyline fill="none" points="571.1489,1.0 571.1489,157.0" vector-effect="non-scaling-stroke"/>
            </g>
            <g fill="none" font-family=".SF NS Text" font-size="13" font-style="normal" font-weight="400" stroke="#969696" stroke-linecap="square" stroke-linejoin="bevel" stroke-opacity="0.247059" stroke-width="1">
                <polyline fill="none" points="159.1769,1.0 159.1769,157.0" vector-effect="non-scaling-stroke"/>
                <polyline fill="none" points="262.1699,1.0 262.1699,157.0" vector-effect="non-scaling-stroke"/>
                <polyline fill="none" points="365.1629,1.0 365.1629,157.0" vector-effect="non-scaling-stroke"/>
                <polyline fill="none" points="468.1559,1.0 468.1559,157.0" vector-effect="non-scaling-stroke"/>
                <polyline fill="none" points="674.1419000000001,1.0 674.1419000000001,157.0" vector-effect="non-scaling-stroke"/>
            </g>
            <g fill="none" font-family=".SF NS Text" font-size="13" font-style="normal" font-weight="400" stroke="#969696" stroke-linecap="square" stroke-linejoin="bevel" stroke-opacity="0.164706" stroke-width="1">
                <polyline fill="none" points="107.68090000000001,1.0 107.68090000000001,157.0" vector-effect="non-scaling-stroke"/>
                <polyline fill="none" points="210.6739,1.0 210.6739,157.0" vector-effect="non-scaling-stroke"/>
                <polyline fill="none" points="313.6669,1.0 313.6669,157.0" vector-effect="non-scaling-stroke"/>
                <polyline fill="none" points="416.6599,1.0 416.6599,157.0" vector-effect="non-scaling-stroke"/>
                <polyline fill="none" points="519.6519000000001,1.0 519.6519000000001,157.0" vector-effect="non-scaling-stroke"/>
                <polyline fill="none" points="622.6449,1.0 622.6449,157.0" vector-effect="non-scaling-stroke"/>
            </g>
            <g fill="none" font-family=".SF NS Text" font-size="13" font-style="normal" font-weight="400" stroke="#969696" stroke-linecap="square" stroke-linejoin="bevel" stroke-opacity="1" stroke-width="1" transform="matrix(1,0,0,1,56.0469,157)">
                <text fill="#969696" fill-opacity="1" font-family="&quot;.SF NS Text&quot;, sans-serif" font-size="13" font-style="normal" font-weight="400" stroke="none" x="-3.95313" xml:space="preserve" y="12.5938">0</text>
                <text fill="#969696" fill-opacity="1" font-family="&quot;.SF NS Text&quot;, sans-serif" font-size="13" font-style="normal" font-weight="400" stroke="none" x="491.609" xml:space="preserve" y="12.5938">100000</text>
                <text fill="#969696" fill-opacity="1" font-family="&quot;.SF NS Text&quot;, sans-serif" font-size="13" font-style="normal" font-weight="400" stroke="none" x="82.8281" xml:space="preserve" y="12.5938">20000</text>
                <text fill="#969696" fill-opacity="1" font-family="&quot;.SF NS Text&quot;, sans-serif" font-size="13" font-style="normal" font-weight="400" stroke="none" x="185.563" xml:space="preserve" y="12.5938">40000</text>
                <text fill="#969696" fill-opacity="1" font-family="&quot;.SF NS Text&quot;, sans-serif" font-size="13" font-style="normal" font-weight="400" stroke="none" x="288.594" xml:space="preserve" y="12.5938">60000</text>
                <text fill="#969696" fill-opacity="1" font-family="&quot;.SF NS Text&quot;, sans-serif" font-size="13" font-style="normal" font-weight="400" stroke="none" x="391.578" xml:space="preserve" y="12.5938">80000</text>
                <text fill="#969696" fill-opacity="1" font-family="&quot;.SF NS Text&quot;, sans-serif" font-size="13" font-style="normal" font-weight="400" stroke="none" x="594.766" xml:space="preserve" y="12.5938">120000</text>
            </g>
        </g>
        <g fill="none" fill-rule="evenodd" id="AxisItem_2" stroke="black" stroke-linecap="square" stroke-linejoin="bevel" stroke-width="1">
            <g fill="none" font-family=".SF NS Text" font-size="13" font-style="normal" font-weight="400" stroke="#969696" stroke-linecap="square" stroke-linejoin="bevel" stroke-opacity="1" stroke-width="1">
                <polyline fill="none" points="55.5469,1.0 55.5469,157.0" vector-effect="non-scaling-stroke"/>
            </g>
            <g fill="none" font-family=".SF NS Text" font-size="13" font-style="normal" font-weight="400" stroke="#969696" stroke-linecap="square" stroke-linejoin="bevel" stroke-opacity="0.247059" stroke-width="1">
                <polyline fill="none" points="686.5,69.5837 56.0469,69.5837" vector-effect="non-scaling-stroke"/>
            </g>
            <g fill="none" font-family=".SF NS Text" font-size="13" font-style="normal" font-weight="400" stroke="#969696" stroke-linecap="square" stroke-linejoin="bevel" stroke-opacity="0.164706" stroke-width="1">
                <polyline fill="none" points="686.5,140.533 56.0469,140.533" vector-effect="non-scaling-stroke"/>
                <polyline fill="none" points="686.5,116.883 56.0469,116.883" vector-effect="non-scaling-stroke"/>
                <polyline fill="none" points="686.5,93.2335 56.0469,93.2335" vector-effect="non-scaling-stroke"/>
                <polyline fill="none" points="686.5,45.934 56.0469,45.934" vector-effect="non-scaling-stroke"/>
                <polyline fill="none" points="686.5,22.2842 56.0469,22.2842" vector-effect="non-scaling-stroke"/>
            </g>
            <g fill="none" font-family=".SF NS Text" font-size="13" font-style="normal" font-weight="400" stroke="#969696" stroke-linecap="square" stroke-linejoin="bevel" stroke-opacity="1" stroke-width="1" transform="matrix(1,0,0,1,1.5,1)">
                <text fill="#969696" fill-opacity="1" font-family="&quot;.SF NS Text&quot;, sans-serif" font-size="13" font-style="normal" font-weight="400" stroke="none" x="18.9375" xml:space="preserve" y="73.0469">1000</text>
                <text fill="#969696" fill-opacity="1" font-family="&quot;.SF NS Text&quot;, sans-serif" font-size="13" font-style="normal" font-weight="400" stroke="none" x="24.8125" xml:space="preserve" y="144">400</text>
                <text fill="#969696" fill-opacity="1" font-family="&quot;.SF NS Text&quot;, sans-serif" font-size="13" font-style="normal" font-weight="400" stroke="none" x="24.8906" xml:space="preserve" y="120.359">600</text>
                <text fill="#969696" fill-opacity="1" font-family="&quot;.SF NS Text&quot;, sans-serif" font-size="13" font-style="normal" font-weight="400" stroke="none" x="24.875" xml:space="preserve" y="96.7031">800</text>
                <text fill="#969696" fill-opacity="1" font-family="&quot;.SF NS Text&quot;, sans-serif" font-size="13" font-style="normal" font-weight="400" stroke="none" x="19.2813" xml:space="preserve" y="49.4063">1200</text>
                <text fill="#969696" fill-opacity="1" font-family="&quot;.SF NS Text&quot;, sans-serif" font-size="13" font-style="normal" font-weight="400" stroke="none" x="18.7656" xml:space="preserve" y="25.75">1400</text>
            </g>
        </g>
        <g fill="none" fill-rule="evenodd" id="ViewBox_1" stroke="black" stroke-linecap="square" stroke-linejoin="bevel" stroke-width="1">
            <g fill="none" font-family=".SF NS Text" font-size="13" font-style="normal" font-weight="400" stroke="#000000" stroke-linecap="square" stroke-linejoin="bevel" stroke-opacity="1" stroke-width="1">
                <path d="M55.5469,1.0 L685.9999,1.0 L685.9999,157.0 L55.5469,157.0 L55.5469,1.0 " fill-rule="evenodd" vector-effect="non-scaling-stroke"/>
            </g>
            <clipPath id="ViewBox_1_clip">
                <path d="M55.5469,1.0 L686.0,1.0 L686.0,157.0 L55.5469,157.0 L55.5469,1.0 " fill-rule="evenodd" stroke-width="1.0" vector-effect="none"/>
            </clipPath>
            <g clip-path="url(#ViewBox_1_clip)">
                <g fill="none" fill-rule="evenodd" id="ChildGroup_1" stroke="black" stroke-linecap="square" stroke-linejoin="bevel" stroke-width="1">
                    <clipPath id="ChildGroup_1_clip">
                        <path d="M55.5469,1.0 L686.0,1.0 L686.0,157.0 L55.5469,157.0 L55.5469,1.0 " fill-rule="evenodd" stroke-width="1.0" vector-effect="none"/>
                    </clipPath>
                    <g clip-path="url(#ChildGroup_1_clip)">
                        <g fill="none" fill-rule="evenodd" id="InfiniteLine_1" stroke="black" stroke-linecap="square" stroke-linejoin="bevel" stroke-width="1">
                            <g fill="none" font-family=".SF NS Text" font-size="13" font-style="normal" font-weight="400" stroke="#ff0000" stroke-linecap="square" stroke-linejoin="miter" stroke-miterlimit="2" stroke-opacity="1" stroke-width="1">
                                <polyline fill="none" points="55.6844,157.000282744 55.6844,1.0007624899999996" vector-effect="non-scaling-stroke"/>
                            </g>
                        </g>
                        <g fill="none" fill-rule="evenodd" id="InfiniteLine_2" stroke="black" stroke-linecap="square" stroke-linejoin="bevel" stroke-width="1">
                            <g fill="none" font-family=".SF NS Text" font-size="13" font-style="normal" font-weight="400" stroke="#ff0000" stroke-linecap="square" stroke-linejoin="miter" stroke-miterlimit="2" stroke-opacity="1" stroke-width="1">
                                <polyline fill="none" points="55.546864959771995,35.8988 686.000336,35.8988" vector-effect="non-scaling-stroke"/>
                            </g>
                        </g>
                        <g fill="none" fill-rule="evenodd" id="TextItem_1" stroke="black" stroke-linecap="square" stroke-linejoin="bevel" stroke-width="1">
                            <g fill="#ffffff" fill-opacity="1" font-family=".SF NS Text" font-size="13" font-style="normal" font-weight="400" stroke="#000000" stroke-linecap="square" stroke-linejoin="bevel" stroke-opacity="1" stroke-width="1">
                                <path d="M55.6844,133.0 L102.8563,133.0 L102.8563,157.0 L55.6844,157.0 L55.6844,133.0 " fill-rule="evenodd" vector-effect="non-scaling-stroke"/>
                            </g>
                            <g fill="none" fill-rule="evenodd" id="QGraphicsTextItem_1" stroke="black" stroke-linecap="square" stroke-linejoin="bevel" stroke-width="1">
                                


                                


                                <g fill="none" font-family=".SF NS Text" font-size="13" font-style="normal" font-weight="400" stroke="#000000" stroke-linecap="square" stroke-linejoin="bevel" stroke-opacity="1" stroke-width="1" transform="matrix(1,0,0,1,55.6844,133)">
                                    <text fill="#000000" fill-opacity="1" font-family="&quot;.SF NS Text&quot;, sans-serif" font-size="13" font-style="normal" font-weight="400" stroke="none" x="4" xml:space="preserve" y="16.5625">X : 0.0</text>
                                </g>
                                


                                

                            </g>
                        </g>
                        <g fill="none" fill-rule="evenodd" id="TextItem_2" stroke="black" stroke-linecap="square" stroke-linejoin="bevel" stroke-width="1">
                            <g fill="#ffffff" fill-opacity="1" font-family=".SF NS Text" font-size="13" font-style="normal" font-weight="400" stroke="#000000" stroke-linecap="square" stroke-linejoin="bevel" stroke-opacity="1" stroke-width="1">
                                <path d="M55.5469,35.8988 L141.3438,35.8988 L141.3438,59.8988 L55.5469,59.8988 L55.5469,35.8988 " fill-rule="evenodd" vector-effect="non-scaling-stroke"/>
                            </g>
                            <g fill="none" fill-rule="evenodd" id="QGraphicsTextItem_2" stroke="black" stroke-linecap="square" stroke-linejoin="bevel" stroke-width="1">
                                


                                


                                <g fill="none" font-family=".SF NS Text" font-size="13" font-style="normal" font-weight="400" stroke="#000000" stroke-linecap="square" stroke-linejoin="bevel" stroke-opacity="1" stroke-width="1" transform="matrix(1,0,0,1,55.5469,35.8988)">
                                    <text fill="#000000" fill-opacity="1" font-family="&quot;.SF NS Text&quot;, sans-serif" font-size="13" font-style="normal" font-weight="400" stroke="none" x="4" xml:space="preserve" y="16.5625">Y : 1284.865</text>
                                </g>
                                


                                

                            </g>
                        </g>
                        <g id="PlotDataItem_1">
                            <g fill="none" fill-rule="evenodd" id="PlotCurveItem_1" stroke="black" stroke-linecap="square" stroke-linejoin="bevel" stroke-width="1">
                                <g fill="none" font-family=".SF NS Text" font-size="13" font-style="normal" font-weight="400" stroke="#ff0000" stroke-linecap="square" stroke-linejoin="bevel" stroke-opacity="1" stroke-width="2">
                                    <path d="M55.6844,35.89958985999999 L56.29826798584,36.08760576999998 L56.912135971679994,36.23778199999998 L57.52600395752,36.58779903999999 L58.139866793719996,37.012312949999995 L58.75373477956,37.34341014999998 L59.367602765399994,37.78447891999997 L59.981470751239996,38.27875974 L60.59533873708,38.72455846999998 L61.209191274,38.73874835000001 L61.82307985839999,39.059203139999966 L62.4369169464,39.54047657000001 L63.0508055308,39.79589440999999 L63.66469411519999,39.77342709999999 L64.2785312032,39.36073809000001 L64.89241978759999,38.73165340999998 L65.5062568756,37.999692100000004 L66.12014546,35.2799651 L66.73403404439999,35.842830340000006 L67.3478711324,35.84874278999999 L67.96175971679999,35.492813299999995 L68.5755968048,34.38245518999997 L69.1894853892,34.18143188999997 L69.8033224772,33.62684408000001 L70.4172110616,32.32255760999999 L71.031099646,33.85151717999997 L71.644936734,34.30322835999999 L72.2588253184,34.50070418999999 L72.8726624064,34.662705319999986 L73.4865509908,34.78450179000001 L74.1004395752,34.59057342999998 L74.7142766632,34.14359220999998 L75.3281652476,33.69897596999999 L75.9420023356,32.93981738999997 L76.55589092,32.41006186999999 L77.1697795044,32.05767985 L77.7836165924,31.56812898999999 L78.3975051768,31.33163098999998 L79.01134226479999,30.926036919999973 L79.6252308492,30.487333129999968 L80.23906793719999,30.058089260000003 L80.85295652159999,29.231528749999995 L81.466845106,27.12196659 L82.08068219399999,25.170858089999996 L82.69457077839999,21.34550293999999 L83.30840786639999,23.192552320000004 L83.92229645079999,20.21267752 L84.53618503519999,18.377453040000006 L85.15002212319999,23.653723419999977 L85.76391070759999,24.68603718999998 L86.37774779559999,25.41208605 L86.99163637999999,26.102660209999982 L87.60547346799999,25.671051360000007 L88.21936205239999,24.399874610000012 L88.83325063679999,23.486992329999993 L89.44708772479999,22.849630219999995 L90.06097630919999,22.737293669999985 L90.67481339719998,22.786958249999998 L91.28870198159998,23.32144373 L91.90259056599999,24.27216568999998 L92.516427654,25.014769409999985 L93.1303162384,25.48540042999997 L93.7441533264,25.83305249 L94.3580419108,26.113302620000013 L94.97193049519998,26.3639905 L95.5857675832,26.622955810000008 L96.1996561676,26.883103610000006 L96.8134932556,27.172813659999974 L97.42738184,27.554757929999994 L98.041218928,27.76997111 L98.6551075124,27.814905729999992 L99.2689960968,28.53031217999998 L99.88283318479999,28.97492841999997 L100.4967217692,29.09199492999997 L101.11055885719999,27.571312790000007 L101.7244474416,26.223274189999984 L102.338336026,25.422728459999973 L102.952173114,24.57961309000001 L103.56606169839999,23.690380610000005 L104.1798987864,22.931222029999986 L104.79378737079999,22.18861830999998 L105.4076244588,21.61274567999999 L106.02151304319999,21.07589521999998 L106.6354016276,21.04869794999999 L107.24929021199999,21.46256944999999 L107.8631273,22.045537019999983 L108.476964388,22.052631959999985 L109.090801476,21.833871310000006 L109.70463856399999,21.92255806 L110.31847565199999,22.937134479999997 L110.93231273999999,25.939476589999998 L111.546149828,23.36992581999999 L112.15998691599998,23.58986895999999 L112.77382400399999,24.15509917999998 L113.38817605599999,24.45781661999999 L114.00201314399999,25.41918099 L114.61585023199999,24.754621609999987 L115.22968731999998,24.707322009999984 L115.843524408,25.257179860000008 L116.45736149599999,26.084922860000006 L117.071198584,27.402216719999984 L117.685035672,27.590232629999974 L118.29887276,28.36831104999999 L118.91270984799999,29.488129079999993 L119.52654693599999,31.799897029999983 L120.140384024,36.42343292999999 L120.75422111199998,32.36512725 L121.3680582,32.52476339999998 L121.98189528799999,32.54841319999997 L122.59573237599999,33.04151152999998 L123.209569464,31.78925462000001 L123.82392151599998,31.739590039999996 L124.437758604,31.90868610999999 L125.05159569199999,32.914985099999996 L125.66543277999999,34.43330225999998 L126.279269868,35.382841729999996 L126.89310695599998,37.40844709999999 L127.506944044,41.31539405999999 L128.120781132,44.872323979999976 L128.73461822,48.11234658000001 L129.34845530799998,49.76665009000001 L129.962292396,51.015359529999984 L130.57612948399998,53.67004958000001 L131.189966572,54.626683990000004 L131.80380365999997,56.47846333000001 L132.417640748,57.08271571999998 L133.031477836,57.98259061000002 L133.645314924,62.26202191999998 L134.259666976,63.457519309999995 L134.87350406399997,64.58206729999999 L135.487341152,64.89187967999999 L136.10117824,65.57654138999997 L136.715015328,65.27027647999999 L137.328852416,65.55762155 L137.942689504,65.78938959 L138.55652659199998,65.70779777999999 L139.17036367999998,65.80003199999999 L139.784200768,66.02707008 L140.398037856,66.16423891999999 L141.011874944,66.37826961 L141.62571203199997,66.54854816999999 L142.23954912,66.78741115 L142.853386208,66.94349983 L143.467223296,67.23793983999998 L144.08106038399998,67.82800234999999 L144.69489747199998,68.66875273999999 L145.309249524,68.97856511999998 L145.923086612,69.28010006999999 L146.5369237,69.83882659499999 L147.150760788,69.90835700699999 L147.76459787599998,69.33331211999999 L148.37843496399998,68.9454554 L148.99227205199998,69.12282889999999 L149.60610914,69.16539854 L150.219946228,69.23989540999999 L150.833783316,69.40189654 L151.44762040399996,69.61096077199998 L152.061457492,69.71974985199999 L152.67529457999998,69.892038645 L153.28913166799998,70.07686183199999 L153.902968756,70.34422282099999 L154.51680584399998,70.325066483 L155.130642932,70.296095478 L155.744994984,70.337009632 L156.35883207199998,70.591954476 L156.97266916,71.388952736 L157.58650624799998,70.82726998599999 L158.200343336,70.81095162399998 L158.81418042399997,70.89538141 L159.428017512,71.50318127 L160.0418546,71.224941373 L160.655691688,70.588052259 L161.26952877600002,69.91604319199999 L161.88336586399998,69.35223195999998 L162.49720295199998,68.81892896999999 L163.11104003999998,68.29153843 L163.724877128,67.27104956 L164.338714216,67.27577952 L164.952551304,66.99198192 L165.56638839199996,66.78741115 L166.18074044399998,66.85717806 L166.794577532,66.62541001999999 L167.40841461999997,66.25883812000001 L168.022251708,65.84614911 L168.636088796,65.51741688999998 L169.249925884,65.86270396999998 L169.863762972,66.01524517999998 L170.47760006,66.38181708 L171.091437148,66.67270962 L171.70527423599998,65.88044132 L172.31911132399998,65.18868466999999 L172.93294841199997,64.66720658 L173.5467855,64.13153861 L174.160622588,63.88558068999998 L174.774459676,63.27068588999998 L175.38829676399996,62.6546086 L176.002133852,62.418110600000006 L176.61648590399997,63.21392637000001 L177.23032299199997,63.67273248999999 L177.84416008,63.723579560000005 L178.457997168,64.499293 L179.071834256,65.50795697 L179.68567134399999,66.06490975999999 L180.29950843199998,66.07082220999999 L180.91334552,65.95375569999999 L181.52718260799998,65.63921336 L182.141019696,65.31048113999998 L182.75485678399997,64.61754199999999 L183.368693872,64.20367049999999 L183.98253095999996,62.88282916999998 L184.596368048,60.54741141999999 L185.210205136,60.17137960000001 L185.82404222399998,60.74725222999999 L186.437879312,59.564762229999985 L187.05223136399997,60.29790602999999 L187.666068452,61.66486446999998 L188.27990553999996,62.51507477999999 L188.89374262799998,62.49142497999999 L189.507579716,61.857610339999994 L190.12141680399998,61.959304479999986 L190.735253892,64.71568866999998 L191.34909097999997,63.066115120000006 L191.962928068,61.240350559999996 L192.57676515600002,60.344023139999976 L193.190602244,60.47764450999999 L193.80443933199996,61.657769529999996 L194.41827641999998,61.76892359 L195.032113508,63.58995818999999 L195.64595059599998,65.77992966999999 L196.259787684,65.05151583 L196.87362477199997,64.23796270999999 L197.487976824,63.56394340999998 L198.10181391199995,62.87100427 L198.71565099999998,63.83591611 L199.329488088,64.59270970999998 L199.94332517599997,65.77756468999999 L200.557162264,65.75746236 L201.17099935199997,65.88517128 L201.78483644,67.34081647 L202.39867352799996,67.66245375 L203.012510616,66.78504617 L203.62634770399995,66.54736567999998 L204.24018479199998,66.16187393999998 L204.85402188,66.31559763999998 L205.46785896799997,66.23164085 L206.081696056,66.9233975 L206.69553314399997,68.03612058999998 L207.309370232,71.283474628 L207.92372228399995,68.97856511999998 L208.53755937199998,68.57888349999999 L209.15139646,67.77124282999999 L209.76523354799997,66.75548392 L210.379070636,65.80949191999999 L210.99290772399996,62.36016859 L211.606744812,65.45710989999998 L212.22058189999996,64.15518840999998 L212.83441898799998,60.419702499999985 L213.448256076,58.32433021999998 L214.06209316399998,57.64676344999998 L214.675930252,56.074051749999995 L215.28976733999997,56.458361 L215.903604428,57.18559235000001 L216.51744151600002,57.361783360000004 L217.131278604,58.14577423 L217.74511569199996,59.16389812 L218.35946774399997,60.22813912000001 L218.973304832,60.26124884000001 L219.58714191999997,61.06415955 L220.200979008,62.77285760000001 L220.81481609600002,65.79884951 L221.42865318399998,66.7933236 L222.04249027199995,67.64235142 L222.65632735999998,66.95650721999999 L223.270164448,64.95928161 L223.88400153599997,63.54502357 L224.497838624,59.78470537000001 L225.11167571200002,56.97037916999997 L225.7255128,56.24196533 L226.33934988799996,55.273506019999985 L226.95318697599998,54.83125475999998 L227.56702406399995,53.59910017999999 L228.18086115199998,52.50647941999998 L228.795213204,51.059111659999985 L229.40905029200002,49.466297629999985 L230.02288738,49.042966209999975 L230.63672446799995,52.239236679999976 L231.25056155599998,56.74334109 L231.86439864399995,58.41065198999999 L232.47823573199997,62.03616633 L233.09207282,62.794142419999986 L233.70590990799997,67.75587045999998 L234.319746996,74.065518851 L234.93358408399996,78.626264532 L235.54742117199999,79.290823912 L236.16125825999995,76.33341642199998 L236.77509534799998,82.13731383999999 L237.388932436,88.373411353 L238.00276952399997,94.85239231199999 L238.616606612,100.20788952199999 L239.23095866399996,100.764960561 L239.84479575199998,104.055593733 L240.45863284,106.5604623 L241.07246992799998,107.209176314 L241.686307016,107.941965367 L242.30014410399997,108.45965948899999 L242.913981192,109.078929502 L243.52781827999996,109.601590082 L244.141655368,110.09350592199999 L244.755492456,110.37162756999999 L245.36932954399998,110.67517275299998 L245.983166632,111.417776473 L246.59700371999998,111.81166389199998 L247.21084080799994,112.111425107 L247.82467789599997,112.690017464 L248.438514984,113.057771854 L249.05235207200002,113.470697362 L249.66670412399998,113.696316454 L250.280541212,114.1165734 L250.89437829999997,114.36690653299999 L251.50821538799994,114.67388093699999 L252.12205247599996,114.88164443 L252.735889564,115.01514755099998 L253.34972665200002,115.075099794 L253.96356373999998,115.03856085299999 L254.57740082799995,115.10217881499999 L255.19123791599998,115.07971150499999 L255.80507500399995,114.99244374299998 L256.41891209199997,114.986649542 L257.03274918,114.95188433599999 L257.64658626799996,114.857403385 L258.260423356,114.85243692699999 L258.87426044399996,114.740218626 L259.488097532,114.60375927999999 L260.102449584,114.475813862 L260.716286672,114.53813108499999 L261.33012376,113.718192519 L261.94396084799996,114.151693353 L262.557797936,114.020436963 L263.17163502399995,113.856307351 L263.785472112,113.674085642 L264.3993092,113.66273373799999 L265.013146288,113.611886668 L265.626983376,113.516104978 L266.24082046399997,113.38946029899999 L266.854657552,113.147995841 L267.46849463999996,113.093246554 L268.082331728,112.99013342599999 L268.696168816,112.890804266 L269.310005904,112.801289773 L269.923842992,112.61552059399999 L270.53819504399996,112.415561535 L271.152032132,111.994240348 L271.76586921999996,112.03964796399998 L272.379706308,111.91737849799999 L272.993543396,112.15470424099999 L273.607380484,111.923290948 L274.221217572,111.714699712 L274.83505465999997,111.79759226099999 L275.44889174799994,111.46933303699998 L276.06272883599996,111.414938497 L276.676565924,110.592989698 L277.290403012,110.167175049 L277.9042401,109.294970425 L278.51807718799995,108.70408017199999 L279.131914276,108.262774904 L279.74575136399994,107.79368112099999 L280.35958845199997,107.690213246 L280.973940504,107.37141394199999 L281.587777592,106.867554953 L282.20161468,106.645483331 L282.81545176799995,106.69692164599999 L283.42928885599997,107.097194511 L284.043125944,107.58296140299998 L284.656963032,106.94500804799999 L285.27080012,106.394322455 L285.88463720799996,105.818095078 L286.498474296,106.231493582 L287.11231138399995,106.16184492099998 L287.726148472,106.24556521299999 L288.33998556,106.577963152 L288.95382264799997,106.003864257 L289.567659736,105.83807915899999 L290.18149682399996,105.650299747 L290.795333912,105.788651077 L291.40968596399995,106.39798817399999 L292.023523052,106.496489591 L292.63736014,107.116469098 L293.25119722799997,104.371555061 L293.865034316,104.30900134 L294.47887140399996,102.38568135499999 L295.092708492,103.256348742 L295.70654557999995,103.49544821999999 L296.320382668,103.92469209 L296.934219756,103.630370329 L297.548056844,103.172864948 L298.161893932,101.54788718999998 L298.77573101999997,101.76617484399999 L299.38956810799993,101.636455691 L300.00340519599996,100.259446086 L300.617242284,99.92456491799999 L301.231079372,100.380414813 L301.84543142399997,100.99566435999999 L302.459268512,100.87694236399999 L303.07310559999996,100.67745630099999 L303.686942688,100.48802140299999 L304.300779776,101.29294234599999 L304.914616864,101.601572236 L305.528453952,100.659955449 L306.14229104,99.856335245 L306.75612812799994,99.139509807 L307.36996521599997,99.059809981 L307.983802304,99.17344727 L308.597639392,99.55539154 L309.21147648,98.995482525 L309.82531356799996,99.05886398899999 L310.439150656,98.500846958 L311.05298774399995,98.387682665 L311.666824832,97.829665634 L312.28066191999994,96.942443387 L312.89501397199996,95.696098927 L313.50885106,94.252160388 L314.12268814799995,94.117001781 L314.736525236,94.20095857099999 L315.35036232399995,94.66071068299999 L315.96419941199997,95.203473593 L316.57803649999994,95.84391017699998 L317.19187358799996,96.598575295 L317.805710676,96.36385102999999 L318.41954776399996,96.16401022 L319.033384852,96.07922568699999 L319.64722193999995,96.37248320699999 L320.2610590279999,96.365506516 L320.87489611599995,96.07260374299999 L321.48873320399997,95.85005912499999 L322.102570292,95.53575328299999 L322.71640737999996,95.33271975 L323.330759432,95.121408787 L323.94459651999995,94.837611187 L324.558433608,94.478725472 L325.17227069599994,94.628783453 L325.78610778399997,94.19410012899999 L326.399944872,94.47115753599999 L327.01378195999996,94.47505975299998 L327.62761904799993,94.44265952699999 L328.24145613599995,94.31412286399998 L328.855293224,94.04179541699999 L329.469130312,93.83888013299999 L330.0829674,93.68421044099999 L330.69680448799994,93.45019567 L331.31064157599997,93.313618075 L331.92447866399993,93.125602165 L332.53831575199996,93.022252539 L333.15215284,92.640899514 L333.766504892,92.271371389 L334.38034197999997,91.872162765 L334.99417906799994,91.471416904 L335.60801615599996,91.28387398999999 L336.22185324399993,90.94378986599999 L336.83569033199996,90.17990132599999 L337.44952742,87.41358421999999 L338.06336450799995,86.27945806099999 L338.677201596,88.092688227 L339.29103868399994,90.64710312499999 L339.90487577199997,91.56802633699999 L340.51871285999994,91.953872824 L341.13254994799996,92.38465393099999 L341.746387036,92.762341237 L342.36022412399996,93.022252539 L342.974061212,92.98192963 L343.58789829999995,92.76955442599998 L344.20225035199996,92.690091098 L344.81608743999993,92.32872215399999 L345.42992452799996,91.87275401 L346.043761616,91.57429353399999 L346.65759870399995,91.63128955199998 L347.271435792,92.25599901899999 L347.88527287999995,92.843933047 L348.49910996799997,92.26191146899998 L349.11294705599994,92.56864937499999 L349.72678414399996,93.02414452299999 L350.340621232,93.651455468 L350.95445831999996,93.61266979599999 L351.5682954079999,93.18283468099999 L352.18213249599995,92.665140559 L352.795969584,92.937941002 L353.409806672,93.661624882 L354.02364375999997,93.65961464899999 L354.637995812,93.54313938399999 L355.25183289999995,94.45684940699999 L355.8656699879999,95.457590694 L356.47950707599995,94.987669168 L357.093344164,94.86161573399998 L357.707181252,94.691455423 L358.32101833999997,95.62337579199999 L358.93485542799993,96.043750987 L359.54869251599996,95.76373735499999 L360.16252960399993,96.051318923 L360.77636669199995,96.786472956 L361.39020378,96.57894596099999 L362.00404086799995,96.92529728199999 L362.617877956,97.84941321699999 L363.23171504399994,98.611291524 L363.84555213199997,99.252910598 L364.45938921999993,99.837651903 L365.07374127199995,99.50832843799999 L365.68757836,99.57336538799998 L366.30141544799994,98.64321875399999 L366.91525253599997,98.042395585 L367.52908962399994,98.52780772999999 L368.14292671199996,98.47152120599999 L368.75676379999993,99.04491060699999 L369.37060088799996,98.030570685 L369.984437976,97.21855480199999 L370.59827506399995,98.24022616199998 L371.212112152,98.88551095499999 L371.82594923999994,99.542620648 L372.43978632799997,100.15881618699999 L373.053623416,100.88557454099998 L373.66746050399996,101.30949720599999 L374.281297592,101.592585312 L374.89513467999996,101.89199178 L375.50948673199997,102.386390849 L376.12332381999994,102.52225895 L376.73716090799996,102.3034983 L377.350997996,102.808539779 L377.96483508399996,103.24464209099999 L378.578672172,103.42875578399999 L379.19250925999995,102.19565521199999 L379.8063463479999,101.33669447599999 L380.42018343599995,100.58191110899999 L381.03402052399997,100.94694577199999 L381.647857612,100.352508049 L382.26169469999996,100.209899755 L382.87553178799993,99.84037162999999 L383.48936887599996,99.45830911099999 L384.1032059639999,100.193226646 L384.71704305199995,99.65353821 L385.33088014,98.710029439 L385.945232192,99.76989522599999 L386.55906927999996,99.05271504099998 L387.17290636799993,98.35504594099999 L387.78674345599995,99.188701391 L388.4005805439999,98.58338476 L389.01441763199995,97.45256957299999 L389.62825472,95.82676407199999 L390.24209180799994,93.55555552899999 L390.85592889599997,89.57162847 L391.46976598399993,80.733343463 L392.08360307199996,80.66251231199999 L392.6974401599999,82.38220751899999 L393.31127724799995,83.15591072599999 L393.9251143359999,82.94921147399998 L394.538951424,82.98906138699999 L395.152788512,83.29993800799998 L395.76662559999994,83.74526374199999 L396.38097765199996,84.46540015199999 L396.99481474,84.437611637 L397.60865182799995,84.19023472899998 L398.2224889159999,84.807849256 L398.836326004,85.65865081099999 L399.45016309199997,85.63346377399999 L400.06400017999994,85.131969765 L400.67783726799996,85.28912268599998 L401.29167435599993,85.235792387 L401.905511444,85.877174963 L402.519348532,86.54930227899999 L403.13318561999995,86.075478536 L403.7470227079999,85.543121538 L404.36085979599994,85.105127242 L404.97469688399997,84.62491805299999 L405.588533972,84.17119663999999 L406.20237105999996,84.72495670699999 L406.816723112,85.15491007099999 L407.43056019999995,85.658414313 L408.0443972879999,85.05806414 L408.65823437599994,85.29077817199999 L409.27207146399996,85.534962357 L409.885908552,86.29944214199999 L410.49974563999996,86.641772997 L411.1135827279999,87.12943187299999 L411.72741981599995,88.14247105599999 L412.341256904,89.774307256 L412.95509399199995,89.753495432 L413.56893107999997,88.38866547399999 L414.18276816799994,87.72375134699999 L414.7966052559999,87.217054382 L415.410442344,85.944813391 L416.02427943199996,83.58657358399999 L416.6381165199999,83.78298517299999 L417.25246857199994,84.49981061099999 L417.86630565999997,84.588852108 L418.48014274799993,84.00919551 L419.0939798359999,84.14281688 L419.707816924,84.60209599599999 L420.32165401199995,85.229170443 L420.9354911,85.691524033 L421.54932818799995,86.070512078 L422.1631652759999,85.689159053 L422.777002364,85.08017670299999 L423.39083945199997,83.53028705999999 L424.00467653999993,81.12273741999999 L424.61851362799996,80.44658963799999 L425.2323507159999,81.533179699 L425.846187804,81.597743653 L426.460024892,80.13157430199999 L427.07386197999995,78.298360055 L427.68821403199996,72.370182938 L428.30205111999993,69.52132802999999 L428.91588820799996,67.08066867 L429.5297252959999,72.876643405 L430.143562384,76.94925721399999 L430.757399472,81.016668067 L431.37123655999994,82.86147071599999 L431.9850736479999,84.23221312399998 L432.59891073599994,86.61315673899999 L433.21274782399996,86.956670084 L433.826584912,87.97420272899998 L434.44042199999996,88.017127116 L435.0542590879999,86.839012329 L435.66809617599995,85.204219904 L436.281933264,84.47982653 L436.89577035199994,84.03769351899999 L437.50960743999997,84.69586745299999 L438.123959492,83.77565373499999 L438.73779657999995,83.36367421899999 L439.3516336679999,82.573297903 L439.96547075599995,82.49726379599998 L440.57930784399997,84.32988679799999 L441.193144932,85.31241773899998 L441.80698201999996,81.836370135 L442.42081910799993,81.457855086 L443.0346561959999,80.34087503199999 L443.648493284,79.935280962 L444.26233037199995,78.693075217 L444.87616746,78.15764374499999 L445.49000454799994,79.45010531499999 L446.1038416359999,80.44978236099999 L446.717678724,79.44241912999999 L447.33151581199996,77.91558804199998 L447.94535289999993,80.917457156 L448.55970495199995,83.085789069 L449.17354204,84.845925434 L449.78737912799994,86.53416640699999 L450.4012162159999,87.881377264 L451.015053304,86.700188003 L451.62889039199996,90.40670290799999 L452.2427274799999,91.33164658599999 L452.85656456799995,91.36558404899999 L453.4704016559999,88.947037252 L454.084238744,88.37613108 L454.698075832,88.955196433 L455.31191291999994,86.833336377 L455.9257500079999,81.828802199 L456.53958709599993,76.869202641 L457.15342418399996,72.43616587999999 L457.767261272,66.78031620999998 L458.38109835999995,70.71375094599999 L458.99545041199997,76.474605728 L459.60928749999994,83.286575871 L460.22312458799996,92.46459025499999 L460.83696167599993,100.11175308499999 L461.45079876399996,109.15957531999999 L462.064635852,116.920375439 L462.67847293999995,120.996773216 L463.2923100279999,124.164072681 L463.90614711599994,127.50188720399998 L464.51998420399997,129.512474951 L465.133821292,131.434021201 L465.74765837999996,132.34229177 L466.36149546799993,132.74977782399998 L466.9753325559999,134.17361403299998 L467.589169644,134.00274422799998 L468.20300673199995,132.418325877 L468.81684382,4062.497983 L469.43068090799994,4062.497983 L470.04503295999996,4062.497983 L470.6588700479999,4062.497983 L471.2727071359999,4062.497983 L471.886544224,4062.497983 L472.50038131199994,4062.497983 L473.11421839999997,4062.497983 L473.72805548799994,4062.497983 L474.3418925759999,4062.497983 L474.955729664,4062.497983 L475.56956675199996,4062.497983 L476.1834038399999,4062.497983 L476.79724092799995,4062.497983 L477.4110780159999,4062.497983 L478.024915104,4062.497983 L478.63875219199997,4062.497983 L479.25258927999994,4062.497983 L479.8664263679999,4062.497983 L480.4807784199999,4062.497983 L481.09461550799995,4062.497983 L481.7084525959999,4062.497983 L482.322289684,4062.497983 L482.93612677199997,4062.497983 L483.54996385999993,4062.497983 L484.16380094799996,4062.497983 L484.7776380359999,4062.497983 L485.39147512399995,4062.497983 L486.005312212,4062.497983 L486.61914929999995,4062.497983 L487.2329863879999,4062.497983 L487.84682347599994,4062.497983 L488.46066056399997,4062.497983 L489.074497652,4062.497983 L489.68833473999996,4062.497983 L490.3021718279999,4062.497983 L490.91652387999994,4062.497983 L491.5303609679999,4062.497983 L492.14419805599994,4062.497983 L492.75803514399996,4062.497983 L493.371872232,4062.497983 L493.98570931999996,4062.497983 L494.5995464079999,4062.497983 L495.2133834959999,4062.497983 L495.827220584,4062.497983 L496.44105767199994,4062.497983 L497.05489475999997,4062.497983 L497.66873184799994,4062.497983 L498.2825689359999,4062.497983 L498.896406024,4062.497983 L499.51024311199996,4062.497983 L500.1240801999999,4062.497983 L500.73791728799995,4062.497983 L501.35226933999996,4062.497983 L501.96610642799993,4062.497983 L502.5799435159999,4062.497983 L503.193780604,4062.497983 L503.80761769199995,4062.497983 L504.4214547799999,144.934864278 L505.03529186799994,144.12438563199998 L505.6491289559999,144.519337292 L506.262966044,144.189067835 L506.87680313199996,143.362152578 L507.49064021999993,143.652926869 L508.10447730799996,141.669418143 L508.7183143959999,143.366527791 L509.33215148399995,143.823914923 L509.945988572,145.467694272 L510.55982565999994,141.710568795 L511.1736627479999,143.144101422 L511.7880147999999,142.851316898 L512.401851888,142.371462456 L513.015688976,142.78722593999998 L513.6295260640001,141.51368421 L514.243363152,143.538580086 L514.85720024,146.37430935499998 L515.471037328,143.666643753 L516.0848744159999,145.048265069 L516.698711504,143.111109951 L517.312548592,139.12860188 L517.92638568,140.761384072 L518.5402227679999,141.471351068 L519.1540598559999,140.829613745 L519.767896944,140.079442089 L520.3817340319999,141.617270334 L520.99557112,142.084590382 L521.609408208,141.830118534 L522.22376026,138.940704219 L522.8375973479999,140.813413632 L523.451434436,144.721424833 L524.065271524,139.60159787999999 L524.6791086119999,139.549095324 L525.2929457,139.55607201499998 L525.906782788,137.053923175 L526.520619876,136.151210309 L527.134456964,138.301568374 L527.748294052,138.883589952 L528.36213114,139.81255409599999 L528.9759682279999,134.578143862 L529.5898053159999,134.848697574 L530.203642404,136.630237008 L530.817479492,139.806641646 L531.4313165799999,140.77581045 L532.045153668,138.09274064 L532.65950572,138.802944134 L533.2733428079999,137.28273499 L533.8871798959999,137.626484833 L534.501016984,134.002152983 L535.114854072,134.36659640099998 L535.7286911599999,136.832797545 L536.342528248,136.251367212 L536.956365336,134.60557763 L537.5702024240001,136.020308666 L538.184039512,136.83457128 L538.7978766,137.480329069 L539.411713688,137.38052691299998 L540.0255507759999,137.749582042 L540.639387864,134.151856217 L541.253224952,132.761484475 L541.86706204,132.583164983 L542.4808991279999,133.696006322 L543.09525118,134.65003925399998 L543.709088268,133.156081388 L544.3229253559999,133.251390082 L544.936762444,132.819189987 L545.550599532,138.950637135 L546.16443662,153.79845457099998 L546.7782737079999,133.24937984899998 L547.392110796,133.14472948399998 L548.005947884,133.036295151 L548.6197849719999,132.99620874 L549.23362206,132.827940413 L549.847459148,132.784306532 L550.461296236,132.853955193 L551.075133324,132.80783808299998 L551.688970412,132.765150194 L552.3028075,132.762548716 L552.9166445879999,132.643353724 L553.53099664,132.29853964 L554.144833728,132.378712462 L554.758670816,132.336852316 L555.372507904,132.304925086 L555.986344992,132.17792566 L556.60018208,132.07623152 L557.2140191679999,131.986835276 L557.8278562559999,131.931258246 L558.441693344,131.711551604 L559.055530432,131.834767062 L559.6693675199999,131.749627782 L560.283204608,131.681161611 L560.897041696,131.576392997 L561.510878784,131.443008125 L562.124715872,131.331617567 L562.73855296,131.280297501 L563.352390048,131.21313206899998 L563.9667420999999,130.871510708 L564.580579188,130.991651692 L565.194416276,130.96646465499998 L565.808253364,130.92259427599998 L566.422090452,130.74569377199998 L567.03592754,130.520192929 L567.649764628,130.397332218 L568.2636017159999,130.25164945 L568.877438804,130.20494109499998 L569.491275892,130.05299113 L570.10511298,129.925991704 L570.72049496,129.809871186 L571.33330212,129.501832541 L571.94610928,129.17794852999998 L572.55891644,128.756390845 L573.17687324,128.94901846599998 L573.7896804,128.858557981 L574.4024875599999,128.3774028 L575.0152947199999,128.232666024 L575.6281018799999,128.286469319 L576.2460586799999,128.003026466 L576.8588658399999,128.011658643 L577.4716729999999,128.088756991 L578.08448016,127.937280022 L578.69728732,128.24579166299998 L579.31524412,128.031879222 L579.92805128,127.68588264799999 L580.54085844,127.37748925599999 L581.1536656,127.281944064 L581.7664727599999,127.17551996399999 L582.38442956,126.86523458799999 L582.9972367199999,127.13401456499999 L583.6100438799999,126.96787472 L584.2228510399999,126.634057793 L584.8356581999999,126.54667178199999 L585.4536149999999,126.20055695900001 L586.0664221599999,125.839897509 L586.67922932,125.45866273300001 L587.29203648,124.971595102 L587.90484364,124.601120985 L588.52280044,124.047715665 L589.1356076,123.99178388799999 L589.74841476,122.963017588 L590.3612219199999,122.866171657 L590.9791787199999,121.807251862 L591.5919858799999,121.576784561 L592.2047930399999,120.346403716 L592.8176001999999,119.48898021699999 L593.4304073599999,117.39656416199999 L594.0483641599999,118.212600511 L594.66117132,118.06845498 L595.27397848,118.06739073899999 L595.88678564,117.60302691599999 L596.4995928,114.26296566199998 L597.1175496,115.51025611399999 L597.73035676,116.904411824 L598.3431639199999,115.380891708 L598.9559710799999,115.336548333 L599.5687782399999,114.8615421 L600.1867350399999,109.04688402299999 L600.7995421999999,104.80541064199998 L601.4123493599999,104.78909227999999 L602.02515652,106.057785801 L602.63796368,109.74940133199999 L603.25592048,108.71294884699999 L603.86872764,104.69390183499999 L604.4815348,101.58158815499999 L605.09434196,97.83013863 L605.7071491199999,97.227541726 L606.3251059199999,97.01067306 L606.9379130799999,92.57337933499998 L607.5507202399999,88.38298952199999 L608.1635273999999,86.149384161 L608.7763345599999,88.87703384399998 L609.3942913599999,90.31245845499998 L610.0070985199999,89.511557978 L610.61990568,89.318812108 L611.23271284,88.528790539 L611.85066964,87.28623004699999 L612.4634768,87.133097592 L613.07628396,86.56987760499999 L613.68909112,84.991371704 L614.3018982799999,84.69988791899999 L614.9198550799999,87.80096794399999 L615.5326622399999,88.209163492 L616.1454693999999,89.759289633 L616.7582765599999,91.377054202 L617.3710837199999,89.941393093 L617.9890405199999,91.90408999499999 L618.60184768,91.245206567 L619.21465484,89.91786154199998 L619.827462,88.06667344699999 L620.44026916,86.42857005 L621.05822596,82.976763491 L621.67103312,83.102107431 L622.2838402799999,82.053948295 L622.8966474399999,80.883992689 L623.5094545999999,80.09054189899999 L624.1274113999999,79.712854593 L624.7402185599999,82.66103866099999 L625.3530257199999,82.728322342 L625.96583288,82.609363848 L626.57864004,81.19404156699999 L627.19659684,81.03830763399999 L627.809404,80.36038611699999 L628.42221116,79.711790352 L629.03501832,79.938591934 L629.6478254799999,79.76417465899999 L630.2657822799999,79.74501832099999 L630.8785894399999,79.75341399999999 L631.4913965999999,79.76216442599998 L632.1042037599999,79.63741173099999 L632.7221605599999,79.402096221 L633.3349677199999,81.05320700799999 L633.9477748799999,80.82616892799999 L634.56058204,78.04128672899999 L635.1733892,76.21410318099998 L635.791346,79.153536823 L636.40415316,81.16223258599999 L637.01696032,83.20723079199999 L637.6297674799999,84.69373897099999 L638.2425746399999,86.19195380099998 L638.8605314399999,87.21173317699999 L639.4733385999999,87.20132726499999 L640.0861457599999,87.07823005599998 L640.6989529199999,87.51681559699999 L641.3117600799999,87.143858251 L641.9297168799999,85.35368663999999 L642.54252404,84.65471680099999 L643.1553312,84.69137399099999 L643.76813836,83.518107413 L644.38094552,81.500779473 L644.99890232,78.852829616 L645.61170948,77.80005876899999 L646.2245166399999,77.331437982 L646.8373237999999,76.38580072899998 L647.4501309599999,75.38174846999999 L648.0680877599999,74.59716635499998 L648.6808949199999,73.86153932599998 L649.2937020799999,73.38133013699999 L649.90650924,72.30845695999999 L650.5193164,71.755761134 L651.1372732,71.24740868299999 L651.75008036,71.647090303 L652.36288752,72.54495495999998 L652.97569468,72.909634876 L653.59365148,73.45428976999999 L654.2064586399999,73.929532501 L654.8192657999999,74.89905605199999 L655.4320729599999,75.32203272499999 L656.0448801199999,75.73058302 L656.6628369199999,74.991408521 L657.2756440799999,75.24871834499999 L657.8884512399999,76.094435193 L658.5012584,76.76195079799999 L659.11406556,77.40356987199999 L659.73202236,76.711221977 L660.34482952,76.51090817099998 L660.95763668,76.737355006 L661.5704438399999,77.52453859899998 L662.1832509999999,75.576386324 L662.8012077999999,72.79824431799999 L663.4140149599999,67.45670048999999 L664.0268221199999,69.15120866 L664.6396292799999,76.66841583899999 L665.2524364399999,78.91455559399999 L665.8703932399999,79.44880457599999 L666.4832004,80.1791104 L667.09600756,80.776504348 L667.70881472,81.401095566 L668.32162188,81.838025621 L668.93957868,82.02060207699999 L669.5523858399999,82.204124525 L669.5523858399999,82.204124525 " fill-rule="evenodd" vector-effect="non-scaling-stroke"/>
                                </g>
                            </g>
                        </g>
                    </g>
                </g>
                <g fill="none" fill-rule="evenodd" id="QGraphicsRectItem_1" stroke="black" stroke-linecap="square" stroke-linejoin="bevel" stroke-width="1">
                    <g fill="none" font-family=".SF NS Text" font-size="13" font-style="normal" font-weight="400" stroke="none" transform="matrix(1,0,0,1,55.5469,1)">
                        <rect height="156" vector-effect="non-scaling-stroke" width="630.453" x="0" y="0"/>
                    </g>
                </g>
            </g>
        </g>
    </g>
</g>

</svg>
