<?xml version="1.0" encoding="UTF-8" standalone="no"?>
<svg xmlns="http://www.w3.org/2000/svg" xmlns:xlink="http://www.w3.org/1999/xlink"  version="1.2" baseProfile="tiny">
<title>pyqtgraph SVG export</title>
<desc>Generated with Qt and pyqtgraph</desc>
<defs>
</defs>
<g id="GraphicsScene_1">
    <g fill="none" fill-rule="evenodd" id="PlotItem_1" stroke="black" stroke-linecap="square" stroke-linejoin="bevel" stroke-width="1">
        <g fill="none" fill-rule="evenodd" id="AxisItem_1" stroke="black" stroke-linecap="square" stroke-linejoin="bevel" stroke-width="1">
            <g fill="none" font-family=".SF NS Text" font-size="13" font-style="normal" font-weight="400" stroke="#969696" stroke-linecap="square" stroke-linejoin="bevel" stroke-opacity="1" stroke-width="1">
                <polyline fill="none" points="55.5469,157.0 502.99989999999997,157.0" vector-effect="non-scaling-stroke"/>
            </g>
            <g fill="none" font-family=".SF NS Text" font-size="13" font-style="normal" font-weight="400" stroke="#969696" stroke-linecap="square" stroke-linejoin="bevel" stroke-opacity="0.498039" stroke-width="1">
                <polyline fill="none" points="449.6839,1.0 449.6839,157.0" vector-effect="non-scaling-stroke"/>
            </g>
            <g fill="none" font-family=".SF NS Text" font-size="13" font-style="normal" font-weight="400" stroke="#969696" stroke-linecap="square" stroke-linejoin="bevel" stroke-opacity="0.247059" stroke-width="1">
                <polyline fill="none" points="252.6709,1.0 252.6709,157.0" vector-effect="non-scaling-stroke"/>
            </g>
            <g fill="none" font-family=".SF NS Text" font-size="13" font-style="normal" font-weight="400" stroke="#969696" stroke-linecap="square" stroke-linejoin="bevel" stroke-opacity="0.164706" stroke-width="1">
                <polyline fill="none" points="95.0596,1.0 95.0596,157.0" vector-effect="non-scaling-stroke"/>
                <polyline fill="none" points="134.4623,1.0 134.4623,157.0" vector-effect="non-scaling-stroke"/>
                <polyline fill="none" points="173.8649,1.0 173.8649,157.0" vector-effect="non-scaling-stroke"/>
                <polyline fill="none" points="213.2679,1.0 213.2679,157.0" vector-effect="non-scaling-stroke"/>
                <polyline fill="none" points="292.0729,1.0 292.0729,157.0" vector-effect="non-scaling-stroke"/>
                <polyline fill="none" points="331.47589999999997,1.0 331.47589999999997,157.0" vector-effect="non-scaling-stroke"/>
                <polyline fill="none" points="370.8789,1.0 370.8789,157.0" vector-effect="non-scaling-stroke"/>
                <polyline fill="none" points="410.2819,1.0 410.2819,157.0" vector-effect="non-scaling-stroke"/>
                <polyline fill="none" points="489.0869,1.0 489.0869,157.0" vector-effect="non-scaling-stroke"/>
            </g>
            <g fill="none" font-family=".SF NS Text" font-size="13" font-style="normal" font-weight="400" stroke="#969696" stroke-linecap="square" stroke-linejoin="bevel" stroke-opacity="1" stroke-width="1" transform="matrix(1,0,0,1,56.0469,157)">
                <text fill="#969696" fill-opacity="1" font-family="&quot;.SF NS Text&quot;, sans-serif" font-size="13" font-style="normal" font-weight="400" stroke="none" x="373.328" xml:space="preserve" y="12.5938">20000</text>
                <text fill="#969696" fill-opacity="1" font-family="&quot;.SF NS Text&quot;, sans-serif" font-size="13" font-style="normal" font-weight="400" stroke="none" x="177.219" xml:space="preserve" y="12.5938">10000</text>
            </g>
        </g>
        <g fill="none" fill-rule="evenodd" id="AxisItem_2" stroke="black" stroke-linecap="square" stroke-linejoin="bevel" stroke-width="1">
            <g fill="none" font-family=".SF NS Text" font-size="13" font-style="normal" font-weight="400" stroke="#969696" stroke-linecap="square" stroke-linejoin="bevel" stroke-opacity="1" stroke-width="1">
                <polyline fill="none" points="55.5469,1.0 55.5469,157.0" vector-effect="non-scaling-stroke"/>
            </g>
            <g fill="none" font-family=".SF NS Text" font-size="13" font-style="normal" font-weight="400" stroke="#969696" stroke-linecap="square" stroke-linejoin="bevel" stroke-opacity="0.498039" stroke-width="1">
                <polyline fill="none" points="503.5,148.254 56.0469,148.254" vector-effect="non-scaling-stroke"/>
                <polyline fill="none" points="503.5,68.9769 56.0469,68.9769" vector-effect="non-scaling-stroke"/>
            </g>
            <g fill="none" font-family=".SF NS Text" font-size="13" font-style="normal" font-weight="400" stroke="#969696" stroke-linecap="square" stroke-linejoin="bevel" stroke-opacity="0.247059" stroke-width="1">
                <polyline fill="none" points="503.5,108.615 56.0469,108.615" vector-effect="non-scaling-stroke"/>
                <polyline fill="none" points="503.5,29.3384 56.0469,29.3384" vector-effect="non-scaling-stroke"/>
            </g>
            <g fill="none" font-family=".SF NS Text" font-size="13" font-style="normal" font-weight="400" stroke="#969696" stroke-linecap="square" stroke-linejoin="bevel" stroke-opacity="0.0745098" stroke-width="1">
                <polyline fill="none" points="503.5,156.181 56.0469,156.181" vector-effect="non-scaling-stroke"/>
                <polyline fill="none" points="503.5,140.326 56.0469,140.326" vector-effect="non-scaling-stroke"/>
                <polyline fill="none" points="503.5,132.398 56.0469,132.398" vector-effect="non-scaling-stroke"/>
                <polyline fill="none" points="503.5,124.471 56.0469,124.471" vector-effect="non-scaling-stroke"/>
                <polyline fill="none" points="503.5,116.543 56.0469,116.543" vector-effect="non-scaling-stroke"/>
                <polyline fill="none" points="503.5,100.6876 56.0469,100.6876" vector-effect="non-scaling-stroke"/>
                <polyline fill="none" points="503.5,92.7599 56.0469,92.7599" vector-effect="non-scaling-stroke"/>
                <polyline fill="none" points="503.5,84.8322 56.0469,84.8322" vector-effect="non-scaling-stroke"/>
                <polyline fill="none" points="503.5,76.9045 56.0469,76.9045" vector-effect="non-scaling-stroke"/>
                <polyline fill="none" points="503.5,61.0492 56.0469,61.0492" vector-effect="non-scaling-stroke"/>
                <polyline fill="none" points="503.5,53.1215 56.0469,53.1215" vector-effect="non-scaling-stroke"/>
                <polyline fill="none" points="503.5,45.1938 56.0469,45.1938" vector-effect="non-scaling-stroke"/>
                <polyline fill="none" points="503.5,37.2661 56.0469,37.2661" vector-effect="non-scaling-stroke"/>
                <polyline fill="none" points="503.5,21.4108 56.0469,21.4108" vector-effect="non-scaling-stroke"/>
                <polyline fill="none" points="503.5,13.4831 56.0469,13.4831" vector-effect="non-scaling-stroke"/>
                <polyline fill="none" points="503.5,5.55539 56.0469,5.55539" vector-effect="non-scaling-stroke"/>
            </g>
            <g fill="none" font-family=".SF NS Text" font-size="13" font-style="normal" font-weight="400" stroke="#969696" stroke-linecap="square" stroke-linejoin="bevel" stroke-opacity="1" stroke-width="1" transform="matrix(1,0,0,1,1.5,1)">
                <text fill="#969696" fill-opacity="1" font-family="&quot;.SF NS Text&quot;, sans-serif" font-size="13" font-style="normal" font-weight="400" stroke="none" x="25.3281" xml:space="preserve" y="151.719">200</text>
                <text fill="#969696" fill-opacity="1" font-family="&quot;.SF NS Text&quot;, sans-serif" font-size="13" font-style="normal" font-weight="400" stroke="none" x="24.8125" xml:space="preserve" y="72.4531">400</text>
                <text fill="#969696" fill-opacity="1" font-family="&quot;.SF NS Text&quot;, sans-serif" font-size="13" font-style="normal" font-weight="400" stroke="none" x="25.0313" xml:space="preserve" y="112.078">300</text>
                <text fill="#969696" fill-opacity="1" font-family="&quot;.SF NS Text&quot;, sans-serif" font-size="13" font-style="normal" font-weight="400" stroke="none" x="25.1406" xml:space="preserve" y="32.8125">500</text>
            </g>
        </g>
        <g fill="none" fill-rule="evenodd" id="ViewBox_1" stroke="black" stroke-linecap="square" stroke-linejoin="bevel" stroke-width="1">
            <g fill="none" font-family=".SF NS Text" font-size="13" font-style="normal" font-weight="400" stroke="#000000" stroke-linecap="square" stroke-linejoin="bevel" stroke-opacity="1" stroke-width="1">
                <path d="M55.5469,1.0 L502.99989999999997,1.0 L502.99989999999997,157.0 L55.5469,157.0 L55.5469,1.0 " fill-rule="evenodd" vector-effect="non-scaling-stroke"/>
            </g>
            <clipPath id="ViewBox_1_clip">
                <path d="M55.5469,1.0 L503.0,1.0 L503.0,157.0 L55.5469,157.0 L55.5469,1.0 " fill-rule="evenodd" stroke-width="1.0" vector-effect="none"/>
            </clipPath>
            <g clip-path="url(#ViewBox_1_clip)">
                <g fill="none" fill-rule="evenodd" id="ChildGroup_1" stroke="black" stroke-linecap="square" stroke-linejoin="bevel" stroke-width="1">
                    <clipPath id="ChildGroup_1_clip">
                        <path d="M55.5469,1.0 L503.0,1.0 L503.0,157.0 L55.5469,157.0 L55.5469,1.0 " fill-rule="evenodd" stroke-width="1.0" vector-effect="none"/>
                    </clipPath>
                    <g clip-path="url(#ChildGroup_1_clip)">
                        <g id="PlotDataItem_1">
                            <g fill="none" fill-rule="evenodd" id="PlotCurveItem_1" stroke="black" stroke-linecap="square" stroke-linejoin="bevel" stroke-width="1">
                                <g fill="none" font-family=".SF NS Text" font-size="13" font-style="normal" font-weight="400" stroke="#ff0000" stroke-linecap="square" stroke-linejoin="bevel" stroke-opacity="1" stroke-width="2">
                                    <path d="M55.1568,98.11260592 L55.5630330173,97.99567263999998 L55.969268004739995,97.560443008 L56.37550102204,97.57748751999998 L56.78173600948,96.82435791999998 L57.187974937199996,97.6052344 L57.5941981038,96.912751552 L58.000440971799996,97.611972928 L58.4066641384,96.720901696 L58.812907006399996,97.147014496 L59.219130172999996,97.232237056 L59.625373040999996,96.71852339200001 L60.031615908999996,97.034837824 L60.437839075599996,96.96903807999999 L60.844081943599996,96.635679136 L61.250305110199996,96.860428864 L61.656547978199995,96.19807119999999 L62.062771144799996,95.84528944000002 L62.469014012799995,95.82428108800002 L62.875237179399996,95.311756576 L63.281480047399995,97.206075712 L63.687703213999995,97.353926944 L64.093946082,96.753405184 L64.50018895,96.573446848 L64.9064121166,97.13908681599997 L65.3126549846,97.147014496 L65.7188781512,95.668105792 L66.1251210192,96.72486553600001 L66.5313441858,97.23501174399999 L66.9375870538,96.860428864 L67.3438102204,96.45968463999998 L67.7500530884,95.99908643199998 L68.156276255,95.277667552 L68.562519123,94.55704144 L68.968761991,93.74405785599998 L69.3749851576,94.239141472 L69.7812280256,94.03540009599999 L70.1874511922,93.309224608 L70.5936940602,93.58510787200001 L70.9999172268,93.725427808 L71.4061600948,93.99734723199998 L71.8123832614,93.44558070400001 L72.2186261294,91.56909884800001 L72.624849296,91.710607936 L73.031092164,90.89009305599998 L73.437335032,91.13149091199998 L73.8435581986,91.57504460799998 L74.2498010666,91.72487776 L74.6560242332,91.08987059200001 L75.06230650399999,91.58733251199999 L75.468549372,91.05657433600001 L75.87479223999999,91.39984288 L76.281035108,91.32492630399997 L76.68727797599999,89.130148096 L77.093520844,89.894772832 L77.499763712,90.294327904 L77.905809566,89.19396591999998 L78.312052434,90.647506048 L78.718295302,90.114765952 L79.12453817,89.87971024000001 L79.530781038,90.09930697599998 L79.937023906,89.55110790399999 L80.343266774,89.51226227199999 L80.74950964199999,89.72115663999998 L81.15575251,89.24787414400001 L81.561995378,88.40754006399999 L81.968238246,89.51424419199998 L82.37448111399999,89.283945088 L82.780723982,88.525662496 L83.18696685,90.49133075200001 L83.593209718,90.214258336 L83.99945258599999,91.03794428799998 L84.405695454,91.219091776 L84.811938322,91.689995968 L85.21818119,92.03524643200001 L85.624424058,91.712193472 L86.030666926,91.81644246399998 L86.436909794,90.714494944 L86.842955648,93.506227456 L87.249198516,93.101915776 L87.655441384,93.520100896 L88.06168425199999,93.353223232 L88.46792712,93.87684649600001 L88.874169988,93.87327904 L89.280412856,95.47982339199999 L89.68665572399999,96.13266783999998 L90.092898592,96.23929513599998 L90.49914146,96.575428768 L90.905384328,96.605950336 L91.311627196,98.110227616 L91.717870064,96.39824512000001 L92.124112932,97.072890688 L92.5303558,98.038482112 L92.93659866799999,96.42321731199999 L93.34284153600001,98.32467136 L93.749084404,97.584226048 L94.155327272,97.66905222400001 L94.56157013999999,97.30279340799999 L94.96781300800001,96.43709075200002 L95.374055876,97.332918592 L95.78010173,96.820790464 L96.186344598,96.381993376 L96.592587466,97.70195209599999 L96.99883033399999,97.07130515199998 L97.405073202,98.83878140799999 L97.81131607,99.20424745599999 L98.217558938,99.895144768 L98.62380180599999,99.83489440000001 L99.030044674,99.181257184 L99.436287542,98.484414112 L99.84253041,98.744442016 L100.248773278,99.12497065600002 L100.655016146,100.16587504 L101.061259014,100.70931750399998 L101.467501882,102.051473728 L101.87374475,103.446745408 L102.279987618,104.5716832 L102.686230486,104.383797184 L103.09247335399999,103.61956883200001 L103.498716222,103.871272672 L103.90495909,105.10085584 L104.311201958,103.622739904 L104.717247812,103.474095904 L105.12349068,102.269484928 L105.529733548,103.503824704 L105.935976416,103.153024864 L106.342219284,102.92351852799999 L106.748462152,101.397043744 L107.15470502,100.871834944 L107.560947888,100.0132672 L107.96719075600001,100.966967104 L108.373433624,102.631779904 L108.779676492,103.137962272 L109.18591936,103.28700265600001 L109.592162228,102.97346291199999 L109.998405096,102.478379296 L110.404647964,101.79937350399999 L110.810890832,100.80999904 L111.2171337,101.698691968 L111.623376568,101.461654336 L112.02961943599999,100.75371251199999 L112.43586230400001,101.84495766399999 L112.842105172,100.886501152 L113.24834804,101.46958201599999 L113.65439389400001,100.8060352 L114.060636762,102.077238688 L114.46687963,102.99605679999999 L114.873122498,103.72143951999999 L115.27936536600001,103.981863808 L115.685608234,103.34170364799999 L116.09185110199999,103.560111232 L116.49809397000001,104.404805536 L116.904336838,105.67204518400001 L117.310579706,105.75766412799999 L117.71682257399999,106.78429868799999 L118.12306544200001,106.35025820799999 L118.52930831,108.747985024 L118.935551178,109.37863196800001 L119.34179404599999,109.2886528 L119.74803691400001,109.493186944 L120.154279782,110.205092608 L120.56052265,110.839307008 L120.96676551799999,111.421595104 L121.37300838600001,111.89368844799999 L121.779251254,111.905976352 L122.185494122,112.009036192 L122.591539976,111.58133785599999 L122.997782844,112.13231161600001 L123.40402571199999,112.16640063999999 L123.81026857999998,112.225461856 L124.216511448,112.573883392 L124.622754316,112.02806262399999 L125.02899718399999,112.06294441600001 L125.43524005199998,109.91493951999999 L125.84148292,108.332970976 L126.247725788,106.22619001599999 L126.65396865599999,106.78152399999999 L127.06021152400001,106.74545305599999 L127.466454392,104.796432928 L127.87269726,104.832503872 L128.278940128,103.48559104 L128.685182996,104.022294976 L129.091425864,104.73697532799999 L129.497668732,104.465452288 L129.9039116,104.122183744 L130.310154468,103.52522944 L130.716397336,103.15659232 L131.122640204,103.256481088 L131.528686058,102.42288553600001 L131.934928926,103.83678726400001 L132.341171794,103.637406112 L132.747414662,103.22595951999999 L133.15365753,103.42692620799998 L133.559900398,102.632969056 L133.966143266,104.105139232 L134.372386134,105.198762688 L134.778629002,105.743790688 L135.18487187,107.35945187200001 L135.59111473800002,107.440710592 L135.997357606,108.87443151999999 L136.403600474,109.804744768 L136.809843342,111.648723136 L137.21608621,112.933007296 L137.622329078,112.57229785599999 L138.028571946,112.683285376 L138.434814814,112.12042009599999 L138.841057682,111.17742255999998 L139.24730055,111.484223776 L139.653543418,111.05930012799999 L140.059786286,109.984703104 L140.46583214,110.89995375999999 L140.872075008,109.78016896 L141.27831787600002,109.7841328 L141.684560744,108.57714351999999 L142.090803612,106.23808153600001 L142.49704648,105.02554287999999 L142.903289348,102.339248512 L143.30953221599998,101.570263552 L143.715775084,100.98757907199999 L144.122017952,102.65714848 L144.52826082,103.30127248000001 L144.934503688,100.27210595199999 L145.340746556,101.03316323199999 L145.746989424,99.35844083200001 L146.15323229199998,97.367404 L146.55947516,96.522313312 L146.965718028,95.782264384 L147.37196089600002,94.924885792 L147.778203764,93.62553904 L148.184446632,93.860594752 L148.5906895,92.834356576 L148.996932368,92.40110886400001 L149.402978222,92.82642889599998 L149.80922109,93.359565376 L150.21546395800002,93.33816063999998 L150.621706826,93.61206198400001 L151.027949694,93.799155232 L151.434192562,94.147180384 L151.84043542999999,93.999725536 L152.246678298,94.54871737600001 L152.652921166,94.68031686399999 L153.05916403400002,94.417514272 L153.465406902,93.933529408 L153.87164977,93.71829289599998 L154.277892638,93.865747744 L154.684135506,93.69609539199999 L155.090378374,93.61840412799998 L155.496621242,92.31985014400001 L155.90286411,92.815330144 L156.30910697800002,93.06465567999999 L156.715349846,93.91608851199999 L157.121592714,94.013202592 L157.527835582,93.595413856 L157.93407845000002,94.406019136 L158.340124304,95.59754944 L158.746367172,94.52097049599999 L159.15261004,96.18221584 L159.558852908,96.44620758399998 L159.965095776,95.881756768 L160.371338644,96.101749888 L160.777581512,95.663349184 L161.18382438,95.70893334399997 L161.590067248,96.18340499199999 L161.996310116,96.107695648 L162.402552984,98.20615254399999 L162.808795852,99.56297497599999 L163.21503872,98.90537391999999 L163.62128158800002,99.82894864 L164.027524456,101.20083366399999 L164.433767324,102.67815683200001 L164.840010192,102.493045504 L165.24625306,103.21089692800001 L165.652495928,104.612510752 L166.058738796,104.39965254399999 L166.464981664,104.73618255999999 L166.871224532,106.908763264 L167.277270386,108.333763744 L167.683513254,107.18979951999998 L168.08975612199998,108.495488416 L168.49599899,109.316003296 L168.902241858,108.38529366399999 L169.30848472600002,108.171642688 L169.714727594,109.348506784 L170.120970462,109.912164832 L170.52721333,110.03861132799999 L170.933456198,109.33027312 L171.33969906599998,108.67703228799999 L171.745941934,107.953631488 L172.152184802,106.414472416 L172.55842767000001,105.32877663999999 L172.964670538,104.20146054399999 L173.370913406,105.078658336 L173.777156274,107.47995260799999 L174.18339914199998,107.97463984 L174.58964201,109.14278348799999 L174.995884878,109.705648768 L175.40212774600002,110.93245724799999 L175.808370614,112.548514816 L176.214416468,115.152361312 L176.620659336,116.721645568 L177.026902204,117.967876864 L177.433145072,119.032960672 L177.83938794000002,119.76032531199999 L178.24563080800002,117.90802287999999 L178.651873676,118.292911744 L179.058116544,118.76619424 L179.464359412,117.81051241600001 L179.87060227999999,120.98753017599999 L180.276845148,120.952252 L180.683088016,121.06125759999999 L181.08933088400002,122.3296864 L181.495573752,124.35243395199998 L181.90181662,124.66240624000001 L182.308059488,126.14448601599999 L182.714302356,127.18816508799999 L183.120545224,128.544194752 L183.526788092,129.765057472 L183.93303096,131.96934889599999 L184.33927382800002,133.869613792 L184.745516696,135.916540768 L185.15156255000002,138.162848896 L185.55780541800002,138.804990976 L185.964048286,140.155867648 L186.370291154,141.327975136 L186.776534022,142.185750112 L187.18277689,143.29285062399998 L187.589019758,143.63730832 L187.995262626,142.789442944 L188.40150549400002,144.205326592 L188.807748362,145.126919392 L189.21399123,145.39923520000002 L189.620234098,147.27175321599998 L190.026476966,149.215620352 L190.432719834,150.218471872 L190.838962702,152.035892512 L191.24520557000002,151.414758784 L191.65144843800002,151.123416544 L192.057691306,151.113903328 L192.463934174,151.08972390399998 L192.870177042,149.447901376 L193.27641991000002,149.29291523199998 L193.682662778,148.78871478399998 L194.08870863200002,146.50514656000001 L194.4949515,146.320431616 L194.901194368,145.889562208 L195.307437236,145.704054496 L195.713680104,145.578400768 L196.119922972,146.66330377600002 L196.52616584,146.519416384 L196.93240870800003,146.474228608 L197.33865157600002,145.469395168 L197.744894444,144.232677088 L198.151137312,145.07499308799999 L198.55738018,145.352461888 L198.96362304800002,145.231564768 L199.369865916,144.992148832 L199.77610878400003,145.161801184 L200.18235165200002,143.447044 L200.58859452000002,143.801411296 L200.994837388,143.766529504 L201.401080256,143.60956144 L201.80732312400002,142.764470752 L202.213565992,142.43031904 L202.61980886,141.91026323199998 L203.02585471400002,141.37752313599998 L203.432097582,140.653329568 L203.83834045,140.267647936 L204.244583318,140.41113894400002 L204.65082618600002,140.421841312 L205.057069054,141.210645472 L205.463311922,140.801577184 L205.86955479000002,141.65776662399998 L206.27579765800002,142.397419168 L206.682040526,142.340736256 L207.088283394,143.023309504 L207.49452626200002,142.28088227199999 L207.90076913000001,142.98604940799999 L208.307011998,141.907884928 L208.713254866,141.99033279999998 L209.11949773400002,142.637627872 L209.525740602,142.37403251199999 L209.93198347,142.07753728 L210.338226338,141.94118118400002 L210.74446920600002,142.04582656 L211.150712074,141.467898688 L211.556954942,141.307759552 L211.96300079600002,141.8218696 L212.369243664,142.17465135999998 L212.775486532,142.081104736 L213.18172940000002,142.584512416 L213.58797226800002,142.65387961599998 L213.994215136,142.61979059200002 L214.400458004,142.901223232 L214.806700872,143.073650272 L215.21294374000001,143.421675424 L215.619186608,143.858094208 L216.02542947600003,143.761376512 L216.43167234400002,144.19739891199998 L216.837915212,144.63579961599999 L217.24415808000003,145.003643968 L217.650400948,145.252176736 L218.05664381600002,145.53400576 L218.462886684,145.22324070399998 L218.869129552,145.135243456 L219.27537242,145.339381216 L219.68161528800002,145.429756768 L220.08785815600004,145.549464736 L220.494101024,145.20857449599998 L220.90014687800002,145.394082208 L221.306389746,145.263671872 L221.71263261400003,145.48802521599998 L222.118875482,145.579986304 L222.52511835,145.429756768 L222.93136121800003,145.377037696 L223.337604086,145.398442432 L223.74384695400002,145.50229503999998 L224.150089822,145.632308992 L224.55633269,145.64816435199998 L224.962575558,145.427774848 L225.36881842600002,145.323129472 L225.77506129399998,145.24028521600002 L226.181304162,145.282698304 L226.58754703000002,145.359993184 L226.99378989800002,144.860945728 L227.400032766,145.084506304 L227.806275634,144.617169568 L228.21251850200002,144.580305856 L228.61876137,144.46297619199999 L229.025004238,144.4082752 L229.43124710600003,144.26359503999998 L229.83729296,144.39757283199998 L230.24353582800003,144.049944064 L230.649778696,143.88346278400002 L231.05602156400002,143.61392166399997 L231.46226443199998,143.344776928 L231.8685073,143.422071808 L232.27475016800003,143.237356864 L232.68099303600002,143.272238656 L233.087235904,143.323768576 L233.493478772,143.65712752000002 L233.89972164000002,143.645236 L234.305964508,144.01228758399998 L234.712207376,144.053115136 L235.118450244,144.127238944 L235.52469311200002,144.112176352 L235.93093598000002,143.934199936 L236.337178848,144.043998304 L236.74342171600003,143.954019136 L237.149664584,143.983351552 L237.555907452,143.852941216 L237.96215032,144.034485088 L238.36839318800003,143.938956544 L238.774439042,143.959172128 L239.18068191,144.116140192 L239.58692477800003,144.35912358399997 L239.993167646,144.212461504 L240.399410514,144.155382208 L240.805653382,144.273108256 L241.21189625000002,144.204533824 L241.61813911800002,144.366258496 L242.024381986,144.213650656 L242.43062485400003,143.961154048 L242.836867722,144.084825856 L243.24311059000001,144.03844892799998 L243.649353458,143.841842464 L244.05559632600003,143.85254483199998 L244.461839194,143.973045568 L244.868082062,143.69240569599998 L245.27432493000003,143.77406079999997 L245.680567798,143.656731136 L246.08681066600002,143.74552115199998 L246.493053534,143.63929024 L246.899296402,143.611146976 L247.30553927,143.166007744 L247.711585124,143.34398416 L248.11782799200003,143.428810336 L248.52407086,143.613128896 L248.93031372800002,143.39908153599998 L249.336556596,143.40344176 L249.74279946400003,143.237753248 L250.149042332,143.32099388799998 L250.55528520000001,143.19970038399998 L250.96152806800004,143.49461008 L251.367770936,143.32416496 L251.77401380400002,143.2290328 L252.1806507,143.457746368 L252.58649954000003,143.374505728 L252.99234838000004,143.30236384 L253.39819722,143.235771328 L253.80601620000002,143.20128591999998 L254.21186504000002,143.011814368 L254.61771388000003,142.25511731199998 L255.02356272,142.57698112 L255.42941156,140.60457433599998 L255.83723054,143.195736544 L256.24307938000004,141.963775072 L256.64892821999996,140.713579936 L257.05477706,140.921285152 L257.4606259,144.089582464 L257.86844488,141.106792864 L258.27429372,142.482245344 L258.68014256,143.00111199999998 L259.0859914,143.05303830399998 L259.49184024,144.96876217599998 L259.89965922,143.769700576 L260.30550805999997,145.004040352 L260.7113569,145.697712352 L261.11720574000003,147.69667686399998 L261.52305458,148.718554816 L261.92890342,150.208562272 L262.3367224,150.08053024 L262.74257124,150.15901427199998 L263.14842008,150.212526112 L263.55426891999997,150.36196288 L263.96011776,150.208562272 L264.36793674,151.031059072 L264.77378558000004,151.163847712 L265.17963441999996,150.47810339199998 L265.58548326,150.669953248 L265.9913321,150.31915340799998 L266.39915108,150.00244259200002 L266.80499992,149.682560704 L267.21084876,149.71149673600002 L267.6166976,149.922769408 L268.02254644,150.4234024 L268.43036542,150.37068332799998 L268.83621426,150.22719232 L269.2420631,149.921183872 L269.64791194000003,149.94457052799999 L270.05376078,149.330968096 L270.46157976,148.49935446400002 L270.8674286,147.85483408 L271.27327744,147.411280384 L271.67912628,147.608283232 L272.08497511999997,147.499674016 L272.4927941,147.59599532800001 L272.89864294,147.495313792 L273.30449178000003,147.568644832 L273.71034062,147.469548832 L274.11618946,146.965744768 L274.52400844,146.591161888 L274.92985728,145.947830656 L275.33570612,144.964401952 L275.74155496,144.626682784 L276.1474038,143.912002432 L276.55522278,143.40502729600001 L276.96107162,145.112649568 L277.36692046,148.21950736 L277.7727693,148.650773152 L278.17861814,148.876712032 L278.58643711999997,148.723311424 L278.99228596,148.96431289600002 L279.3981348,148.74709446399999 L279.80398364,148.383213952 L280.20983248,147.89605801599998 L280.61568131999996,147.8270872 L281.0235003,146.320431616 L281.42934914,147.134604352 L281.83519798000003,147.78982710399998 L282.24104682,147.684785344 L282.64689566,146.947907488 L283.05471464,146.4397432 L283.46056348,147.15045971199999 L283.86641232,146.987149504 L284.27226115999997,146.76081424 L284.67811,146.516641696 L285.08592898,146.418338464 L285.49177782,145.96210048 L285.89762666,146.434590208 L286.3034755,146.3109184 L286.70932434,145.742900128 L287.11714331999997,144.875215552 L287.52299216,144.394798144 L287.928841,145.009986112 L288.33468984,144.78444361599998 L288.74053868,144.26874803200002 L289.14835766,143.61154335999998 L289.5542065,143.28452656000002 L289.96005534,143.97661302400002 L290.36590418000003,144.60131420800002 L290.77175302,144.42849078400002 L291.179572,143.943316768 L291.58542084,143.48866432 L291.99126968,142.917474976 L292.39711852,143.10575737599999 L292.80296735999997,143.3083096 L293.21078634,143.25083392 L293.61663518,143.402648992 L294.02248402,143.732836864 L294.42833286,144.779687008 L294.8341817,144.754318432 L295.24200068,145.33422822400001 L295.64784951999997,145.75399887999998 L296.05369836,145.2704104 L296.4595472,146.581252288 L296.86539604,146.298234112 L297.27124488000004,145.82931184 L297.67906386,145.126919392 L298.0849127,139.072153792 L298.49076154,138.812522272 L298.89661038,137.415665056 L299.30245922,138.31188928 L299.7102782,140.093238976 L300.11612704,138.253620832 L300.52197588,138.12360688 L300.92782472,138.740380384 L301.33367355999997,136.942778944 L301.74149254,136.77431574399998 L302.14734138,136.253467168 L302.55319022,135.226832608 L302.95903906,132.89133808 L303.3648879,131.13218588799998 L303.77270688,128.919966784 L304.17855571999996,128.169611872 L304.58440456,125.278386976 L304.99025340000003,121.865124352 L305.39610224,119.561736928 L305.80392122,118.418565472 L306.20977006,117.14894752 L306.6156189,117.18462208 L307.02146774,116.573397952 L307.42731658,116.521075264 L307.83513555999997,115.442118016 L308.2409844,115.13333487999999 L308.64683324000003,114.392493184 L309.05268208,115.925706496 L309.45853092,116.190887392 L309.8663499,114.3524584 L310.27219874,113.917228768 L310.67804758,111.511970656 L311.08389642,110.02235958399999 L311.48974526,104.875709728 L311.89756424,103.44040326400001 L312.30341308,101.205193888 L312.70926191999996,100.12425472 L313.11511076,102.40266995199998 L313.52095959999997,105.15436768 L313.92877858,106.368491872 L314.33462741999995,108.14706688 L314.74047626,111.07238079999999 L315.1463251,111.329237632 L315.55217394,111.858013888 L315.95802278,110.176949344 L316.36584175999997,108.27589167999999 L316.7716906,105.735466624 L317.17753944,104.158254688 L317.58338828,104.641446784 L317.98923712,105.975675328 L318.3970561,106.25433328 L318.80290494,106.948798048 L319.20875378,108.009521632 L319.61460261999997,103.296912256 L320.02045146,101.97933183999999 L320.42827044,101.44817728 L320.83411928,101.845354048 L321.23996811999996,102.36937369600001 L321.64581696,103.81696806400001 L322.05166579999997,102.30833055999999 L322.45948478,102.29485350399999 L322.86533362,102.45499263999999 L323.27118246,103.101891328 L323.6770313,103.88990272 L324.08288014,101.92185616 L324.49069912,102.340834048 L324.89654795999996,102.386021824 L325.3023968,101.48147353600001 L325.70824564,100.532926624 L326.11409448,98.77258528000002 L326.52191346,100.550763904 L326.9277623,99.59944230399998 L327.33361114,96.73873897599998 L327.73945998,95.48656191999999 L328.14530881999997,95.38112377599998 L328.55312779999997,93.95493414399999 L328.95897664,95.05371059199999 L329.36482548,94.55585228799998 L329.77067431999996,93.262054912 L330.17652316,90.588444832 L330.58434214,91.584557824 L330.99019098,92.26713107199998 L331.39603982,91.44027404800002 L331.80188866,89.807171968 L332.2077375,87.93584310400001 L332.61358634,87.3884368 L333.02140532,87.21164953600001 L333.42725415999996,84.978818464 L333.833103,85.22893676800001 L334.23895183999997,83.69057046399999 L334.64480068,83.029005568 L335.05261966,82.11415129599999 L335.4584685,82.059450304 L335.86431734,82.67305273599999 L336.27016618,83.03495132799998 L336.67601501999997,83.954958592 L337.08383399999997,83.53241324799998 L337.48968284,82.79989561600001 L337.89553168,83.61287920000001 L338.30138051999995,83.348491072 L338.70722936,83.759937664 L339.11504834,84.094089376 L339.52089718,82.883136256 L339.92674602,82.365855136 L340.33259486,83.41230889599998 L340.7384437,83.988254848 L341.14626268,83.655292288 L341.55211152,82.01941552 L341.95796035999996,82.50736422400001 L342.3638092,82.22910265600001 L342.76965803999997,78.58078431999999 L343.17747701999997,79.50713372799999 L343.58332586,80.687961664 L343.9891747,78.000874528 L344.39502354,75.765665152 L344.80087238,74.70216688 L345.20869136,73.24704121599999 L345.61454019999996,73.79206921599999 L346.02038904,73.335831232 L346.42623788000003,73.191547456 L346.83208671999995,73.02665171199999 L347.2399057,72.125274496 L347.64575454,72.47448879999999 L348.05160338,69.36683823999999 L348.45745222,69.479014912 L348.86330105999997,69.67046838399997 L349.27112003999997,69.724772992 L349.67696888,68.05084336000002 L350.08281772,66.478388032 L350.48866655999996,65.45254624 L350.8945154,64.68752512 L351.30036424,63.164221408 L351.70818321999997,61.561640896 L352.11403206,61.24493007999999 L352.5198809,59.45446355199999 L352.92572974,58.708468864 L353.33157858,57.123725632 L353.73939756,56.59613852799998 L354.14524639999996,54.64474009599999 L354.55109524,54.689927872 L354.95694408,54.403738624 L355.36279291999995,54.190087648 L355.7706119,53.50315417599998 L356.17646074,53.287124895999995 L356.58230958,54.05610985599998 L356.98815842,53.147201343999996 L357.39400725999997,52.70087296 L357.80182623999997,51.74677667200001 L358.20767508,53.073077536 L358.61352392,53.73147136 L359.01937275999995,52.089648831999995 L359.4252216,52.812653247999975 L359.83304058,53.486902431999994 L360.23888941999996,53.12698576 L360.64473826,52.15703411199999 L361.0505871,52.88875897599999 L361.45643594,51.03487100800001 L361.86425491999995,48.22371568 L362.27010376,47.33383359999999 L362.6759526,48.36046816000001 L363.08180144,46.21840902400001 L363.48765028,44.06564751999997 L363.89546925999997,41.45268419199999 L364.3013181,42.159436863999986 L364.70716694,39.84415791999999 L365.11301578,39.31934550399998 L365.51886462,40.771300096000004 L365.9266836,39.92502025599998 L366.33253244,42.931196511999985 L366.73838128,44.536948096 L367.14423012,41.60251734399998 L367.55007896,39.741890848 L367.95789794,41.34328220799998 L368.36374678,40.525145632000005 L368.76959561999996,39.14731484800001 L369.17544446,37.82973443200001 L369.58129329999997,37.73698057600001 L369.98714214,36.990589503999985 L370.39496111999995,36.38372559999999 L370.80080996,35.776068928 L371.2066588,33.15517792 L371.61250764,31.666359615999994 L372.01835648,31.242625119999985 L372.42617545999997,30.73089337600001 L372.8320243,29.929404927999997 L373.23787314,29.865983487999983 L373.64372198,29.841804064 L374.04957082,30.812944864000002 L374.4573898,31.927576671999987 L374.86323864,33.515887359999994 L375.26908748,35.29248044799999 L375.67493632,37.220888607999996 L376.08078516,41.40194703999998 L376.48860414,43.789367872000014 L376.89445298,44.58292863999998 L377.30030181999996,46.354765119999996 L377.70615066,48.834939808 L378.11199949999997,49.561908063999994 L378.51981848,49.911915136000005 L378.92566732,49.71610144000002 L379.33151616000004,50.74907814400001 L379.737365,50.924676256 L380.14321384,49.102102624 L380.55103282,47.099570656 L380.95688166,46.43681660799999 L381.3627305,46.61558579199999 L381.76857934,48.60622624000001 L382.17442818,49.34548240000001 L382.58224716,50.126755263999996 L382.988096,51.04795167999998 L383.39394483999996,50.382422943999984 L383.79979368,49.08585087999998 L384.20564251999997,47.581573599999984 L384.61346149999997,47.88203267200001 L385.01931033999995,46.36229641599999 L385.42515918,46.79831881599998 L385.83100801999996,47.30806863999999 L386.23685686000005,46.459410496000004 L386.64270569999996,46.993339744 L387.05052468,47.86776284800001 L387.45637352,47.67115638399997 L387.86222236000003,47.71317308800002 L388.2680712,45.382831552 L388.67392004,45.771287872000016 L389.08173902,44.880216639999986 L389.48758786,43.94356124799998 L389.8934367,43.20430508800001 L390.29928553999997,43.91779628799998 L390.70513438,44.21389513599999 L391.11295336,45.168784192000004 L391.5188022,45.279375327999986 L391.92465103999996,43.733477728 L392.33049988,42.29975679999998 L392.73634871999997,42.924854367999984 L393.14416769999997,41.137955296 L393.55001653999994,40.958789728 L393.95586538,40.46172419199999 L394.36171421999995,40.27502732799999 L394.76756306000004,39.953956288 L395.17538204,40.740382143999994 L395.58123088,41.489547904000005 L395.98707972,41.562878944000005 L396.39292856000003,43.20470147199998 L396.7987774,43.785007648000004 L397.20659638,44.99477161600001 L397.61244522,43.859924224 L398.01829406,44.53417340799999 L398.4241429,45.095453151999976 L398.82999173999997,46.09830467200001 L399.23781071999997,46.634215839999996 L399.64365956,46.463770719999985 L400.0495084,48.535669888 L400.45535723999996,48.09489087999998 L400.86120608,47.67789491199997 L401.26902506000005,46.54859689599999 L401.67487389999997,44.468373663999984 L402.08072273999994,43.513880992 L402.48657158000003,43.19360272 L402.89242041999995,41.48003468799999 L403.3002394,40.75029174399998 L403.70608824,41.006355807999995 L404.11193708,42.362385472 L404.51778592,40.08397024000001 L404.92363476,41.45268419199999 L405.3294836,40.731265312000005 L405.73730258,36.59658380799999 L406.14315142,36.57874652799998 L406.54900026,37.260527008 L406.9548491,37.91376783999999 L407.36069793999997,34.69552614400001 L407.76851691999997,34.13543555199999 L408.17436576,34.353843135999995 L408.5802146,34.25078329600001 L408.98606343999995,33.108404608 L409.39191228,33.979260256 L409.79973126000004,31.080900447999994 L410.20558009999996,31.43011475200001 L410.61142893999994,28.798521375999997 L411.01727778000003,27.72907734399999 L411.42312662,27.747311007999997 L411.8309456,26.276726368 L412.23679444,26.522088064000002 L412.64264328,25.256830336000007 L413.04849212,26.878437280000014 L413.45434096,26.381768127999976 L413.86215993999997,24.955578495999987 L414.26800878,23.104861599999992 L414.67385762,23.552379135999985 L415.07970646,21.004819167999983 L415.4855553,20.638560351999985 L415.89337428,20.47366460799998 L416.29922311999997,23.629674016000024 L416.70507196,25.559667711999992 L417.1109208,27.195940863999994 L417.51676963999995,28.41640720000001 L417.92458861999995,26.921246752000002 L418.33043746000004,28.831024864 L418.7362863,30.028897311999998 L419.14213513999994,30.793125664 L419.54798398,31.737312352000004 L419.95580296,30.142659519999995 L420.3616518,34.96625641599999 L420.76750064,36.648113728 L421.17334948,37.42859382399999 L421.57919832,37.62837135999999 L421.98504716,36.261639328 L422.39286613999997,38.34939385599998 L422.79871498,35.64526220799999 L423.20456382,37.29739071999998 L423.61041266,39.59324684800001 L424.0162615,39.63090332799999 L424.42408048,34.50288351999998 L424.82992931999996,35.22905900800001 L425.23577816,34.731200704 L425.64162699999997,35.70115235199998 L426.04747583999995,37.003273792000016 L426.45529481999995,36.88911519999999 L426.86114366000004,34.45650659200001 L427.2669925,35.533878303999984 L427.67284134,35.48750137600001 L428.07869018,36.614817472 L428.48650916,36.719462848000006 L428.892358,35.635352608000005 L429.29820684,34.23056771200001 L429.70405568,33.107611840000004 L430.10990452,34.083112863999986 L430.5177235,34.01969142399997 L430.92357233999996,34.29438553599999 L431.32942118,36.149066272 L431.73527002,37.112675775999975 L432.14111886,38.26060383999999 L432.54893783999995,38.815937824 L432.95478668,38.28597241599999 L433.36063551999996,38.47504758399998 L433.76648436,39.21787119999999 L434.17233319999997,35.373739167999986 L434.58015218,35.462529184000005 L434.98600102,34.71693087999998 L435.39184986000004,31.065837855999973 L435.7976987,28.659390591999994 L436.20354754,27.837290175999982 L436.61136652,26.79281833600001 L437.01721536,27.93757532799998 L437.4230642,25.406663487999992 L437.82891304,25.430446528000004 L438.23476188,24.594472671999995 L438.64258086,23.391050847999963 L439.0484297,22.88169740799998 L439.45427853999996,23.592810303999983 L439.86012738,21.50188470399999 L440.26597621999997,24.26032096 L440.67182506,24.515195871999993 L441.07964403999995,23.782678239999996 L441.48549288,21.994986400000016 L441.89134171999996,22.021940511999986 L442.29719056000005,19.963122016 L442.70303939999997,21.74169702399999 L443.11085838,24.370119327999987 L443.51670722,24.827150079999996 L443.92255606000003,25.330557759999976 L444.3284049,27.605405536000006 L444.73425374,28.680795327999988 L445.14207272,27.645440320000006 L445.54792156,28.019230432 L445.9537704,27.05681007999999 L446.35961924,26.276726368 L446.76546808,27.548722623999993 L447.17328706,27.17215782399998 L447.5791359,26.159793088000015 L447.98498473999996,24.779584 L448.39083358,25.230668991999977 L448.79668241999997,25.195787200000012 L449.20450139999997,22.625236960000024 L449.61035023999995,22.88566124799999 L450.01619908000004,22.859896288000016 L450.42204791999995,22.987135551999984 L450.82789676000004,25.21441724799999 L451.23571574,26.51178207999999 L451.64156458,26.673110367999982 L452.04741342,27.426636352000003 L452.45326226000003,29.225030559999993 L452.8591111,29.311045887999995 L453.26693008,29.03318070399999 L453.67277892,25.32699030399999 L454.07862776,24.997595200000006 L454.4844766,22.729089568000006 L454.89032543999997,20.84586918400001 L455.29814441999997,20.715062464 L455.70399326,21.213317152000002 L456.1098421,21.65488892799999 L456.51569093999996,23.525028640000016 L456.92153978,24.054994047999998 L457.32935876000005,24.679298848000002 L457.73520759999997,24.318985791999978 L458.14105643999994,24.902066656000017 L458.54690528000003,25.053881727999993 L458.95275411999995,24.11167696000001 L459.35860296000004,23.487372160000007 L459.76642194,24.022490559999994 L460.17227078,22.824221727999998 L460.57811962,22.156711072000007 L460.98396846,24.927038847999995 L461.3898173,27.561010527999997 " fill-rule="evenodd" vector-effect="non-scaling-stroke"/>
                                </g>
                            </g>
                        </g>
                    </g>
                </g>
                <g fill="none" fill-rule="evenodd" id="QGraphicsRectItem_1" stroke="black" stroke-linecap="square" stroke-linejoin="bevel" stroke-width="1">
                    <g fill="none" font-family=".SF NS Text" font-size="13" font-style="normal" font-weight="400" stroke="none" transform="matrix(1,0,0,1,55.5469,1)">
                        <rect height="156" vector-effect="non-scaling-stroke" width="447.453" x="0" y="0"/>
                    </g>
                </g>
            </g>
        </g>
    </g>
</g>

</svg>
