<?xml version="1.0" encoding="UTF-8" standalone="no"?>
<svg xmlns="http://www.w3.org/2000/svg" xmlns:xlink="http://www.w3.org/1999/xlink"  version="1.2" baseProfile="tiny">
<title>pyqtgraph SVG export</title>
<desc>Generated with Qt and pyqtgraph</desc>
<defs>
</defs>
<g id="GraphicsScene_1">
    <g fill="none" fill-rule="evenodd" id="PlotItem_1" stroke="black" stroke-linecap="square" stroke-linejoin="bevel" stroke-width="1">
        <g fill="none" fill-rule="evenodd" id="AxisItem_1" stroke="black" stroke-linecap="square" stroke-linejoin="bevel" stroke-width="1">
            <g fill="none" font-family=".SF NS Text" font-size="13" font-style="normal" font-weight="400" stroke="#969696" stroke-linecap="square" stroke-linejoin="bevel" stroke-opacity="1" stroke-width="1">
                <polyline fill="none" points="55.8438,157.0 502.9998,157.0" vector-effect="non-scaling-stroke"/>
            </g>
            <g fill="none" font-family=".SF NS Text" font-size="13" font-style="normal" font-weight="400" stroke="#969696" stroke-linecap="square" stroke-linejoin="bevel" stroke-opacity="0.247059" stroke-width="1">
                <polyline fill="none" points="191.16180000000003,1.0 191.16180000000003,157.0" vector-effect="non-scaling-stroke"/>
                <polyline fill="none" points="326.3768,1.0 326.3768,157.0" vector-effect="non-scaling-stroke"/>
                <polyline fill="none" points="461.5908,1.0 461.5908,157.0" vector-effect="non-scaling-stroke"/>
            </g>
            <g fill="none" font-family=".SF NS Text" font-size="13" font-style="normal" font-weight="400" stroke="#969696" stroke-linecap="square" stroke-linejoin="bevel" stroke-opacity="0.164706" stroke-width="1">
                <polyline fill="none" points="123.5541,1.0 123.5541,157.0" vector-effect="non-scaling-stroke"/>
                <polyline fill="none" points="258.7688,1.0 258.7688,157.0" vector-effect="non-scaling-stroke"/>
                <polyline fill="none" points="393.9838,1.0 393.9838,157.0" vector-effect="non-scaling-stroke"/>
            </g>
            <g fill="none" font-family=".SF NS Text" font-size="13" font-style="normal" font-weight="400" stroke="#969696" stroke-linecap="square" stroke-linejoin="bevel" stroke-opacity="1" stroke-width="1" transform="matrix(1,0,0,1,56.3438,157)">
                <text fill="#969696" fill-opacity="1" font-family="&quot;.SF NS Text&quot;, sans-serif" font-size="13" font-style="normal" font-weight="400" stroke="none" x="114.516" xml:space="preserve" y="12.5938">20000</text>
                <text fill="#969696" fill-opacity="1" font-family="&quot;.SF NS Text&quot;, sans-serif" font-size="13" font-style="normal" font-weight="400" stroke="none" x="249.469" xml:space="preserve" y="12.5938">40000</text>
                <text fill="#969696" fill-opacity="1" font-family="&quot;.SF NS Text&quot;, sans-serif" font-size="13" font-style="normal" font-weight="400" stroke="none" x="384.719" xml:space="preserve" y="12.5938">60000</text>
                <text fill="#969696" fill-opacity="1" font-family="&quot;.SF NS Text&quot;, sans-serif" font-size="13" font-style="normal" font-weight="400" stroke="none" x="47.7969" xml:space="preserve" y="12.5938">10000</text>
                <text fill="#969696" fill-opacity="1" font-family="&quot;.SF NS Text&quot;, sans-serif" font-size="13" font-style="normal" font-weight="400" stroke="none" x="181.969" xml:space="preserve" y="12.5938">30000</text>
                <text fill="#969696" fill-opacity="1" font-family="&quot;.SF NS Text&quot;, sans-serif" font-size="13" font-style="normal" font-weight="400" stroke="none" x="317.234" xml:space="preserve" y="12.5938">50000</text>
            </g>
        </g>
        <g fill="none" fill-rule="evenodd" id="AxisItem_2" stroke="black" stroke-linecap="square" stroke-linejoin="bevel" stroke-width="1">
            <g fill="none" font-family=".SF NS Text" font-size="13" font-style="normal" font-weight="400" stroke="#969696" stroke-linecap="square" stroke-linejoin="bevel" stroke-opacity="1" stroke-width="1">
                <polyline fill="none" points="55.8438,1.0 55.8438,157.0" vector-effect="non-scaling-stroke"/>
            </g>
            <g fill="none" font-family=".SF NS Text" font-size="13" font-style="normal" font-weight="400" stroke="#969696" stroke-linecap="square" stroke-linejoin="bevel" stroke-opacity="0.498039" stroke-width="1">
                <polyline fill="none" points="503.5,149.469 56.3438,149.469" vector-effect="non-scaling-stroke"/>
            </g>
            <g fill="none" font-family=".SF NS Text" font-size="13" font-style="normal" font-weight="400" stroke="#969696" stroke-linecap="square" stroke-linejoin="bevel" stroke-opacity="0.247059" stroke-width="1">
                <polyline fill="none" points="503.5,102.5 56.3438,102.5" vector-effect="non-scaling-stroke"/>
                <polyline fill="none" points="503.5,55.5318 56.3438,55.5318" vector-effect="non-scaling-stroke"/>
                <polyline fill="none" points="503.5,8.5632 56.3438,8.5632" vector-effect="non-scaling-stroke"/>
            </g>
            <g fill="none" font-family=".SF NS Text" font-size="13" font-style="normal" font-weight="400" stroke="#969696" stroke-linecap="square" stroke-linejoin="bevel" stroke-opacity="0.164706" stroke-width="1">
                <polyline fill="none" points="503.5,125.985 56.3438,125.985" vector-effect="non-scaling-stroke"/>
                <polyline fill="none" points="503.5,79.0162 56.3438,79.0162" vector-effect="non-scaling-stroke"/>
                <polyline fill="none" points="503.5,32.0475 56.3438,32.0475" vector-effect="non-scaling-stroke"/>
            </g>
            <g fill="none" font-family=".SF NS Text" font-size="13" font-style="normal" font-weight="400" stroke="#969696" stroke-linecap="square" stroke-linejoin="bevel" stroke-opacity="1" stroke-width="1" transform="matrix(1,0,0,1,1.5,1)">
                <text fill="#969696" fill-opacity="1" font-family="&quot;.SF NS Text&quot;, sans-serif" font-size="13" font-style="normal" font-weight="400" stroke="none" x="41.6563" xml:space="preserve" y="152.938">0</text>
                <text fill="#969696" fill-opacity="1" font-family="&quot;.SF NS Text&quot;, sans-serif" font-size="13" font-style="normal" font-weight="400" stroke="none" x="25.625" xml:space="preserve" y="105.969">200</text>
                <text fill="#969696" fill-opacity="1" font-family="&quot;.SF NS Text&quot;, sans-serif" font-size="13" font-style="normal" font-weight="400" stroke="none" x="25.1094" xml:space="preserve" y="59">400</text>
                <text fill="#969696" fill-opacity="1" font-family="&quot;.SF NS Text&quot;, sans-serif" font-size="13" font-style="normal" font-weight="400" stroke="none" x="25.1875" xml:space="preserve" y="12.0469">600</text>
            </g>
        </g>
        <g fill="none" fill-rule="evenodd" id="ViewBox_1" stroke="black" stroke-linecap="square" stroke-linejoin="bevel" stroke-width="1">
            <g fill="none" font-family=".SF NS Text" font-size="13" font-style="normal" font-weight="400" stroke="#000000" stroke-linecap="square" stroke-linejoin="bevel" stroke-opacity="1" stroke-width="1">
                <path d="M55.8438,1.0 L502.9998,1.0 L502.9998,157.0 L55.8438,157.0 L55.8438,1.0 " fill-rule="evenodd" vector-effect="non-scaling-stroke"/>
            </g>
            <clipPath id="ViewBox_1_clip">
                <path d="M55.8438,1.0 L503.0,1.0 L503.0,157.0 L55.8438,157.0 L55.8438,1.0 " fill-rule="evenodd" stroke-width="1.0" vector-effect="none"/>
            </clipPath>
            <g clip-path="url(#ViewBox_1_clip)">
                <g fill="none" fill-rule="evenodd" id="ChildGroup_1" stroke="black" stroke-linecap="square" stroke-linejoin="bevel" stroke-width="1">
                    <clipPath id="ChildGroup_1_clip">
                        <path d="M55.8438,1.0 L503.0,1.0 L503.0,157.0 L55.8438,157.0 L55.8438,1.0 " fill-rule="evenodd" stroke-width="1.0" vector-effect="none"/>
                    </clipPath>
                    <g clip-path="url(#ChildGroup_1_clip)">
                        <g id="PlotDataItem_1">
                            <g fill="none" fill-rule="evenodd" id="PlotCurveItem_1" stroke="black" stroke-linecap="square" stroke-linejoin="bevel" stroke-width="1">
                                <g fill="none" font-family=".SF NS Text" font-size="13" font-style="normal" font-weight="400" stroke="#ff0000" stroke-linecap="square" stroke-linejoin="bevel" stroke-opacity="1" stroke-width="2">
                                    <path d="M55.4467,93.88330580099999 L56.083984930324,95.292833487 L56.7212685085,92.240344173 L57.35855614312,94.82408685899999 L57.995837017,99.756494388 L58.63312465162,102.340237074 L59.2704055255,102.34070675999999 L59.90769316012,98.583688446 L60.54498079474,96.940257132 L61.18226166862,96.001354818 L61.81954930324,94.592766504 L62.456843698600004,94.82807919 L63.094111051,95.76792087599999 L63.7313784034,99.056427405 L64.3687133632,96.003938091 L65.0059807156,92.951448777 L65.643248068,92.24738946299999 L66.28051542040001,94.36144614899999 L66.91785038020001,96.710345835 L67.5551177326,94.362385521 L68.192385085,93.18864020699999 L68.8296524374,94.12848189299999 L69.4669873972,94.12895157899999 L70.1042547496,92.95520626499999 L70.741522102,91.54685279399999 L71.37878945439999,90.84279348 L72.0161244142,87.555461166 L72.65339176660001,85.91202985199999 L73.290659119,81.920168538 L73.9279264714,77.693464224 L74.5652614312,82.86047991 L75.2025287836,81.686734596 L75.839796136,82.391733282 L76.4770634884,81.21798796799999 L77.1143984482,78.63518465399999 L77.7516658006,81.45400518299999 L78.388933153,83.80290486899999 L79.0262005054,82.15947355499999 L79.6635354652,80.281199241 L80.3008028176,80.98619792699999 L80.93807017,77.698865613 L81.5754051298,73.237318299 L82.2126724822,73.94231698499999 L82.84993983460001,73.942786671 L83.487207187,78.874959357 L84.1245421468,76.761842043 L84.7618094992,77.936526729 L85.3990768516,76.058487258 L86.036344204,74.415055944 L86.6736791638,70.18835163 L87.3109465162,66.66617631599999 L87.9482138686,68.54539000199999 L88.58548122100001,71.129132688 L89.22281618080001,68.781172374 L89.8600835332,66.43321206 L90.4973508856,66.903367746 L91.134618238,65.49477943199999 L91.7719531978,64.08619111799999 L92.40922055019999,59.15495780399999 L93.0464879026,56.102703332999994 L93.683755255,49.997255018999994 L94.3210902148,38.725260705 L94.9583575672,33.324341391000004 L95.5956249196,28.393108076999994 L96.232892272,32.15106576299999 L96.8702272318,26.750146449 L97.5074945842,21.818913135000003 L98.1447619366,30.038887821000003 L98.78202928900001,27.221241506999988 L99.41936424880001,35.910902193 L100.0566316012,34.502548722 L100.69389895360001,34.737861408 L101.331166306,41.548778094 L101.9685012658,41.31440477999999 L102.6057686182,36.85285746599999 L103.2430359706,27.694450152000016 L103.88030332299999,22.76321683799999 L104.51763828280001,16.65800336700002 L105.15490563520001,22.529313209999998 L105.7921729876,23.23454673899998 L106.4295079474,18.772999424999995 L107.06677529980001,12.197865110999999 L107.7040426522,11.963491797000017 L108.3413100046,14.547234482999983 L108.9786449644,19.244564168999972 L109.6159123168,23.237364854999996 L110.2531796692,29.578830384 L110.89044702160001,37.329119070000004 L111.52778198140001,34.04178675599999 L112.1650493338,34.746785442000004 L112.80231668619999,38.974429128 L113.4395840386,38.50521281399999 L114.0769189984,44.1419145 L114.7141863508,56.35422018599999 L115.35145370320001,58.46851171499999 L115.9887210556,60.11288240099999 L116.6260560154,60.34819508699999 L117.2633233678,58.000234773 L117.9005907202,54.243216458999996 L118.5378580726,48.60745414499999 L119.1751930324,50.956353831 L119.8124603848,55.184232359999996 L120.44972773720002,57.063446045999996 L121.08699508960001,54.010956732 L121.72433004940001,53.776583418 L122.3615974018,58.23907010400001 L122.99886475420001,53.77752278999999 L123.63619971400001,48.14176047599999 L124.273737496,50.490660162 L124.910599204,48.61262069099999 L125.548136986,47.673718376999986 L126.184998694,46.499973063 L126.82253647600001,49.788244749 L127.46007425800002,60.356649434999994 L128.096935966,64.114607121 L128.734473748,54.486513806999994 L129.37201153,56.60057049299999 L130.008873238,52.37410102199999 L130.64641102000002,42.98085070799999 L131.28327272800001,38.51930339399999 L131.92081051,34.52744208 L132.558348292,34.05822576599999 L133.19521,40.164613452 L133.832747782,38.521182137999986 L134.470285564,37.817122823999995 L135.107147272,50.02942850999999 L135.744685054,52.378563038999985 L136.381546762,52.613875725 L137.019084544,56.136990411 L137.656622326,48.387641097 L138.29348403400002,42.98672178299999 L138.931021816,39.699389468999996 L139.568559598,35.237842154999996 L140.205421306,35.003468841 L140.84295908800001,39.46595552699999 L141.479820796,37.587916056 L142.11735857800002,29.134037742000004 L142.75489636,25.846705427999993 L143.391758068,17.392827114 L144.02929585,17.862982799999997 L144.666833632,32.188875485999986 L145.30369534,26.78795617200001 L145.941233122,28.197483858 L146.57809483,33.364499544 L147.215632612,34.539184230000004 L147.85317039400002,40.410963759 L148.490032102,48.161252445 L149.127569884,43.699705131 L149.765107666,34.071611817000004 L150.401969374,28.905535502999996 L151.039507156,22.095558189000002 L151.676368864,16.69463887500001 L152.313906646,24.679770560999984 L152.951444428,33.839117247000004 L153.588306136,40.65003393299999 L154.225843918,47.46095061899999 L154.8633817,55.68092530499999 L155.50024340800002,56.151080991 L156.13778119,56.621236677 L156.774642898,58.265607363 L157.41218068,66.48558204899999 L158.049718462,75.644928735 L158.68658017,79.872807264 L159.324117952,78.933670107 L159.961655734,84.100920636 L160.598517442,86.214977322 L161.236055224,89.03356300799999 L161.872916932,90.912776694 L162.51045471400002,94.20104838 L163.147992496,96.08026206599999 L163.784854204,95.611045752 L164.422391986,98.66447443799998 L165.05992976800002,99.604316124 L165.69679147600002,99.36994281 L166.334329258,97.726511496 L166.97119096600002,104.06774218199999 L167.608728748,100.310723868 L168.24626653,102.424780554 L168.883128238,109.47054023999999 L169.52066602,110.645224926 L170.158203802,113.933496612 L170.79506551,116.51723929799999 L171.432603292,116.752551984 L172.069465,118.86660866999999 L172.707002782,122.389488513 L173.344540564,123.799251042 L173.981402272,124.97393572799999 L174.618940054,125.678699571 L175.25647783600002,126.3837921942 L175.89333954399999,127.3235634273 L176.53087732600002,127.55889959759999 L177.167739034,127.55936928359999 L177.805276816,129.2036695167 L178.442814598,129.673848687 L179.079676306,131.083376373 L179.71721408800002,131.5534616061 L180.35475187,131.7887742921 L180.991613578,131.7892439781 L181.62915136,131.7896432112 L182.266689142,132.0249558972 L182.90355085000002,132.2602685832 L183.541088632,132.4955108163 L184.17795034,132.73082350229998 L184.815488122,132.4964501883 L185.453025904,132.7316924214 L186.08988761199998,132.96700510739998 L186.727425394,132.4977887934 L187.364963176,132.2633450265 L188.001824884,132.4986577125 L188.639362666,133.4384993985 L189.27622437399998,133.2040556316 L189.91376215600002,133.2045253176 L190.551299938,133.90952400359998 L191.188161646,133.90989975239998 L191.825699428,134.3800554384 L192.46323721,134.8502111244 L193.10009891800001,134.8506103575 L193.7376367,135.3207660435 L194.374498408,135.3212357295 L195.01203619,135.79129747829998 L195.64957397199998,135.5569241643 L196.28643568,136.4967658503 L196.923973462,136.7320080834 L197.561511244,137.4370067694 L198.198372952,137.2026099711 L198.83591073399998,137.9075382042 L199.472772442,137.67316489019998 L200.110310224,138.6134527779 L200.747848006,138.379009011 L201.384709714,138.6142982127 L202.022247496,138.8495404458 L202.65978527800002,138.8499866475 L203.296646986,139.3201423335 L203.934184768,139.55536108229998 L204.57104647600002,139.55583076829998 L205.208584258,139.7911434543 L205.84612204,140.0263622031 L206.482983748,140.2616748891 L207.12052153,140.7318070908 L207.758059312,140.4973398396 L208.39492102,140.4978095256 L209.032458802,141.20278472729998 L209.66932051,141.6728464761 L210.306858292,142.1430021621 L210.944396074,142.3782913638 L211.581257782,142.61351011259998 L212.218795564,142.61397979859998 L212.856333346,142.84926900029998 L213.49319505399998,142.84964474909998 L214.13073283600002,142.61524795079998 L214.767594544,142.8505606368 L215.405132326,143.5554419013 L216.042670108,143.3210685873 L216.679531816,143.086671789 L217.31706959800002,143.79157653779998 L217.95460738,143.5571797395 L218.591469088,143.79246894119999 L219.22900687,143.79284468999998 L219.865868578,143.55844789169998 L220.50340636,143.5588940934 L221.140944142,143.3244033579 L221.77780585,143.7945355596 L222.415343632,143.3252957613 L223.05288141399998,142.8559855101 L223.689743122,143.0912747118 L224.327280904,143.3265639135 L224.964142612,143.326916178 L225.601680394,143.3273623797 L226.239218176,143.0929655814 L226.87607988399998,143.3281608459 L227.51361766600002,143.3285835633 L228.151155448,143.3289358278 L228.78801715600002,143.5642250295 L229.425554938,143.3298282312 L230.062416646,143.5650234957 L230.699954428,143.5654462131 L231.33749221,143.5658924148 L231.97435391800002,143.56624467929998 L232.6118917,144.0363533967 L233.24942948199998,143.3322705984 L233.88629119,143.8022853786 L234.523828972,143.5678885803 L235.16069068,143.5683112977 L235.798228462,143.3338205622 L236.43576624399998,143.3342432796 L237.072627952,143.56950899699999 L237.710165734,143.1001752615 L238.34770351600002,142.8657549789 L238.984565224,143.33586369629998 L239.622103006,142.8665064765 L240.258964714,142.8669291939 L240.896502496,142.8673519113 L241.53404027800002,143.33739017579998 L242.17090198600002,143.1029698932 L242.808439768,143.10336912629998 L243.44597755,143.5733839065 L244.082839258,143.1041206239 L244.72037704,143.33938634129998 L245.35723874800001,143.3397151215 L245.99477653,143.1052948389 L246.632314312,143.575380072 L247.26917602,143.34086585219998 L247.90671380199998,143.34128856959998 L248.544251584,143.10684480269998 L249.181113292,143.5768595829 L249.818651074,143.107572816 L250.455512782,143.34281504909998 L251.09305056399998,143.3431438293 L251.73058834600002,143.5783860624 L252.367450054,143.3438483583 L253.004987836,143.3442710757 L253.642525618,143.5795133088 L254.279387326,143.5798186047 L254.91692510800002,143.5802178378 L255.553786816,143.5806170709 L256.191324598,143.5809223668 L256.82886238000003,143.3464785999 L257.465724088,143.346877833 L258.10326187000004,143.11231664459999 L258.740799652,143.5824018777 L259.37766136,143.5828011108 L260.01519914200003,143.3482634067 L260.65206085,143.5834821555 L261.28959863200004,143.1141953886 L261.927136414,143.3493202002 L262.563998122,143.5845624333 L263.201535904,143.5849381821 L263.839073686,143.5852199937 L264.47593539400003,143.5856192268 L265.113473176,143.3511519756 L265.750334884,143.3514337872 L266.387872666,143.351809536 L267.025410448,143.3521852848 L267.66227215600003,143.5873100964 L268.299809938,143.3528428452 L268.93734772,142.883532594 L269.574209428,143.5883434056 L270.21174721,143.5887191544 L270.848608918,143.3542284189 L271.4861467,143.35451023049998 L272.123684482,142.885176495 L272.76054619,142.4158662438 L273.398083972,143.1206535711 L274.03562175400003,143.3558723199 L274.672483462,143.59106758439998 L275.310021244,143.3564829117 L275.946882952,143.1219921762 L276.584420734,143.592053925 L277.22195851600003,143.592288768 L277.858820224,143.5926645168 L278.49635800600004,143.1232133598 L279.133895788,143.1235656243 L279.77075749600004,143.3587843731 L280.408295278,143.3590192161 L281.04515698600005,143.5942144806 L281.682694768,143.35972374509998 L282.32023255,143.3599585881 L282.957094258,143.1254678526 L283.59463204,142.65613411709998 L284.23216982200006,142.42152596009998 L284.86903153000003,141.9521922246 L285.506569312,141.9525444891 L286.14343102000004,141.71793633209998 L286.780968802,140.5440735966 L287.418506584,140.7792688611 L288.055368292,140.30979421979998 L288.692906074,139.60561748429998 L289.33044385600004,139.6059697488 L289.967305564,139.37133810749998 L290.60484334600005,139.371690372 L291.241705054,139.60688563649998 L291.879242836,139.13741099519999 L292.516780618,139.1377632597 L293.153642326,139.60777803989998 L293.791180108,139.60798939859998 L294.42871789000003,138.90381266309998 L295.065579598,138.9041414433 L295.70311738000004,139.374038802 L296.339979088,138.9047050665 L296.97751687000004,139.1398768467 L297.615054652,139.1400882054 L298.25191636,139.3752599856 L298.88945414200003,138.4362167658 L299.526991924,138.4364281245 L300.16385363200004,138.2019139047 L300.801391414,138.6719286849 L301.438929196,138.2024540436 L302.07579090400003,137.9679398238 L302.713328686,137.733425604 L303.35019039400004,137.4987704784 L303.987728176,137.9687852586 L304.625265958,137.968973133 L305.262127666,137.96930191319998 L305.899665448,137.9696306934 L306.53720323000005,137.26528956779998 L307.174064938,137.0307518637 L307.81160272,137.2659236439 L308.448464428,136.3267395183 L309.08600221,137.0315972985 L309.72353999200004,137.03190259439998 L310.3604017,136.0927184688 L310.99793948200005,136.5627097647 L311.63547726400003,137.0327245449 L312.27233897200006,136.32835993499998 L312.90987675400004,135.8589792309 L313.54673846200006,135.85930801109998 L314.18427624400005,136.0943154012 L314.821814026,135.6249346971 L315.458675734,135.860082993 L316.09621351600003,135.8602708674 L316.733751298,136.0954191633 L317.37061300600004,135.6260384592 L318.008150788,135.86104584929998 L318.64501249600005,135.8613511452 L319.28255027800003,135.3919704411 L319.92008806,134.6875823469 L320.55694976800004,134.4530446428 L321.19448755,134.68819293869998 L321.83202533200006,134.9232003288 L322.46888704,135.6280111404 L323.10642482200006,136.0980024363 L323.74328653000003,134.9239283421 L324.3808243120001,135.159076638 L325.018362094,134.68967244959998 L325.6552238020001,134.4549938397 L326.292761584,134.6901186513 L326.93029936600004,134.2207144629 L327.567161074,134.45569836869998 L328.20469885600005,134.4560036646 L328.841560564,133.9864585704 L329.47909834600006,133.75189738199998 L330.11663612800004,133.5173361936 L330.75349783600007,133.5174770994 L331.391035618,133.282915911 L332.0285734,133.04835472259998 L332.665435108,133.2833151441 L333.30297289000004,133.0487539557 L333.939834598,133.2838787673 L334.57737238000004,132.8143101888 L335.2149101620001,132.1100630004 L335.85177187000005,132.580030812 L336.48930965200003,133.0498342335 L337.126847434,133.7546215608 L337.76370914200004,133.9897463724 L338.401246924,134.2247067939 L339.03810863200005,134.2249651212 L339.675646414,133.0510319328 L340.31318419600007,132.81628287 L340.95004590400004,132.5817216816 L341.5875836860001,132.8168230089 L342.225121468,133.5214459461 L342.861983176,132.5823557577 L343.499520958,132.112928085 L344.13638266600003,131.4084930222 L344.773920448,131.4087513495 L345.41145823000005,131.6438526768 L346.048319938,132.348475614 L346.68585772000006,131.4093619413 L347.32339550200004,130.93993426859998 L347.96025721,130.9400282058 L348.59779499200005,130.4705770488 L349.2346567,130.2359923761 L349.87219448200005,130.2360863133 L350.50973226400004,130.2363211563 L351.14659397200006,130.4714224836 L351.78413175400004,129.2972779365 L352.421669536,129.2975362638 L353.05853124400005,129.0629281068 L353.69606902600003,127.88878355969999 L354.332930734,127.1844894027 L354.97046851600004,126.2452113399 L355.608006298,125.07116073 L356.24486800600005,122.957808573 L356.882405788,122.958043416 L357.51994357,120.37500525899999 L358.15680527800004,118.96618210199999 L358.79434306,119.670711102 L359.43120476800004,119.670945945 L360.06874255,120.61055278799999 L360.70628033200006,119.20149478799999 L361.34314204000003,117.55782863099999 L361.98067982200007,117.088377474 L362.61821760400005,120.14133647399998 L363.2550793120001,120.376414317 L363.892617094,119.67212015999999 L364.529478802,119.67212015999999 L365.167016584,117.793611003 L365.80455436600005,117.089316846 L366.441416074,119.202903846 L367.07895385600006,119.672824689 L367.71649163800004,120.37758853199999 L368.35335334600006,121.78664653199999 L368.99089112800004,121.082352375 L369.62775283600007,120.143215218 L370.265290618,120.37805821799999 L370.90282840000003,120.378293061 L371.539690108,119.673998904 L372.17722789000004,120.143684904 L372.8147656720001,120.143919747 L373.45162738000005,120.37899759 L374.08916516200003,120.37899759 L374.72602687000006,119.909546433 L375.36356465200004,118.970409276 L376.001102434,119.67493827599999 L376.63796414200004,119.67493827599999 L377.275501924,119.91001611899999 L377.91303970600006,119.675173119 L378.54990141400003,118.97087896199999 L379.18743919600007,119.205956805 L379.82430090400004,118.031741805 L380.461838686,118.73650564799999 L381.099376468,118.031976648 L381.73623817600003,117.79736849099999 L382.373775958,117.09283949099999 L383.01131374000005,115.918624491 L383.648175448,115.449173334 L384.28571323000006,114.979722177 L384.922574938,114.275193177 L385.56011272000006,114.27542801999999 L386.19765050200004,114.04058502 L386.83451221,112.86637001999999 L387.47204999200005,112.631761863 L388.10958777400003,111.92746770599999 L388.74644948200006,111.222938706 L389.38398726400004,110.04895854899999 L390.02084897200007,109.344429549 L390.65838675400005,107.700528549 L391.29592453600003,106.99623439199999 L391.93278624400006,106.761626235 L392.57032402600004,105.822254235 L393.207861808,106.057097235 L393.84472351600004,106.29217507799999 L394.482261298,106.76186107799998 L395.11912300600005,106.05756692099999 L395.75666078800003,105.587880921 L396.39419857,107.46662492099999 L397.03106027800004,107.232016764 L397.66859806,106.997173764 L398.30613584200006,108.171388764 L398.94299755000003,108.876152607 L399.58053533200007,109.34607345 L400.21739704000004,109.34583860699999 L400.8549348220001,110.05060245 L401.49247260400006,110.285680293 L402.1293343120001,110.98997445 L402.766872094,111.694738293 L403.40440987600005,113.33887413599999 L404.041271584,113.573717136 L404.67880936600005,112.399502136 L405.315671074,112.634345136 L405.95320885600006,110.28614997899999 L406.59074663800004,110.051306979 L407.22760834600007,110.28614997899999 L407.865146128,110.520992979 L408.50268391000003,110.756070822 L409.139545618,110.52122782199999 L409.77708340000004,109.581855822 L410.413945108,108.64271866499999 L411.05148289000005,108.64271866499999 L411.6890206720001,108.64271866499999 L412.32588238000005,108.642953508 L412.96342016200003,109.347247665 L413.600957944,108.408110508 L414.23781965200004,109.817403351 L414.875357434,111.930755508 L415.51221914200005,111.93099035099999 L416.14975692400003,110.991618351 L416.78729470600007,111.226461351 L417.42415641400004,113.57512619399999 L418.0616941960001,115.45387019399999 L418.699231978,114.044812194 L419.336093686,113.10544019399998 L419.973631468,112.40114603699999 L420.61049317600003,111.696382194 L421.248030958,111.22693103699999 L421.88556874000005,110.992088037 L422.522430448,110.052716037 L423.15996823000006,110.052716037 L423.79750601200004,109.81810787999999 L424.43436772,108.173972037 L425.07190550200005,108.17420687999999 L425.70944328400003,108.64389288 L426.34630499200006,108.87873588 L426.98384277400004,109.58326488 L427.62070448200006,111.931929723 L428.25824226400005,112.63622387999999 L428.895780046,112.40161572299999 L429.53264175400005,111.462243723 L430.17017953600003,113.106144723 L430.807717318,112.40161572299999 L431.44457902600004,110.053185723 L432.082116808,109.818342723 L432.71897851600005,108.409519566 L433.35651629800003,105.826011723 L433.99405408,105.591403566 L434.63091578800004,106.295932566 L435.26845357,105.591168723 L435.90599135200006,104.652031566 L436.54285306,104.88687456599999 L437.18039084200007,104.182345566 L437.81725255000003,102.538444566 L438.4547903320001,102.068758566 L439.09232811400005,104.88687456599999 L439.7291898220001,104.88687456599999 L440.366727604,104.887109409 L441.00426538600004,105.591403566 L441.641127094,105.356560566 L442.27866487600005,106.76585340899999 L442.915526584,106.295932566 L443.55306436600006,106.765618566 L444.19060214800004,104.65226640899999 L444.82746385600007,103.947502566 L445.46500163800005,103.947737409 L446.10253942,103.712894409 L446.739401128,104.182345566 L447.37693891000004,104.65226640899999 L448.013800618,104.417423409 L448.65133840000004,106.06108956599999 L449.2888761820001,106.76585340899999 L449.92573789000005,106.061324409 L450.56327567200003,105.591403566 L451.200813454,105.12195240899999 L451.83767516200004,103.243208409 L452.475212944,105.121717566 L453.11207465200005,103.008130566 L453.749612434,100.659935409 L454.38715021600007,99.485485566 L455.02401192400004,97.841584566 L455.6615497060001,98.781191409 L456.299087488,101.59907256599999 L456.935949196,101.129386566 L457.573486978,103.00789572299999 L458.21034868600003,102.068758566 L458.847886468,101.59907256599999 L459.48542425000005,100.659465723 L460.122285958,101.12915172299999 L460.75982374000006,100.894543566 L461.39736152200004,100.424622723 " fill-rule="evenodd" vector-effect="non-scaling-stroke"/>
                                </g>
                            </g>
                        </g>
                    </g>
                </g>
                <g fill="none" fill-rule="evenodd" id="QGraphicsRectItem_1" stroke="black" stroke-linecap="square" stroke-linejoin="bevel" stroke-width="1">
                    <g fill="none" font-family=".SF NS Text" font-size="13" font-style="normal" font-weight="400" stroke="none" transform="matrix(1,0,0,1,55.8438,1)">
                        <rect height="156" vector-effect="non-scaling-stroke" width="447.156" x="0" y="0"/>
                    </g>
                </g>
            </g>
        </g>
    </g>
</g>

</svg>
