<?xml version="1.0" encoding="UTF-8" standalone="no"?>
<svg xmlns="http://www.w3.org/2000/svg" xmlns:xlink="http://www.w3.org/1999/xlink"  version="1.2" baseProfile="tiny">
<title>pyqtgraph SVG export</title>
<desc>Generated with Qt and pyqtgraph</desc>
<defs>
</defs>
<g id="GraphicsScene_1">
    <g fill="none" fill-rule="evenodd" id="PlotItem_1" stroke="black" stroke-linecap="square" stroke-linejoin="bevel" stroke-width="1">
        <g fill="none" fill-rule="evenodd" id="AxisItem_1" stroke="black" stroke-linecap="square" stroke-linejoin="bevel" stroke-width="1">
            <g fill="none" font-family=".SF NS Text" font-size="13" font-style="normal" font-weight="400" stroke="#969696" stroke-linecap="square" stroke-linejoin="bevel" stroke-opacity="1" stroke-width="1">
                <polyline fill="none" points="55.5469,157.0 685.9999,157.0" vector-effect="non-scaling-stroke"/>
            </g>
            <g fill="none" font-family=".SF NS Text" font-size="13" font-style="normal" font-weight="400" stroke="#969696" stroke-linecap="square" stroke-linejoin="bevel" stroke-opacity="0.498039" stroke-width="1">
                <polyline fill="none" points="56.607477,1.0 56.607477,157.0" vector-effect="non-scaling-stroke"/>
            </g>
            <g fill="none" font-family=".SF NS Text" font-size="13" font-style="normal" font-weight="400" stroke="#969696" stroke-linecap="square" stroke-linejoin="bevel" stroke-opacity="0.247059" stroke-width="1">
                <polyline fill="none" points="187.0709,1.0 187.0709,157.0" vector-effect="non-scaling-stroke"/>
                <polyline fill="none" points="317.5349,1.0 317.5349,157.0" vector-effect="non-scaling-stroke"/>
                <polyline fill="none" points="447.9979,1.0 447.9979,157.0" vector-effect="non-scaling-stroke"/>
                <polyline fill="none" points="578.4619,1.0 578.4619,157.0" vector-effect="non-scaling-stroke"/>
            </g>
            <g fill="none" font-family=".SF NS Text" font-size="13" font-style="normal" font-weight="400" stroke="#969696" stroke-linecap="square" stroke-linejoin="bevel" stroke-opacity="0.164706" stroke-width="1">
                <polyline fill="none" points="121.8392,1.0 121.8392,157.0" vector-effect="non-scaling-stroke"/>
                <polyline fill="none" points="252.3029,1.0 252.3029,157.0" vector-effect="non-scaling-stroke"/>
                <polyline fill="none" points="382.7659,1.0 382.7659,157.0" vector-effect="non-scaling-stroke"/>
                <polyline fill="none" points="513.2299,1.0 513.2299,157.0" vector-effect="non-scaling-stroke"/>
                <polyline fill="none" points="643.6929,1.0 643.6929,157.0" vector-effect="non-scaling-stroke"/>
            </g>
            <g fill="none" font-family=".SF NS Text" font-size="13" font-style="normal" font-weight="400" stroke="#969696" stroke-linecap="square" stroke-linejoin="bevel" stroke-opacity="1" stroke-width="1" transform="matrix(1,0,0,1,56.0469,157)">
                <text fill="#969696" fill-opacity="1" font-family="&quot;.SF NS Text&quot;, sans-serif" font-size="13" font-style="normal" font-weight="400" stroke="none" x="-3.53125" xml:space="preserve" y="12.5938">0</text>
                <text fill="#969696" fill-opacity="1" font-family="&quot;.SF NS Text&quot;, sans-serif" font-size="13" font-style="normal" font-weight="400" stroke="none" x="110.719" xml:space="preserve" y="12.5938">20000</text>
                <text fill="#969696" fill-opacity="1" font-family="&quot;.SF NS Text&quot;, sans-serif" font-size="13" font-style="normal" font-weight="400" stroke="none" x="240.922" xml:space="preserve" y="12.5938">40000</text>
                <text fill="#969696" fill-opacity="1" font-family="&quot;.SF NS Text&quot;, sans-serif" font-size="13" font-style="normal" font-weight="400" stroke="none" x="371.422" xml:space="preserve" y="12.5938">60000</text>
                <text fill="#969696" fill-opacity="1" font-family="&quot;.SF NS Text&quot;, sans-serif" font-size="13" font-style="normal" font-weight="400" stroke="none" x="501.891" xml:space="preserve" y="12.5938">80000</text>
            </g>
        </g>
        <g fill="none" fill-rule="evenodd" id="AxisItem_2" stroke="black" stroke-linecap="square" stroke-linejoin="bevel" stroke-width="1">
            <g fill="none" font-family=".SF NS Text" font-size="13" font-style="normal" font-weight="400" stroke="#969696" stroke-linecap="square" stroke-linejoin="bevel" stroke-opacity="1" stroke-width="1">
                <polyline fill="none" points="55.5469,1.0 55.5469,157.0" vector-effect="non-scaling-stroke"/>
            </g>
            <g fill="none" font-family=".SF NS Text" font-size="13" font-style="normal" font-weight="400" stroke="#969696" stroke-linecap="square" stroke-linejoin="bevel" stroke-opacity="0.247059" stroke-width="1">
                <polyline fill="none" points="686.5,43.8729 56.0469,43.8729" vector-effect="non-scaling-stroke"/>
            </g>
            <g fill="none" font-family=".SF NS Text" font-size="13" font-style="normal" font-weight="400" stroke="#969696" stroke-linecap="square" stroke-linejoin="bevel" stroke-opacity="0.164706" stroke-width="1">
                <polyline fill="none" points="686.5,136.389 56.0469,136.389" vector-effect="non-scaling-stroke"/>
                <polyline fill="none" points="686.5,105.55 56.0469,105.55" vector-effect="non-scaling-stroke"/>
                <polyline fill="none" points="686.5,74.7117 56.0469,74.7117" vector-effect="non-scaling-stroke"/>
                <polyline fill="none" points="686.5,13.0341 56.0469,13.0341" vector-effect="non-scaling-stroke"/>
            </g>
            <g fill="none" font-family=".SF NS Text" font-size="13" font-style="normal" font-weight="400" stroke="#969696" stroke-linecap="square" stroke-linejoin="bevel" stroke-opacity="1" stroke-width="1" transform="matrix(1,0,0,1,1.5,1)">
                <text fill="#969696" fill-opacity="1" font-family="&quot;.SF NS Text&quot;, sans-serif" font-size="13" font-style="normal" font-weight="400" stroke="none" x="18.9375" xml:space="preserve" y="47.3438">1000</text>
                <text fill="#969696" fill-opacity="1" font-family="&quot;.SF NS Text&quot;, sans-serif" font-size="13" font-style="normal" font-weight="400" stroke="none" x="24.8125" xml:space="preserve" y="139.859">400</text>
                <text fill="#969696" fill-opacity="1" font-family="&quot;.SF NS Text&quot;, sans-serif" font-size="13" font-style="normal" font-weight="400" stroke="none" x="24.8906" xml:space="preserve" y="109.016">600</text>
                <text fill="#969696" fill-opacity="1" font-family="&quot;.SF NS Text&quot;, sans-serif" font-size="13" font-style="normal" font-weight="400" stroke="none" x="24.875" xml:space="preserve" y="78.1875">800</text>
                <text fill="#969696" fill-opacity="1" font-family="&quot;.SF NS Text&quot;, sans-serif" font-size="13" font-style="normal" font-weight="400" stroke="none" x="19.2813" xml:space="preserve" y="16.5">1200</text>
            </g>
        </g>
        <g fill="none" fill-rule="evenodd" id="ViewBox_1" stroke="black" stroke-linecap="square" stroke-linejoin="bevel" stroke-width="1">
            <g fill="none" font-family=".SF NS Text" font-size="13" font-style="normal" font-weight="400" stroke="#000000" stroke-linecap="square" stroke-linejoin="bevel" stroke-opacity="1" stroke-width="1">
                <path d="M55.5469,1.0 L685.9999,1.0 L685.9999,157.0 L55.5469,157.0 L55.5469,1.0 " fill-rule="evenodd" vector-effect="non-scaling-stroke"/>
            </g>
            <clipPath id="ViewBox_1_clip">
                <path d="M55.5469,1.0 L686.0,1.0 L686.0,157.0 L55.5469,157.0 L55.5469,1.0 " fill-rule="evenodd" stroke-width="1.0" vector-effect="none"/>
            </clipPath>
            <g clip-path="url(#ViewBox_1_clip)">
                <g fill="none" fill-rule="evenodd" id="ChildGroup_1" stroke="black" stroke-linecap="square" stroke-linejoin="bevel" stroke-width="1">
                    <clipPath id="ChildGroup_1_clip">
                        <path d="M55.5469,1.0 L686.0,1.0 L686.0,157.0 L55.5469,157.0 L55.5469,1.0 " fill-rule="evenodd" stroke-width="1.0" vector-effect="none"/>
                    </clipPath>
                    <g clip-path="url(#ChildGroup_1_clip)">
                        <g fill="none" fill-rule="evenodd" id="InfiniteLine_1" stroke="black" stroke-linecap="square" stroke-linejoin="bevel" stroke-width="1">
                            <g fill="none" font-family=".SF NS Text" font-size="13" font-style="normal" font-weight="400" stroke="#ff0000" stroke-linecap="square" stroke-linejoin="miter" stroke-miterlimit="2" stroke-opacity="1" stroke-width="1">
                                <polyline fill="none" points="637.439,157.000203592 637.439,0.9993583000000115" vector-effect="non-scaling-stroke"/>
                            </g>
                        </g>
                        <g fill="none" fill-rule="evenodd" id="InfiniteLine_2" stroke="black" stroke-linecap="square" stroke-linejoin="bevel" stroke-width="1">
                            <g fill="none" font-family=".SF NS Text" font-size="13" font-style="normal" font-weight="400" stroke="#ff0000" stroke-linecap="square" stroke-linejoin="miter" stroke-miterlimit="2" stroke-opacity="1" stroke-width="1">
                                <polyline fill="none" points="55.546922046566,31.1221 686.0001117959999,31.1221" vector-effect="non-scaling-stroke"/>
                            </g>
                        </g>
                        <g fill="none" fill-rule="evenodd" id="TextItem_1" stroke="black" stroke-linecap="square" stroke-linejoin="bevel" stroke-width="1">
                            <g fill="#ffffff" fill-opacity="1" font-family=".SF NS Text" font-size="13" font-style="normal" font-weight="400" stroke="#000000" stroke-linecap="square" stroke-linejoin="bevel" stroke-opacity="1" stroke-width="1">
                                <path d="M637.439,133.0 L727.7983999999999,133.0 L727.7983999999999,157.0 L637.439,157.0 L637.439,133.0 " fill-rule="evenodd" vector-effect="non-scaling-stroke"/>
                            </g>
                            <g fill="none" fill-rule="evenodd" id="QGraphicsTextItem_1" stroke="black" stroke-linecap="square" stroke-linejoin="bevel" stroke-width="1">
                                


                                


                                <g fill="none" font-family=".SF NS Text" font-size="13" font-style="normal" font-weight="400" stroke="#000000" stroke-linecap="square" stroke-linejoin="bevel" stroke-opacity="1" stroke-width="1" transform="matrix(1,0,0,1,637.439,133)">
                                    <text fill="#000000" fill-opacity="1" font-family="&quot;.SF NS Text&quot;, sans-serif" font-size="13" font-style="normal" font-weight="400" stroke="none" x="4" xml:space="preserve" y="16.5625">X : 89117.933</text>
                                </g>
                                


                                

                            </g>
                        </g>
                        <g fill="none" fill-rule="evenodd" id="TextItem_2" stroke="black" stroke-linecap="square" stroke-linejoin="bevel" stroke-width="1">
                            <g fill="#ffffff" fill-opacity="1" font-family=".SF NS Text" font-size="13" font-style="normal" font-weight="400" stroke="#000000" stroke-linecap="square" stroke-linejoin="bevel" stroke-opacity="1" stroke-width="1">
                                <path d="M55.5469,31.1221 L141.4688,31.1221 L141.4688,55.1221 L55.5469,55.1221 L55.5469,31.1221 " fill-rule="evenodd" vector-effect="non-scaling-stroke"/>
                            </g>
                            <g fill="none" fill-rule="evenodd" id="QGraphicsTextItem_2" stroke="black" stroke-linecap="square" stroke-linejoin="bevel" stroke-width="1">
                                


                                


                                <g fill="none" font-family=".SF NS Text" font-size="13" font-style="normal" font-weight="400" stroke="#000000" stroke-linecap="square" stroke-linejoin="bevel" stroke-opacity="1" stroke-width="1" transform="matrix(1,0,0,1,55.5469,31.1221)">
                                    <text fill="#000000" fill-opacity="1" font-family="&quot;.SF NS Text&quot;, sans-serif" font-size="13" font-style="normal" font-weight="400" stroke="none" x="4" xml:space="preserve" y="16.5625">Y : 1082.693</text>
                                </g>
                                


                                

                            </g>
                        </g>
                        <g id="PlotDataItem_1">
                            <g fill="none" fill-rule="evenodd" id="PlotCurveItem_1" stroke="black" stroke-linecap="square" stroke-linejoin="bevel" stroke-width="1">
                                <g fill="none" font-family=".SF NS Text" font-size="13" font-style="normal" font-weight="400" stroke="#ff0000" stroke-linecap="square" stroke-linejoin="bevel" stroke-opacity="1" stroke-width="2">
                                    <path d="M56.1075,50.26418710600001 L56.688832102922,48.496198702000015 L57.27016551048,48.48648448 L57.851498265720004,50.43873471400002 L58.43283102096,48.336607912000005 L59.0141637762,44.908104322000014 L59.59549653144,50.064814264000006 L60.176829286680004,48.05304514600002 L60.758155518740004,46.666841086000005 L61.33948827398,44.63086351000001 L61.92082102922,43.86374836000002 L62.50215378446,45.41648194000001 L63.0835191556,46.55489624200001 L63.6647997254,46.90692114400002 L64.24614552700001,45.404763196000005 L64.8274913286,45.310859050000005 L65.4088371302,45.54924297400001 L65.9901177,44.54759875000002 L66.5714635016,45.39381542200002 L67.1528093032,43.893507802000016 L67.7341551048,41.54158672 L68.3155009064,37.97045368000002 L68.8967814762,33.87814492000001 L69.4781272778,35.350697620000005 L70.05947307940001,35.36457508000001 L70.640818881,33.88431268000002 L71.22216468260001,33.72857674000002 L71.8034452524,35.3229427 L72.384791054,33.52195677999998 L72.9661368556,33.27678832000001 L73.54748265719999,34.29755260000002 L74.1288284588,35.862621700000005 L74.7101090286,35.42008492000002 L75.2914548302,34.02771310000003 L75.8728006318,33.494201860000004 L76.4541464334,31.131949779999985 L77.035492235,32.06944930000003 L77.61677280480001,29.411144740000026 L78.1981186064,28.40579986000003 L78.779464408,28.300947940000015 L79.3608102096,27.389661399999994 L79.9421560112,26.459871579999998 L80.523436581,25.60255294000001 L81.1047823826,25.397474920000008 L81.6861281842,25.984954060000007 L82.2674739858,25.983412120000025 L82.84875455560001,26.082096280000002 L83.4301003572,26.325722800000023 L84.0114461588,28.31945122000002 L84.5927919604,31.256846920000015 L85.174137762,32.92676794000002 L85.7554183318,33.75633166000003 L86.33676413340001,32.120333320000015 L86.918109935,30.829729540000017 L87.4994557366,30.906826540000026 L88.0808015382,31.93375857999999 L88.662082108,32.10645586000001 L89.2434279096,32.07715900000002 L89.82477371120001,32.12495913999999 L90.4061195128,31.841242180000023 L90.9874653144,31.485054040000023 L91.5687458842,31.539021939999998 L92.1500916858,31.54827358 L92.7314374874,30.658574200000004 L93.31278328900001,30.891407140000013 L93.8941290906,30.621567639999995 L94.4754096604,30.354812019999997 L95.056755462,27.755101180000025 L95.6381012636,26.24091610000002 L96.2194470652,22.976629120000013 L96.80079286680001,23.149326400000007 L97.3820734366,25.924818399999992 L97.9634192382,26.060509120000006 L98.5447650398,26.66803348000002 L99.12611084139999,26.063592999999997 L99.7073914112,26.097515680000015 L100.2887372128,25.696611279999985 L100.8700830144,24.253355440000007 L101.451428816,24.167006800000024 L102.0327746176,21.767748160000025 L102.6140551874,19.94054926000001 L103.195400989,17.780291320000003 L103.7767467906,16.62383632000001 L104.3580925922,17.592174639999996 L104.9394383938,15.106567360000014 L105.5207189636,14.26004230000001 L106.1020647652,12.96327076 L106.6834105668,14.862940839999993 L107.2647563684,17.410225720000028 L107.84610217,21.932735740000027 L108.42738273980001,25.617972339999994 L109.00872854139999,26.058967180000025 L109.590074343,25.68735964000001 L110.1714201446,22.28892388 L110.7527659462,24.561743440000015 L111.334046516,23.12619730000003 L111.91539231760001,28.856046340000006 L112.4967381192,36.78315988 L113.0780839208,41.05124980000002 L113.6594297224,44.63564352400002 L114.2407102922,51.68847708400003 L114.8220560938,54.31810156 L115.40340189540001,53.381835592000016 L115.98474769699999,54.336296452 L116.5660282668,59.31383296600001 L117.1473740684,57.088350964 L117.72871986999999,57.56928205000003 L118.3100656716,60.49696352800001 L118.89141147320001,63.16883716000001 L119.472692043,62.097651442 L120.0540378446,63.808896454000006 L120.6353836462,66.27862175200002 L121.21672944779999,62.930144848 L121.79787955399999,58.308025504 L122.379094892,60.11672112400001 L122.960962548,57.915293386 L123.542177886,58.080743548000015 L124.123393224,60.585779272000025 L124.704608562,59.60880608800002 L125.2858239,58.834289626000015 L125.86769155600001,57.82061827000001 L126.44890689399999,61.89766182400001 L127.030122232,60.48786608200001 L127.61133757,60.76418172999999 L128.192552908,62.83685747800001 L128.773768246,65.23950838600001 L129.35563590200002,62.12833604800002 L129.93685124,61.77769889200002 L130.518066578,59.69839280200003 L131.099281916,62.425159498 L131.680497254,60.287105494 L132.26171259199998,57.91714371400002 L132.84358024800002,53.96422633000003 L133.42479558600002,49.18652524000001 L134.006010924,42.9401263 L134.587226262,45.935961526 L135.1684416,44.071756066000006 L135.750309256,43.41195994 L136.331524594,48.30160587400002 L136.912739932,48.58408928200001 L137.49395527000001,47.60958320200001 L138.075170608,46.80607826800002 L138.656385946,43.21150774 L139.238253602,45.09699197200001 L139.81946894,42.283259860000015 L140.400684278,42.54538966000001 L140.98189961600002,39.216341200000016 L141.563114954,36.19259686000001 L142.14498261,30.899116840000005 L142.726197948,29.14130524000001 L143.30741328599998,26.35347772000003 L143.88862862399998,26.447536060000004 L144.469843962,27.92779845999999 L145.05105930000002,29.488241740000007 L145.632926956,29.534499940000018 L146.214142294,27.85070146000001 L146.795357632,25.02124156000002 L147.37657296999998,23.001300160000028 L147.957788308,21.958948720000024 L148.539655964,21.581173420000027 L149.120871302,21.245030500000013 L149.70208664,22.130104060000008 L150.283301978,18.272170180000018 L150.864517316,22.17636225999999 L151.44573265399998,25.516204300000027 L152.02760031,28.376503000000014 L152.60881564800002,30.99317518000001 L153.190030986,36.12783537999999 L153.771246324,41.50766404000001 L154.352461662,45.65548264 L154.933677,50.05772134 L155.515544656,50.57226671800001 L156.096759994,52.94176591600001 L156.67797533200002,50.66200762600002 L157.25919067,48.89617793800002 L157.840406008,47.593084444 L158.422273664,45.90820660599999 L159.00348900199998,44.03459531200002 L159.58470434,43.12978491999999 L160.16591967800002,41.35501198 L160.74713501600002,41.331882879999995 L161.328350354,43.15908178000001 L161.91021801,42.18611763999999 L162.491433348,42.76588708000003 L163.072648686,42.58548010000001 L163.653864024,39.831575259999994 L164.23507936200002,43.32715324 L164.816947018,49.10187273400001 L165.398162356,55.46160426399999 L165.979377694,57.910821760000005 L166.560593032,56.75698805800002 L167.14180837,58.828121866000004 L167.72302370799997,61.092152368 L168.304891364,64.26130165000001 L168.886106702,64.77214637200001 L169.46732204,64.5118669 L170.048537378,63.04101033400002 L170.62975271599998,61.66220758600002 L171.21162037200003,63.213707614000015 L171.79283571000002,68.21622355600002 L172.374051048,70.829040886 L172.955266386,72.029132788 L173.536481724,72.75908718400001 L174.117697062,77.10226958200002 L174.69956471799998,81.27182953600001 L175.28078005600003,82.46667884200001 L175.861995394,84.97418167000001 L176.443210732,85.325127214 L177.02442607,86.24319829000001 L177.605641408,86.66599823800001 L178.18750906399998,87.04624064200001 L178.768724402,85.38880933600001 L179.34993974,82.42859292400001 L179.931155078,83.13279692200001 L180.512370416,82.27254859600001 L181.094238072,82.156132126 L181.67545341,82.936199572 L182.25666874799998,82.83859477000001 L182.837884086,82.28519250400001 L183.419099424,84.45901951600001 L184.00031476200002,83.558218168 L184.582182418,81.688615918 L185.163397756,80.84024053 L185.744613094,81.71066566 L186.32582843200004,80.228707126 L186.90704376999997,78.24993552400001 L187.48891142600002,77.25492164200001 L188.070126764,76.728349132 L188.651342102,76.85833467400002 L189.23255744,75.99284375200001 L189.813772778,74.15855192800001 L190.39498811599998,73.992176602 L190.97685577200002,69.783451372 L191.55807111000001,68.60957245 L192.139286448,69.192579964 L192.720501786,69.48524017600002 L193.301717124,69.681529138 L193.88358477999998,70.11481427800001 L194.46480011799997,71.98672943800001 L195.04601545600002,70.89164365 L195.627230794,69.748140946 L196.208446132,66.53627992600002 L196.78966147,62.994289552000026 L197.37152912599998,63.349244139999996 L197.95274446399998,61.82549903200001 L198.53395980200003,61.492439992000016 L199.11517514000002,61.797744112000004 L199.696390478,61.67007147999999 L200.277605816,61.03803027400002 L200.859473472,60.39997550200002 L201.44068880999998,60.528573298000026 L202.02190414799998,61.260686410000005 L202.60311948600003,62.437186630000014 L203.18433482400002,61.99310791000002 L203.76620248,61.70985353200001 L204.347417818,62.79244960599999 L204.928633156,62.748195928 L205.50984849399998,63.24824707000002 L206.09106383200003,64.114200574 L206.67227917000002,65.149767478 L207.254146826,65.525384062 L207.835362164,65.87956768000001 L208.416577502,66.065834032 L208.99779284,67.149046882 L209.57900817799998,68.63732737000001 L210.16087583400002,67.95717763600001 L210.74209117200002,68.480203684 L211.32330651,69.10237647400001 L211.904521848,68.794913638 L212.485737186,69.43050130600002 L213.066952524,68.61219374800001 L213.64882017999997,71.59584764800002 L214.23003551799997,73.95486165400001 L214.81125085600002,74.66924245600002 L215.392466194,76.19823016000001 L215.973681532,77.95249529800002 L216.55489687,76.26869681800001 L217.13676452599998,78.46364840800001 L217.71797986399997,78.261500074 L218.29919520200002,78.59209201 L218.88041054,76.74191820400002 L219.461625878,76.71832652200001 L220.043493534,78.26674267 L220.62470887199999,76.50230072800001 L221.20592420999998,77.87616926800001 L221.78713954799997,78.69632715400002 L222.36835488600002,80.91086138200001 L222.949570224,81.700951438 L223.53143788,81.06181730800002 L224.112653218,83.34913110400001 L224.69386855599998,85.70259412600001 L225.27508389399998,87.20135980600001 L225.85629923200003,87.44621987800001 L226.438166888,88.83812911600002 L227.019382226,90.025422916 L227.600597564,92.362695568 L228.181812902,95.210196166 L228.76302823999998,95.21420521000002 L229.34424357799998,94.88947264600002 L229.92611123400002,93.61444246000002 L230.507326572,95.26616858800001 L231.08854191,95.56407139600002 L231.669757248,94.04171403400001 L232.250972586,93.312068026 L232.83284024200003,93.264884662 L233.41405558000002,92.73846634600001 L233.99527091800002,91.023829066 L234.576486256,90.92113586200001 L235.157701594,92.77300580200001 L235.738916932,92.0200765 L236.32078458799998,92.078053444 L236.90199992600003,93.807339154 L237.48321526400002,93.53210286400001 L238.06443060200002,93.746895106 L238.64564594,92.02470232 L239.226861278,94.51771091200001 L239.808728934,95.84208317800001 L240.38994427200004,96.32286007 L240.97115960999997,95.66213878 L241.55237494799997,88.95315784000002 L242.13359028600001,84.399192244 L242.715457942,80.04968789200002 L243.29667328,82.152585664 L243.877888618,87.26982194200001 L244.45910395599998,90.817054912 L245.04031929399997,97.078719058 L245.62153463200002,101.0250061 L246.203402288,98.20171396000002 L246.784617626,98.38597579 L247.365832964,101.051835856 L247.94704830199998,99.23774344600001 L248.52826363999998,97.59496057 L249.11013129600002,96.13936921000001 L249.691346634,92.58550589800001 L250.272561972,87.67149731200001 L250.85377731,84.19719810400001 L251.434992648,82.42674259600001 L252.01620798599998,84.00260527600001 L252.59807564200003,81.50049923800002 L253.17929098000002,81.23898621400001 L253.760506318,84.287709982 L254.341721656,81.42787386400002 L254.922936994,80.44195742800001 L255.50480464999998,79.43661254800001 L256.086019988,79.47161458600002 L256.667235326,80.38583081200001 L257.248450664,84.10915333000001 L257.829666002,86.36069411800001 L258.41088134,87.23990830600002 L258.992748996,88.43074856800001 L259.573964334,88.228600234 L260.15517967200003,91.533286042 L260.73639501,102.35446676800002 L261.317610348,106.72895054800001 L261.898825686,105.53548898800001 L262.480693342,106.65956324800001 L263.06190868,112.865409166 L263.643124018,117.019858108 L264.22433935600003,117.978790594 L264.805554694,112.42055947600001 L265.38742235,108.58683405400001 L265.968637688,108.426934876 L266.549853026,105.21646160200001 L267.131068364,112.55239534600001 L267.71228370200004,120.39408541 L268.29349904,124.941729052 L268.875366696,127.66433251000001 L269.456582034,128.677849672 L270.037797372,130.010702608 L270.61901271,131.818781452 L271.200228048,132.11051650000002 L271.782095704,130.81867916800002 L272.363311042,131.087593504 L272.94452638,132.343657828 L273.525741718,135.40548808600002 L274.106957056,136.68020988400002 L274.688172394,137.321194342 L275.27004005,137.672756662 L275.85125538799997,138.140735452 L276.43247072599996,138.47364029800002 L277.013686064,139.07545948 L277.594901402,139.402659148 L278.176769058,139.005609598 L278.757984396,139.01285671600002 L279.33919973400003,139.207912126 L279.920415072,139.85938177600002 L280.50163041,140.36097485800002 L281.082845748,141.90461099200002 L281.664713404,141.82797657400002 L282.245928742,142.294876006 L282.82714408,143.62711216600002 L283.408359418,144.067644424 L283.98957475599997,143.859174136 L284.570790094,143.427276742 L285.15265775,143.978520292 L285.733873088,142.080854734 L286.315088426,142.758228976 L286.89630376400004,142.456317124 L287.47751910200003,141.40795211800003 L288.059386758,140.34293416 L288.640602096,140.408158222 L289.221817434,140.310090838 L289.803032772,141.68241743800002 L290.38424811,142.120945174 L290.965463448,143.55834164200002 L291.547331104,144.61888797400002 L292.128546442,144.504167638 L292.70976178,145.03505758 L293.290977118,145.036753714 L293.872192456,144.846324124 L294.45406011200004,144.68303267800002 L295.03527545,143.872589014 L295.61649078799996,142.712279164 L296.19770612599996,143.18534635600003 L296.778921464,143.06353309600001 L297.360136802,142.737104398 L297.942004458,142.25617331200002 L298.523219796,142.282232098 L299.104435134,142.32386447800002 L299.685650472,141.833064976 L300.26686581,141.564613222 L300.848081148,141.115137712 L301.429948804,140.93226362800002 L302.011164142,140.55572188000002 L302.59237948,140.105012818 L303.17359481799997,140.678614498 L303.75481015599996,140.765888302 L304.336677812,140.334299296 L304.91789315,139.614521704 L305.499108488,138.26301129400002 L306.080323826,139.628399164 L306.66153916400003,139.187712712 L307.242754502,138.674400886 L307.824622158,139.50319363600002 L308.405837496,140.35850775400002 L308.987052834,139.56147896800002 L309.568268172,138.985564378 L310.14948351,138.87654922000002 L310.73135116599997,138.998979256 L311.312566504,138.47826611800002 L311.893781842,138.71171583400002 L312.47499718,137.69233930000001 L313.056212518,138.14412772 L313.637427856,137.865499162 L314.21929551200003,137.696502538 L314.80051085,137.082347836 L315.381726188,136.952362294 L315.962941526,136.797551518 L316.54415686400006,136.61375227000002 L317.12602452,136.26064801 L317.707239858,136.063433884 L318.288455196,135.985103332 L318.869670534,135.97477233400002 L319.450885872,135.76398913600002 L320.03210121,135.43046751400001 L320.613968866,135.203802334 L321.19518420400004,134.471380834 L321.77639954200004,134.276788006 L322.35761488,134.17995417400002 L322.938830218,134.06261254000003 L323.520045556,133.703957296 L324.101913212,133.13020142200003 L324.68312855,132.524219002 L325.264343888,132.209663242 L325.845559226,132.30079189600002 L326.426774564,132.126090094 L327.00864222,131.69419270000003 L327.589857558,131.046115318 L328.171072896,130.983204166 L328.75228823400005,131.333224546 L329.33350357200004,131.677385554 L329.91471891000003,131.89079005000002 L330.496586566,132.127632034 L331.077801904,131.434067422 L331.659017242,131.362521406 L332.24023258,131.166540832 L332.821447918,131.134314286 L333.40331557400003,131.058450838 L333.984530912,130.12681069 L334.56574625,129.489835276 L335.146961588,129.461309386 L335.728176926,129.522061822 L336.30939226400005,129.25253071 L336.89125992000004,129.377582044 L337.47247525800003,128.66366382400003 L338.05369059599997,128.112574468 L338.634905934,128.42774700400003 L339.216121272,129.543648982 L339.797988928,130.135599748 L340.379204266,130.43211481000003 L340.96041960400004,131.08898125000002 L341.54163494200003,131.317342564 L342.12285028,131.57006653000002 L342.704065618,131.800894948 L343.28593327400006,131.65518161800003 L343.86714861200005,131.145878836 L344.44836395,130.734797632 L345.029579288,130.445683882 L345.610794626,129.773243848 L346.192009964,130.15687852000002 L346.77387762,130.662018064 L347.355092958,130.23783037 L347.936308296,130.16828887600002 L348.51752363400004,129.906159076 L349.09873897200004,129.60470980600002 L349.680606628,129.295242448 L350.261821966,129.78758389 L350.843037304,130.002838714 L351.424252642,130.406056024 L352.00546798,131.058605032 L352.586683318,131.04997016800002 L353.168550974,131.897266198 L353.749766312,132.18175412800002 L354.33098165,131.922245626 L354.912196988,131.773294222 L355.493412326,131.94845860600003 L356.07527998200004,131.846382178 L356.65649532000003,132.362006914 L357.237710658,133.268667634 L357.818925996,133.564103338 L358.400141334,134.970661006 L358.981356672,133.932010222 L359.563224328,133.476366952 L360.144439666,134.317186834 L360.72565500400003,135.09802525 L361.306870342,136.22132854 L361.88808568,136.24507441600002 L362.469953336,136.02056795200002 L363.05116867400005,137.741372992 L363.63238401200005,137.322119506 L364.21359935000004,137.44747922800002 L364.79481468800003,136.601570944 L365.37603002599997,134.62773355000002 L365.957897682,134.894951752 L366.53911302,134.225441404 L367.120328358,134.07032224 L367.701543696,133.864627444 L368.28275903400004,132.979553884 L368.86397437200003,132.65821358800002 L369.445842028,132.017383324 L370.027057366,131.54308258 L370.60827270400006,128.15775331 L371.18948804200005,127.84180980400001 L371.77070338,127.31230760800001 L372.352571036,126.24806062000002 L372.933786374,124.4008165 L373.515001712,125.04812291200001 L374.09621705,123.384369652 L374.677432388,124.16289515800001 L375.258647726,122.88323915200002 L375.84051538200004,120.68427851800001 L376.42173072,123.143210236 L377.002946058,123.756593968 L377.584161396,123.134266984 L378.165376734,123.03219055600002 L378.74724439,123.364170238 L379.328459728,123.959359078 L379.909675066,123.311744278 L380.490890404,122.759575564 L381.072105742,122.740763896 L381.65332108,122.86689458800001 L382.235188736,122.91978313 L382.81640407400005,123.558454678 L383.39761941200004,123.671170492 L383.97883475000003,123.699696382 L384.560050088,123.264098332 L385.141265426,123.277359016 L385.723133082,122.968662628 L386.30434842,123.19887427 L386.885563758,122.923175398 L387.466779096,122.741380672 L388.04799443400003,122.83559320600001 L388.62986209,122.41973198800001 L389.211077428,122.358825358 L389.792292766,122.41294745200001 L390.37350810400005,122.379795742 L390.95472344200004,122.10702655600001 L391.53593878000004,122.019906946 L392.11780643599997,121.84613030800001 L392.699021774,121.74559582 L393.280237112,121.28455576000002 L393.86145245,121.27299121 L394.442667788,121.32048296200001 L395.02453544400004,120.872241004 L395.60575078200003,120.64573001800001 L396.18696612,120.68813336800001 L396.768181458,120.25993663 L397.349396796,119.80460174800001 L397.93061213400006,119.49251309200001 L398.51247979,119.76821196400002 L399.093695128,119.66999038600001 L399.674910466,119.146501756 L400.256125804,118.01857264600001 L400.837341142,117.728379538 L401.419208798,116.36761748800002 L402.000424136,116.79334712200001 L402.58163947400004,116.77253093200001 L403.16285481200003,116.520115354 L403.74407015,116.27556367 L404.325285488,116.020526794 L404.907153144,115.37969653 L405.488368482,115.35440871400002 L406.06958382,115.087190512 L406.650799158,115.92754781200001 L407.232014496,116.447181592 L407.813229834,116.854870528 L408.39509749,117.476118154 L408.976312828,117.92220139600002 L409.557528166,118.34947297000001 L410.13874350400005,118.76579677000001 L410.71995884200004,119.081431888 L411.301826498,119.658271642 L411.883041836,119.835594742 L412.464257174,120.00289523200001 L413.045472512,120.191782882 L413.62668785,120.39023056 L414.207903188,120.59361244600001 L414.78977084400003,120.56446978000001 L415.370986182,120.823669894 L415.95220152,120.880721674 L416.533416858,121.01101560400001 L417.114632196,121.03229437600001 L417.69649985200004,121.114479778 L418.27771519000004,121.16012120200001 L418.85893052800003,121.25371696 L419.44014586599997,121.338986242 L420.021361204,121.447076236 L420.602576542,121.65785943400002 L421.184444198,121.889304628 L421.765659536,121.785532066 L422.34687487400004,121.91289631000001 L422.92809021200003,122.221130116 L423.50930555,122.27972383600002 L424.091173206,122.11627819600001 L424.67238854400006,122.14310795200001 L425.25360388200005,122.17579708000001 L425.83481922,122.079888412 L426.416034558,122.16500350000001 L426.99724989599997,122.353736956 L427.579117552,122.376557668 L428.16033289,122.45982242800001 L428.741548228,122.275098016 L429.322763566,121.889304628 L429.90397890400004,121.815908284 L430.48519424200003,122.229456592 L431.067061898,122.22683529400001 L431.648277236,121.96701840400002 L432.229492574,122.22097592200001 L432.810707912,122.195688106 L433.39192325,121.92692796400001 L433.973790906,122.06924902600001 L434.555006244,122.09931685600002 L435.136221582,121.86216648400001 L435.71743692,121.66310203 L436.298652258,121.54869008200001 L436.879867596,121.391566396 L437.46173525200004,121.381235398 L438.04295059000003,121.39588382800001 L438.624165928,121.24724081200002 L439.205381266,121.411611616 L439.786596604,121.470051142 L440.36846426,121.48408279600001 L440.949679598,121.596490222 L441.530894936,121.742049358 L442.11211027400003,122.026691482 L442.693325612,121.88652913600001 L443.27454095,121.75839392200001 L443.856408606,121.81513731400001 L444.43762394400005,121.940805424 L445.01883928200004,122.00140366600002 L445.60005462000004,121.92045181600001 L446.18126995800003,122.025612124 L446.763137614,122.00464174000001 L447.344352952,121.77026686 L447.92556829,121.79231660200001 L448.506783628,121.79277918400001 L449.087998966,121.75392229600001 L449.66921430400004,121.678058848 L450.25108196,121.69301566600001 L450.832297298,122.09530781200002 L451.413512636,121.99508171200002 L451.99472797400006,121.90395305800001 L452.57594331200005,122.05105413400001 L453.15715865,121.911662758 L453.73902630599997,122.09160715600001 L454.320241644,121.82593089400001 L454.901456982,121.508291254 L455.48267232,121.574286286 L456.063887658,121.682530474 L456.64575531400004,121.920760204 L457.22697065200003,121.822847014 L457.80818599,122.30578262200001 L458.389401328,121.84304642800001 L458.970616666,120.56184848200002 L459.551832004,119.61293860600001 L460.13369966,120.160944082 L460.714914998,121.34700433 L461.296130336,121.479765364 L461.877345674,121.51091255200001 L462.458561012,120.158322784 L463.040428668,120.69090886000001 L463.621644006,121.27129507600002 L464.20285934400005,121.11062492800001 L464.78407468200004,121.150561174 L465.36529002000003,120.60748990600001 L465.946505358,120.66299974600001 L466.528373014,120.69476371 L467.109588352,120.76276326400001 L467.69080369,120.71727603400001 L468.272019028,120.76091293600001 L468.853234366,120.646500988 L469.435102022,120.488606332 L470.01631736,120.568170436 L470.597532698,120.46362690400001 L471.178748036,120.32701102 L471.75996337400005,120.23634494800001 L472.34117871200004,120.17497573600001 L472.92304636800003,119.99472295000001 L473.50426170599997,119.99981135200001 L474.085477044,120.01029654400001 L474.666692382,119.82433858 L475.24790772,119.964192538 L475.829123058,119.87213872000001 L476.41099071400004,119.78054748400001 L476.99220605200003,119.934895678 L477.57342139,119.76728680000001 L478.154636728,119.89095038800001 L478.735852066,119.59998631 L479.31771972200005,119.66197229800001 L479.89893506,119.572539778 L480.480150398,119.25659627200001 L481.06136573599997,119.19291415000001 L481.642581074,119.04010789600001 L482.223796412,118.96779091 L482.805664068,118.84597765000001 L483.386879406,118.755928354 L483.96809474400004,118.43767193800001 L484.549310082,118.33312840600001 L485.13052542,118.15148787400001 L485.712393076,117.99960678400001 L486.293608414,117.85173473800002 L486.874823752,117.74133183400001 L487.45603909,117.710955616 L488.03725442800004,117.34690358200001 L488.618469766,116.76620897800001 L489.20033742199996,115.58662487800001 L489.78155276,112.139772202 L490.36276809800006,106.02567171400001 L490.943983436,101.80661548600001 L491.52519877400005,100.251260608 L492.106414112,102.13659064600002 L492.688281768,104.79659134 L493.269497106,108.08123192800001 L493.850712444,108.19163483200002 L494.431927782,110.82850642600002 L495.01314312,111.95921102800001 L495.595010776,112.636893658 L496.17622611400003,113.65812052000001 L496.75744145199997,114.216148606 L497.33865679,114.34567156600001 L497.91987212800007,114.44235120400002 L498.501087466,114.63170143600001 L499.082955122,115.18217401600002 L499.66417046000004,115.20006052000001 L500.24538579800003,115.46219032 L500.82660113599997,115.664647042 L501.407816474,115.84597918600001 L501.98968413,116.034558448 L502.57089946800005,116.24410809400001 L503.152114806,116.13725165200002 L503.73333014400004,116.172562078 L504.31454548199997,116.48172104800001 L504.89576082,116.44671901000001 L505.477628476,116.61078142600002 L506.05884381400006,116.46830617 L506.640059152,116.286665638 L507.22127449,116.17749628600001 L507.80248982800003,116.123065804 L508.384357484,116.23855711000002 L508.96557282199996,116.24780875 L509.54678816,116.16593173600002 L510.12800349800006,115.81914943000001 L510.709218836,115.77612930400001 L511.29043417400004,115.56257061400001 L511.87230183,115.40976436000001 L512.4535171680001,115.25957940400001 L513.034732506,115.093512466 L513.615947844,115.01117287000001 L514.1971631819999,115.03353100000001 L514.7783785199999,114.907708696 L515.3602461759999,114.84155947 L515.941461514,114.396863974 L516.5226768519999,114.3782065 L517.10389219,114.50772946000001 L517.685107528,114.576191596 L518.266975184,114.910792576 L518.848190522,115.41315662800001 L519.42940586,116.09746960000001 L520.010621198,113.58626611600002 L520.591836536,111.91649929 L521.173051874,111.118853728 L521.7549195299999,110.625741316 L522.336134868,109.93510639 L522.9173502059999,109.521249694 L523.498565544,108.972010666 L524.0797808819999,108.323316508 L524.661648538,107.60384730400001 L525.242863876,107.17534217800001 L525.824079214,106.57475654800001 L526.405294552,106.63119155200002 L526.98650989,107.00696233000002 L527.567725228,107.61371572 L528.149592884,108.117775906 L528.730808222,108.07722288400001 L529.31202356,107.85055770400001 L529.893238898,108.051164098 L530.4744542359999,108.07922740600002 L531.0563218919999,108.36818696200001 L531.63753723,108.428014234 L532.218752568,108.043762786 L532.799967906,107.67415976800001 L533.381183244,107.355594964 L533.962398582,107.142036274 L534.544266238,107.01374686600002 L535.125481576,107.83143764800002 L535.706696914,109.582156324 L536.287912252,107.973450322 L536.86912759,107.69821403200001 L537.450342928,108.249920164 L538.032210584,107.81031307 L538.6134259219999,108.555224284 L539.19464126,108.63586774600002 L539.775856598,108.26210149000002 L540.357071936,107.47648306 L540.938939592,106.81036498 L541.52015493,106.72833377200001 L542.101370268,106.50876151600002 L542.682585606,106.524026722 L543.263800944,106.316327404 L543.845016282,106.110478414 L544.4268839380001,105.902316514 L545.0080992759999,105.516060544 L545.589314614,105.62091246400001 L546.1705299519999,105.40581183400002 L546.75174529,105.264415936 L547.333612946,105.224788078 L547.914828284,104.31458089600001 L548.496043622,103.753160542 L549.07725896,104.58580814200002 L549.658474298,104.10734416000001 L550.239689636,104.17935275800001 L550.821557292,103.065301108 L551.40277263,103.94544046000001 L551.9839879680001,103.48810105600002 L552.565203306,102.89815481200002 L553.146418644,102.89584190200002 L553.7282863,103.79818519000001 L554.309501638,103.10045734 L554.890716976,102.35523773800001 L555.471932314,101.97561211000001 L556.0531476519999,101.63993177200001 L556.63436299,101.215744078 L557.216230646,100.72417360600001 L557.797445984,96.22988108800001 L558.378661322,93.451921984 L558.95987666,92.57239940800001 L559.5410919980001,91.65201542200002 L560.122307336,91.67915356600001 L560.7041749919999,88.786782514 L561.2853903299999,87.05610905800002 L561.866605668,83.69113339600001 L562.4478210059999,84.069371278 L563.029036344,87.99638407 L563.610904,91.79264035 L564.192119338,93.862386412 L564.773334676,93.957986692 L565.354550014,93.36942819400001 L565.935765352,92.56607745400002 L566.51698069,93.65175740800001 L567.098848346,93.62569862200002 L567.680063684,93.14970174400001 L568.2612790219999,92.907617164 L568.8424943599999,92.65967321200002 L569.423709698,91.809447496 L570.005577354,91.280407882 L570.5867926919999,91.04495364400002 L571.16800803,91.823016568 L571.749223368,90.57065290000001 L572.3304387059999,89.41265596000001 L572.911654044,87.896466358 L573.4935217,86.34465794200001 L574.074737038,81.30729415600001 L574.655952376,81.807962074 L575.237167714,75.675358306 L575.818383052,69.409993504 L576.3995983899999,66.02389326400001 L576.9814660459999,63.484009696000015 L577.562681384,60.60952514800002 L578.1438967219999,61.405782964000025 L578.7251120599999,63.706511637999995 L579.306327398,56.248302052000014 L579.888195054,50.075453650000014 L580.4694103919999,47.18817100000001 L581.05062573,46.73499483400002 L581.631841068,46.13225048800001 L582.213056406,44.093497420000006 L582.794271744,45.159440542 L583.3761393999999,38.349770920000026 L583.957354738,35.31985882000001 L584.5385700759999,31.27380826000001 L585.1197854139999,25.493075199999993 L585.7010007519999,24.73135683999999 L586.282868408,21.20185618000002 L586.8640837459999,20.595873760000018 L587.445299084,22.130104060000008 L588.0265144219999,20.381544100000013 L588.60772976,22.96891942000002 L589.188945098,23.746057180000008 L589.770812754,22.110058839999994 L590.352028092,21.254282140000015 L590.93324343,20.810203420000022 L591.5144587679999,20.895010120000023 L592.0956741059999,22.128562120000026 L592.6775417619999,24.18705202000001 L593.2587570999999,23.425333660000035 L593.839972438,24.58487254000002 L594.4211877759999,25.44990088 L595.002403114,25.984954060000007 L595.5836184519999,26.35347772000003 L596.165486108,24.276484540000013 L596.746701446,23.146242519999987 L597.327916784,23.508598420000027 L597.909132122,24.476936740000014 L598.49034746,23.27884936000001 L599.071562798,24.6527179 L599.6534304539999,25.280287480000027 L600.2346457919999,26.08672210000003 L600.8158611299999,28.16525722000003 L601.397076468,29.133595540000016 L601.9782918059999,30.311637700000006 L602.5601594619999,30.80660044000001 L603.1413748,31.329318100000023 L603.722590138,31.67317072000003 L604.303805476,31.327776160000013 L604.885020814,29.327879980000034 L605.466236152,27.200002780000005 L606.048103808,25.675024120000018 L606.629319146,27.514558540000024 L607.2105344839999,29.249241040000015 L607.7917498219999,28.56307774000001 L608.3729651599999,29.26003462 L608.9548328159999,30.20215995999999 L609.536048154,31.43417002000001 L610.1172634919999,31.98926842000003 L610.69847883,32.61529606000002 L611.279694168,32.197430319999995 L611.860909506,31.498931499999998 L612.442777162,30.45658006000002 L613.0239925,30.65086450000001 L613.605207838,30.976213839999986 L614.186423176,31.15662082 L614.7676385139999,31.733306380000016 L615.3495061699999,32.22364330000002 L615.930721508,32.792619160000015 L616.5119368459999,33.179646100000014 L617.093152184,33.856557760000015 L617.6743675219999,31.724054740000014 L618.25558286,33.87351910000001 L618.837450516,34.34535274000001 L619.418665854,34.570475980000026 L619.9998811919999,34.70770863999999 L620.58109653,35.91967348000003 L621.162311868,36.022983460000006 L621.743527206,35.86724752000001 L622.3253948619999,35.76856336000003 L622.9066101999999,35.33527822000002 L623.487825538,36.373003839999996 L624.0690408759999,37.21181920000001 L624.650256214,37.58342674000002 L625.23212387,37.79621445999999 L625.813339208,37.06070908000001 L626.3945545459999,36.50869456000001 L626.975769884,35.30135554000003 L627.5569852219999,36.798579279999984 L628.13820056,38.68899772000003 L628.720068216,38.422242100000034 L629.301283554,38.24954482000001 L629.882498892,37.09308982000002 L630.4637142299999,37.19639980000002 L631.044929568,38.150860660000035 L631.626797224,38.940333940000016 L632.2080125619999,39.368993259999996 L632.7892278999999,38.98967601999999 L633.370443238,38.09843470000001 L633.9516585759999,37.41227140000001 L634.532873914,36.23114536000003 L635.11474157,34.476417639999994 L635.695956908,33.68848630000002 L636.277172246,34.11251980000003 L636.858387584,33.35696920000001 L637.439602922,31.12269814000001 " fill-rule="evenodd" vector-effect="non-scaling-stroke"/>
                                </g>
                            </g>
                        </g>
                    </g>
                </g>
                <g fill="none" fill-rule="evenodd" id="QGraphicsRectItem_1" stroke="black" stroke-linecap="square" stroke-linejoin="bevel" stroke-width="1">
                    <g fill="none" font-family=".SF NS Text" font-size="13" font-style="normal" font-weight="400" stroke="none" transform="matrix(1,0,0,1,55.5469,1)">
                        <rect height="156" vector-effect="non-scaling-stroke" width="630.453" x="0" y="0"/>
                    </g>
                </g>
            </g>
        </g>
    </g>
</g>

</svg>
